<?xml version="1.0" encoding="UTF-8" standalone="no"?>
<!DOCTYPE svg PUBLIC "-//W3C//DTD SVG 1.1//EN"
 "http://www.w3.org/Graphics/SVG/1.1/DTD/svg11.dtd">
<!-- Generated by graphviz version 2.40.1 (20161225.0304)
 -->
<!-- Title: oneDegreeRelationshipsDiagram Pages: 1 -->
<svg width="574pt" height="534pt"
 viewBox="0.00 0.00 574.00 534.20" xmlns="http://www.w3.org/2000/svg" xmlns:xlink="http://www.w3.org/1999/xlink">
<g id="graph0" class="graph" transform="scale(1 1) rotate(0) translate(4 530.2)">
<title>oneDegreeRelationshipsDiagram</title>
<polygon fill="#ffffff" stroke="transparent" points="-4,4 -4,-530.2 570,-530.2 570,4 -4,4"/>
<text text-anchor="middle" x="72.4936" y="-7.3" font-family="Helvetica,sans-Serif" font-size="11.00" fill="#000000">Generated by SchemaSpy</text>
<!-- datastream -->
<g id="node1" class="node">
<title>datastream</title>
<g id="a_node1"><a xlink:href="../../tables/datastream.html" xlink:title="datastream" target="_top">
<polygon fill="#ffffff" stroke="transparent" points="369,-150.2 369,-522.2 558,-522.2 558,-150.2 369,-150.2"/>
<polygon fill="#f5f5f5" stroke="transparent" points="369.5,-499.2 369.5,-522.2 558.5,-522.2 558.5,-499.2 369.5,-499.2"/>
<polygon fill="none" stroke="#000000" points="369.5,-499.2 369.5,-522.2 558.5,-522.2 558.5,-499.2 369.5,-499.2"/>
<text text-anchor="start" x="374.5" y="-507.8" font-family="Helvetica,sans-Serif" font-weight="bold" font-size="11.00" fill="#000000">datastream</text>
<text text-anchor="start" x="523.5437" y="-507.3" font-family="Helvetica,sans-Serif" font-size="11.00" fill="#000000">[table]</text>
<polygon fill="none" stroke="#000000" points="369.5,-477.2 369.5,-499.2 558.5,-499.2 558.5,-477.2 369.5,-477.2"/>
<image xlink:href="../../images/primaryKeys.png" width="11px" height="12px" preserveAspectRatio="xMinYMin meet" x="374.5" y="-494.2"/>
<text text-anchor="start" x="389.5" y="-484.3" font-family="Helvetica,sans-Serif" font-size="11.00" fill="#000000">id</text>
<polygon fill="#ffffff" stroke="transparent" points="369.5,-455.2 369.5,-477.2 558.5,-477.2 558.5,-455.2 369.5,-455.2"/>
<polygon fill="none" stroke="#000000" points="369.5,-455.2 369.5,-477.2 558.5,-477.2 558.5,-455.2 369.5,-455.2"/>
<text text-anchor="start" x="389.5" y="-462.3" font-family="Helvetica,sans-Serif" font-size="11.00" fill="#000000">guidkey</text>
<polygon fill="#ffffff" stroke="transparent" points="369.5,-433.2 369.5,-455.2 558.5,-455.2 558.5,-433.2 369.5,-433.2"/>
<polygon fill="none" stroke="#000000" points="369.5,-433.2 369.5,-455.2 558.5,-455.2 558.5,-433.2 369.5,-433.2"/>
<image xlink:href="../../images/foreignKeys.png" width="11px" height="12px" preserveAspectRatio="xMinYMin meet" x="374.5" y="-450.2"/>
<text text-anchor="start" x="389.5" y="-440.3" font-family="Helvetica,sans-Serif" font-size="11.00" fill="#000000">id_soil_site</text>
<polygon fill="#ffffff" stroke="transparent" points="369.5,-411.2 369.5,-433.2 558.5,-433.2 558.5,-411.2 369.5,-411.2"/>
<polygon fill="none" stroke="#000000" points="369.5,-411.2 369.5,-433.2 558.5,-433.2 558.5,-411.2 369.5,-411.2"/>
<image xlink:href="../../images/foreignKeys.png" width="11px" height="12px" preserveAspectRatio="xMinYMin meet" x="374.5" y="-428.2"/>
<text text-anchor="start" x="389.5" y="-418.3" font-family="Helvetica,sans-Serif" font-size="11.00" fill="#000000">id_soil_plot</text>
<polygon fill="#ffffff" stroke="transparent" points="369.5,-389.2 369.5,-411.2 558.5,-411.2 558.5,-389.2 369.5,-389.2"/>
<polygon fill="none" stroke="#000000" points="369.5,-389.2 369.5,-411.2 558.5,-411.2 558.5,-389.2 369.5,-389.2"/>
<image xlink:href="../../images/foreignKeys.png" width="11px" height="12px" preserveAspectRatio="xMinYMin meet" x="374.5" y="-406.2"/>
<text text-anchor="start" x="389.5" y="-396.3" font-family="Helvetica,sans-Serif" font-size="11.00" fill="#000000">id_soil_profile</text>
<polygon fill="#ffffff" stroke="transparent" points="369.5,-367.2 369.5,-389.2 558.5,-389.2 558.5,-367.2 369.5,-367.2"/>
<polygon fill="none" stroke="#000000" points="369.5,-367.2 369.5,-389.2 558.5,-389.2 558.5,-367.2 369.5,-367.2"/>
<image xlink:href="../../images/foreignKeys.png" width="11px" height="12px" preserveAspectRatio="xMinYMin meet" x="374.5" y="-384.2"/>
<text text-anchor="start" x="389.5" y="-374.3" font-family="Helvetica,sans-Serif" font-size="11.00" fill="#000000">id_profile_element</text>
<polygon fill="#ffffff" stroke="transparent" points="369.5,-345.2 369.5,-367.2 558.5,-367.2 558.5,-345.2 369.5,-345.2"/>
<polygon fill="none" stroke="#000000" points="369.5,-345.2 369.5,-367.2 558.5,-367.2 558.5,-345.2 369.5,-345.2"/>
<image xlink:href="../../images/foreignKeys.png" width="11px" height="12px" preserveAspectRatio="xMinYMin meet" x="374.5" y="-362.2"/>
<text text-anchor="start" x="389.5" y="-352.3" font-family="Helvetica,sans-Serif" font-size="11.00" fill="#000000">id_soil_derived_object</text>
<polygon fill="none" stroke="#000000" points="369.5,-323.2 369.5,-345.2 558.5,-345.2 558.5,-323.2 369.5,-323.2"/>
<image xlink:href="../../images/foreignKeys.png" width="11px" height="12px" preserveAspectRatio="xMinYMin meet" x="374.5" y="-340.2"/>
<text text-anchor="start" x="389.5" y="-330.3" font-family="Helvetica,sans-Serif" font-size="11.00" fill="#000000">id_sensor</text>
<polygon fill="#ffffff" stroke="transparent" points="369.5,-301.2 369.5,-323.2 558.5,-323.2 558.5,-301.2 369.5,-301.2"/>
<polygon fill="none" stroke="#000000" points="369.5,-301.2 369.5,-323.2 558.5,-323.2 558.5,-301.2 369.5,-301.2"/>
<image xlink:href="../../images/foreignKeys.png" width="11px" height="12px" preserveAspectRatio="xMinYMin meet" x="374.5" y="-318.2"/>
<text text-anchor="start" x="389.5" y="-308.3" font-family="Helvetica,sans-Serif" font-size="11.00" fill="#000000">id_observed_property</text>
<polygon fill="#ffffff" stroke="transparent" points="369.5,-279.2 369.5,-301.2 558.5,-301.2 558.5,-279.2 369.5,-279.2"/>
<polygon fill="none" stroke="#000000" points="369.5,-279.2 369.5,-301.2 558.5,-301.2 558.5,-279.2 369.5,-279.2"/>
<image xlink:href="../../images/foreignKeys.png" width="11px" height="12px" preserveAspectRatio="xMinYMin meet" x="374.5" y="-296.2"/>
<text text-anchor="start" x="389.5" y="-286.3" font-family="Helvetica,sans-Serif" font-size="11.00" fill="#000000">id_process</text>
<polygon fill="none" stroke="#000000" points="369.5,-257.2 369.5,-279.2 558.5,-279.2 558.5,-257.2 369.5,-257.2"/>
<image xlink:href="../../images/foreignKeys.png" width="11px" height="12px" preserveAspectRatio="xMinYMin meet" x="374.5" y="-274.2"/>
<text text-anchor="start" x="389.5" y="-264.3" font-family="Helvetica,sans-Serif" font-size="11.00" fill="#000000">id_equipment</text>
<polygon fill="#ffffff" stroke="transparent" points="369.5,-235.2 369.5,-257.2 558.5,-257.2 558.5,-235.2 369.5,-235.2"/>
<polygon fill="none" stroke="#000000" points="369.5,-235.2 369.5,-257.2 558.5,-257.2 558.5,-235.2 369.5,-235.2"/>
<image xlink:href="../../images/foreignKeys.png" width="11px" height="12px" preserveAspectRatio="xMinYMin meet" x="374.5" y="-252.2"/>
<text text-anchor="start" x="389.5" y="-242.3" font-family="Helvetica,sans-Serif" font-size="11.00" fill="#000000">id_preparation_process</text>
<polygon fill="none" stroke="#000000" points="369.5,-213.2 369.5,-235.2 558.5,-235.2 558.5,-213.2 369.5,-213.2"/>
<image xlink:href="../../images/foreignKeys.png" width="11px" height="12px" preserveAspectRatio="xMinYMin meet" x="374.5" y="-230.2"/>
<text text-anchor="start" x="389.5" y="-220.3" font-family="Helvetica,sans-Serif" font-size="11.00" fill="#000000">id_datastream_collection</text>
<polygon fill="#ffffff" stroke="transparent" points="369.5,-191.2 369.5,-213.2 558.5,-213.2 558.5,-191.2 369.5,-191.2"/>
<polygon fill="none" stroke="#000000" points="369.5,-191.2 369.5,-213.2 558.5,-213.2 558.5,-191.2 369.5,-191.2"/>
<text text-anchor="start" x="389.5" y="-198.3" font-family="Helvetica,sans-Serif" font-size="11.00" fill="#000000">begin_result_time</text>
<polygon fill="#ffffff" stroke="transparent" points="369.5,-169.2 369.5,-191.2 558.5,-191.2 558.5,-169.2 369.5,-169.2"/>
<polygon fill="none" stroke="#000000" points="369.5,-169.2 369.5,-191.2 558.5,-191.2 558.5,-169.2 369.5,-169.2"/>
<text text-anchor="start" x="389.5" y="-176.3" font-family="Helvetica,sans-Serif" font-size="11.00" fill="#000000">end_result_time</text>
<polygon fill="#ffffff" stroke="transparent" points="369.5,-150.2 369.5,-169.2 460.5,-169.2 460.5,-150.2 369.5,-150.2"/>
<polygon fill="none" stroke="#000000" points="369.5,-150.2 369.5,-169.2 460.5,-169.2 460.5,-150.2 369.5,-150.2"/>
<text text-anchor="start" x="372.5" y="-156.3" font-family="Helvetica,sans-Serif" font-size="11.00" fill="#000000">&lt; 16</text>
<polygon fill="#ffffff" stroke="transparent" points="460.5,-150.2 460.5,-169.2 504.5,-169.2 504.5,-150.2 460.5,-150.2"/>
<polygon fill="none" stroke="#000000" points="460.5,-150.2 460.5,-169.2 504.5,-169.2 504.5,-150.2 460.5,-150.2"/>
<text text-anchor="start" x="495.3862" y="-156.3" font-family="Helvetica,sans-Serif" font-size="11.00" fill="#000000"> &#160;</text>
<polygon fill="#ffffff" stroke="transparent" points="504.5,-150.2 504.5,-169.2 558.5,-169.2 558.5,-150.2 504.5,-150.2"/>
<polygon fill="none" stroke="#000000" points="504.5,-150.2 504.5,-169.2 558.5,-169.2 558.5,-150.2 504.5,-150.2"/>
<text text-anchor="start" x="539.9053" y="-156.3" font-family="Helvetica,sans-Serif" font-size="11.00" fill="#000000">1 &gt;</text>
</a>
</g>
</g>
<!-- datastream_collection -->
<g id="node2" class="node">
<title>datastream_collection</title>
<g id="a_node2"><a xlink:href="../../tables/datastream_collection.html" xlink:title="datastream_collection" target="_top">
<polygon fill="#ffffff" stroke="transparent" points="8,-38.2 8,-260.2 320,-260.2 320,-38.2 8,-38.2"/>
<polygon fill="#f5f5f5" stroke="transparent" points="10,-235.2 10,-258.2 318,-258.2 318,-235.2 10,-235.2"/>
<polygon fill="none" stroke="#000000" points="10,-235.2 10,-258.2 318,-258.2 318,-235.2 10,-235.2"/>
<text text-anchor="start" x="15" y="-243.8" font-family="Helvetica,sans-Serif" font-weight="bold" font-size="11.00" fill="#000000">datastream_collection</text>
<text text-anchor="start" x="283.0437" y="-243.3" font-family="Helvetica,sans-Serif" font-size="11.00" fill="#000000">[table]</text>
<polygon fill="none" stroke="#000000" points="10,-213.2 10,-235.2 199,-235.2 199,-213.2 10,-213.2"/>
<image xlink:href="../../images/primaryKeys.png" width="11px" height="12px" preserveAspectRatio="xMinYMin meet" x="15" y="-230.2"/>
<text text-anchor="start" x="30" y="-220.3" font-family="Helvetica,sans-Serif" font-size="11.00" fill="#000000">id</text>
<polygon fill="none" stroke="#000000" points="199,-213.2 199,-235.2 318,-235.2 318,-213.2 199,-213.2"/>
<text text-anchor="start" x="202" y="-220.9" font-family="Helvetica,sans-Serif" font-size="11.00" fill="#000000">int4[10]</text>
<polygon fill="#ffffff" stroke="transparent" points="10,-191.2 10,-213.2 199,-213.2 199,-191.2 10,-191.2"/>
<polygon fill="none" stroke="#000000" points="10,-191.2 10,-213.2 199,-213.2 199,-191.2 10,-191.2"/>
<text text-anchor="start" x="30" y="-198.3" font-family="Helvetica,sans-Serif" font-size="11.00" fill="#000000">guidkey</text>
<polygon fill="none" stroke="#000000" points="199,-191.2 199,-213.2 318,-213.2 318,-191.2 199,-191.2"/>
<text text-anchor="start" x="202" y="-198.9" font-family="Helvetica,sans-Serif" font-size="11.00" fill="#000000">varchar[50]</text>
<polygon fill="none" stroke="#000000" points="10,-169.2 10,-191.2 199,-191.2 199,-169.2 10,-169.2"/>
<text text-anchor="start" x="30" y="-176.3" font-family="Helvetica,sans-Serif" font-size="11.00" fill="#000000">name</text>
<polygon fill="none" stroke="#000000" points="199,-169.2 199,-191.2 318,-191.2 318,-169.2 199,-169.2"/>
<text text-anchor="start" x="202" y="-176.9" font-family="Helvetica,sans-Serif" font-size="11.00" fill="#000000">varchar[50]</text>
<polygon fill="none" stroke="#000000" points="10,-147.2 10,-169.2 199,-169.2 199,-147.2 10,-147.2"/>
<text text-anchor="start" x="30" y="-154.3" font-family="Helvetica,sans-Serif" font-size="11.00" fill="#000000">description</text>
<polygon fill="none" stroke="#000000" points="199,-147.2 199,-169.2 318,-169.2 318,-147.2 199,-147.2"/>
<text text-anchor="start" x="202" y="-154.9" font-family="Helvetica,sans-Serif" font-size="11.00" fill="#000000">varchar[200]</text>
<polygon fill="none" stroke="#000000" points="10,-125.2 10,-147.2 199,-147.2 199,-125.2 10,-125.2"/>
<text text-anchor="start" x="30" y="-132.3" font-family="Helvetica,sans-Serif" font-size="11.00" fill="#000000">observed_area</text>
<polygon fill="none" stroke="#000000" points="199,-125.2 199,-147.2 318,-147.2 318,-125.2 199,-125.2"/>
<text text-anchor="start" x="201.9485" y="-132.9" font-family="Helvetica,sans-Serif" font-size="11.00" fill="#000000">geometry[2147483647]</text>
<polygon fill="none" stroke="#000000" points="10,-103.2 10,-125.2 199,-125.2 199,-103.2 10,-103.2"/>
<text text-anchor="start" x="30" y="-110.3" font-family="Helvetica,sans-Serif" font-size="11.00" fill="#000000">properties_path</text>
<polygon fill="none" stroke="#000000" points="199,-103.2 199,-125.2 318,-125.2 318,-103.2 199,-103.2"/>
<text text-anchor="start" x="202" y="-110.9" font-family="Helvetica,sans-Serif" font-size="11.00" fill="#000000">varchar[2147483647]</text>
<polygon fill="none" stroke="#000000" points="10,-81.2 10,-103.2 199,-103.2 199,-81.2 10,-81.2"/>
<text text-anchor="start" x="30" y="-88.3" font-family="Helvetica,sans-Serif" font-size="11.00" fill="#000000">begin_phenomenon_time</text>
<polygon fill="none" stroke="#000000" points="199,-81.2 199,-103.2 318,-103.2 318,-81.2 199,-81.2"/>
<text text-anchor="start" x="202" y="-88.9" font-family="Helvetica,sans-Serif" font-size="11.00" fill="#000000">timestamp[29,6]</text>
<polygon fill="none" stroke="#000000" points="10,-59.2 10,-81.2 199,-81.2 199,-59.2 10,-59.2"/>
<text text-anchor="start" x="30" y="-66.3" font-family="Helvetica,sans-Serif" font-size="11.00" fill="#000000">end_phenomenon_time</text>
<polygon fill="none" stroke="#000000" points="199,-59.2 199,-81.2 318,-81.2 318,-59.2 199,-59.2"/>
<text text-anchor="start" x="202" y="-66.9" font-family="Helvetica,sans-Serif" font-size="11.00" fill="#000000">timestamp[29,6]</text>
<polygon fill="#ffffff" stroke="transparent" points="10,-40.2 10,-59.2 109,-59.2 109,-40.2 10,-40.2"/>
<polygon fill="none" stroke="#000000" points="10,-40.2 10,-59.2 109,-59.2 109,-40.2 10,-40.2"/>
<text text-anchor="start" x="13" y="-46.3" font-family="Helvetica,sans-Serif" font-size="11.00" fill="#000000">&lt; 0</text>
<polygon fill="#ffffff" stroke="transparent" points="109,-40.2 109,-59.2 199,-59.2 199,-40.2 109,-40.2"/>
<polygon fill="none" stroke="#000000" points="109,-40.2 109,-59.2 199,-59.2 199,-40.2 109,-40.2"/>
<text text-anchor="start" x="189.8862" y="-46.3" font-family="Helvetica,sans-Serif" font-size="11.00" fill="#000000"> &#160;</text>
<polygon fill="#ffffff" stroke="transparent" points="199,-40.2 199,-59.2 318,-59.2 318,-40.2 199,-40.2"/>
<polygon fill="none" stroke="#000000" points="199,-40.2 199,-59.2 318,-59.2 318,-40.2 199,-40.2"/>
<text text-anchor="start" x="299.4053" y="-46.3" font-family="Helvetica,sans-Serif" font-size="11.00" fill="#000000">1 &gt;</text>
<polygon fill="none" stroke="#000000" stroke-width="2" points="9,-39.2 9,-259.2 319,-259.2 319,-39.2 9,-39.2"/>
</a>
</g>
</g>
<!-- datastream&#45;&gt;datastream_collection -->
<g id="edge1" class="edge">
<title>datastream:w&#45;&gt;datastream_collection:e</title>
<path fill="none" stroke="#000000" d="M355.0156,-224.2C342.6771,-224.2 335.1667,-224.2 318,-224.2"/>
<polygon fill="#000000" stroke="#000000" points="361.5,-224.2001 369.5,-227.8 365.5,-224.2 369.5,-224.2 369.5,-224.2 369.5,-224.2 365.5,-224.2 369.5,-220.6 361.5,-224.2001 361.5,-224.2001"/>
<ellipse fill="none" stroke="#000000" cx="358.3" cy="-224.2001" rx="3.2" ry="3.2"/>
</g>
</g>
</svg>
