<?xml version="1.0" encoding="UTF-8" standalone="no"?>
<!DOCTYPE svg PUBLIC "-//W3C//DTD SVG 1.1//EN"
 "http://www.w3.org/Graphics/SVG/1.1/DTD/svg11.dtd">
<!-- Generated by graphviz version 2.40.1 (20161225.0304)
 -->
<!-- Title: oneDegreeRelationshipsDiagram Pages: 1 -->
<svg width="644pt" height="419pt"
 viewBox="0.00 0.00 644.00 418.88" xmlns="http://www.w3.org/2000/svg" xmlns:xlink="http://www.w3.org/1999/xlink">
<g id="graph0" class="graph" transform="scale(1 1) rotate(0) translate(4 414.8832)">
<title>oneDegreeRelationshipsDiagram</title>
<polygon fill="#ffffff" stroke="transparent" points="-4,4 -4,-414.8832 640,-414.8832 640,4 -4,4"/>
<text text-anchor="middle" x="72.4936" y="-7.3" font-family="Helvetica,sans-Serif" font-size="11.00" fill="#000000">Generated by SchemaSpy</text>
<!-- disturbance_soil_site -->
<g id="node1" class="node">
<title>disturbance_soil_site</title>
<g id="a_node1"><a xlink:href="../../tables/disturbance_soil_site.html" xlink:title="disturbance_soil_site" target="_top">
<polygon fill="#ffffff" stroke="transparent" points="372,-105.3832 372,-261.3832 628,-261.3832 628,-105.3832 372,-105.3832"/>
<polygon fill="#f5f5f5" stroke="transparent" points="374,-236.3832 374,-259.3832 626,-259.3832 626,-236.3832 374,-236.3832"/>
<polygon fill="none" stroke="#000000" points="374,-236.3832 374,-259.3832 626,-259.3832 626,-236.3832 374,-236.3832"/>
<text text-anchor="start" x="379" y="-244.9832" font-family="Helvetica,sans-Serif" font-weight="bold" font-size="11.00" fill="#000000">disturbance_soil_site</text>
<text text-anchor="start" x="591.0437" y="-244.4832" font-family="Helvetica,sans-Serif" font-size="11.00" fill="#000000">[table]</text>
<polygon fill="none" stroke="#000000" points="374,-214.3832 374,-236.3832 536,-236.3832 536,-214.3832 374,-214.3832"/>
<image xlink:href="../../images/primaryKeys.png" width="11px" height="12px" preserveAspectRatio="xMinYMin meet" x="379" y="-231.383"/>
<text text-anchor="start" x="394" y="-221.4832" font-family="Helvetica,sans-Serif" font-size="11.00" fill="#000000">id_soil_site</text>
<polygon fill="none" stroke="#000000" points="536,-214.3832 536,-236.3832 626,-236.3832 626,-214.3832 536,-214.3832"/>
<text text-anchor="start" x="539" y="-222.0832" font-family="Helvetica,sans-Serif" font-size="11.00" fill="#000000">int4[10]</text>
<polygon fill="none" stroke="#000000" points="374,-192.3832 374,-214.3832 536,-214.3832 536,-192.3832 374,-192.3832"/>
<image xlink:href="../../images/primaryKeys.png" width="11px" height="12px" preserveAspectRatio="xMinYMin meet" x="379" y="-209.383"/>
<text text-anchor="start" x="394" y="-199.4832" font-family="Helvetica,sans-Serif" font-size="11.00" fill="#000000">type_phenomenon</text>
<polygon fill="none" stroke="#000000" points="536,-192.3832 536,-214.3832 626,-214.3832 626,-192.3832 536,-192.3832"/>
<text text-anchor="start" x="539" y="-200.0832" font-family="Helvetica,sans-Serif" font-size="11.00" fill="#000000">int4[10]</text>
<polygon fill="none" stroke="#000000" points="374,-170.3832 374,-192.3832 536,-192.3832 536,-170.3832 374,-170.3832"/>
<image xlink:href="../../images/primaryKeys.png" width="11px" height="12px" preserveAspectRatio="xMinYMin meet" x="379" y="-187.383"/>
<text text-anchor="start" x="394" y="-177.4832" font-family="Helvetica,sans-Serif" font-size="11.00" fill="#000000">valid_from</text>
<polygon fill="none" stroke="#000000" points="536,-170.3832 536,-192.3832 626,-192.3832 626,-170.3832 536,-170.3832"/>
<text text-anchor="start" x="539" y="-178.0832" font-family="Helvetica,sans-Serif" font-size="11.00" fill="#000000">timestamp[29,6]</text>
<polygon fill="none" stroke="#000000" points="374,-148.3832 374,-170.3832 536,-170.3832 536,-148.3832 374,-148.3832"/>
<image xlink:href="../../images/primaryKeys.png" width="11px" height="12px" preserveAspectRatio="xMinYMin meet" x="379" y="-165.383"/>
<text text-anchor="start" x="394" y="-155.4832" font-family="Helvetica,sans-Serif" font-size="11.00" fill="#000000">valid_to</text>
<polygon fill="none" stroke="#000000" points="536,-148.3832 536,-170.3832 626,-170.3832 626,-148.3832 536,-148.3832"/>
<text text-anchor="start" x="539" y="-156.0832" font-family="Helvetica,sans-Serif" font-size="11.00" fill="#000000">timestamp[29,6]</text>
<polygon fill="none" stroke="#000000" points="374,-126.3832 374,-148.3832 536,-148.3832 536,-126.3832 374,-126.3832"/>
<text text-anchor="start" x="394" y="-133.4832" font-family="Helvetica,sans-Serif" font-size="11.00" fill="#000000">description</text>
<polygon fill="none" stroke="#000000" points="536,-126.3832 536,-148.3832 626,-148.3832 626,-126.3832 536,-126.3832"/>
<text text-anchor="start" x="538.5043" y="-134.0832" font-family="Helvetica,sans-Serif" font-size="11.00" fill="#000000">text[2147483647]</text>
<polygon fill="#ffffff" stroke="transparent" points="374,-107.3832 374,-126.3832 459,-126.3832 459,-107.3832 374,-107.3832"/>
<polygon fill="none" stroke="#000000" points="374,-107.3832 374,-126.3832 459,-126.3832 459,-107.3832 374,-107.3832"/>
<text text-anchor="start" x="377" y="-113.4832" font-family="Helvetica,sans-Serif" font-size="11.00" fill="#000000">&lt; 2</text>
<polygon fill="#ffffff" stroke="transparent" points="459,-107.3832 459,-126.3832 536,-126.3832 536,-107.3832 459,-107.3832"/>
<polygon fill="none" stroke="#000000" points="459,-107.3832 459,-126.3832 536,-126.3832 536,-107.3832 459,-107.3832"/>
<text text-anchor="start" x="526.8862" y="-113.4832" font-family="Helvetica,sans-Serif" font-size="11.00" fill="#000000"> &#160;</text>
<polygon fill="#ffffff" stroke="transparent" points="536,-107.3832 536,-126.3832 626,-126.3832 626,-107.3832 536,-107.3832"/>
<polygon fill="none" stroke="#000000" points="536,-107.3832 536,-126.3832 626,-126.3832 626,-107.3832 536,-107.3832"/>
<text text-anchor="start" x="607.4053" y="-113.4832" font-family="Helvetica,sans-Serif" font-size="11.00" fill="#000000">0 &gt;</text>
<polygon fill="none" stroke="#000000" stroke-width="2" points="373,-106.3832 373,-260.3832 627,-260.3832 627,-106.3832 373,-106.3832"/>
</a>
</g>
</g>
<!-- soil_site -->
<g id="node2" class="node">
<title>soil_site</title>
<g id="a_node2"><a xlink:href="../../tables/soil_site.html" xlink:title="soil_site" target="_top">
<polygon fill="#ffffff" stroke="transparent" points="149,-81.8832 149,-406.8832 323,-406.8832 323,-81.8832 149,-81.8832"/>
<polygon fill="#f5f5f5" stroke="transparent" points="149,-383.3832 149,-406.3832 323,-406.3832 323,-383.3832 149,-383.3832"/>
<polygon fill="none" stroke="#000000" points="149,-383.3832 149,-406.3832 323,-406.3832 323,-383.3832 149,-383.3832"/>
<text text-anchor="start" x="154" y="-391.9832" font-family="Helvetica,sans-Serif" font-weight="bold" font-size="11.00" fill="#000000">soil_site</text>
<text text-anchor="start" x="288.0437" y="-391.4832" font-family="Helvetica,sans-Serif" font-size="11.00" fill="#000000">[table]</text>
<polygon fill="none" stroke="#000000" points="149,-361.3832 149,-383.3832 323,-383.3832 323,-361.3832 149,-361.3832"/>
<image xlink:href="../../images/primaryKeys.png" width="11px" height="12px" preserveAspectRatio="xMinYMin meet" x="154" y="-378.383"/>
<text text-anchor="start" x="169" y="-368.4832" font-family="Helvetica,sans-Serif" font-size="11.00" fill="#000000">id</text>
<polygon fill="#ffffff" stroke="transparent" points="149,-339.3832 149,-361.3832 323,-361.3832 323,-339.3832 149,-339.3832"/>
<polygon fill="none" stroke="#000000" points="149,-339.3832 149,-361.3832 323,-361.3832 323,-339.3832 149,-339.3832"/>
<text text-anchor="start" x="169" y="-346.4832" font-family="Helvetica,sans-Serif" font-size="11.00" fill="#000000">guidkey</text>
<polygon fill="#ffffff" stroke="transparent" points="149,-317.3832 149,-339.3832 323,-339.3832 323,-317.3832 149,-317.3832"/>
<polygon fill="none" stroke="#000000" points="149,-317.3832 149,-339.3832 323,-339.3832 323,-317.3832 149,-317.3832"/>
<text text-anchor="start" x="169" y="-324.4832" font-family="Helvetica,sans-Serif" font-size="11.00" fill="#000000">id_source</text>
<polygon fill="#ffffff" stroke="transparent" points="149,-295.3832 149,-317.3832 323,-317.3832 323,-295.3832 149,-295.3832"/>
<polygon fill="none" stroke="#000000" points="149,-295.3832 149,-317.3832 323,-317.3832 323,-295.3832 149,-295.3832"/>
<image xlink:href="../../images/foreignKeys.png" width="11px" height="12px" preserveAspectRatio="xMinYMin meet" x="154" y="-312.383"/>
<text text-anchor="start" x="169" y="-302.4832" font-family="Helvetica,sans-Serif" font-size="11.00" fill="#000000">id_inspire</text>
<polygon fill="#ffffff" stroke="transparent" points="149,-273.3832 149,-295.3832 323,-295.3832 323,-273.3832 149,-273.3832"/>
<polygon fill="none" stroke="#000000" points="149,-273.3832 149,-295.3832 323,-295.3832 323,-273.3832 149,-273.3832"/>
<image xlink:href="../../images/foreignKeys.png" width="11px" height="12px" preserveAspectRatio="xMinYMin meet" x="154" y="-290.383"/>
<text text-anchor="start" x="169" y="-280.4832" font-family="Helvetica,sans-Serif" font-size="11.00" fill="#000000">id_purpose</text>
<polygon fill="#ffffff" stroke="transparent" points="149,-251.3832 149,-273.3832 323,-273.3832 323,-251.3832 149,-251.3832"/>
<polygon fill="none" stroke="#000000" points="149,-251.3832 149,-273.3832 323,-273.3832 323,-251.3832 149,-251.3832"/>
<image xlink:href="../../images/foreignKeys.png" width="11px" height="12px" preserveAspectRatio="xMinYMin meet" x="154" y="-268.383"/>
<text text-anchor="start" x="169" y="-258.4832" font-family="Helvetica,sans-Serif" font-size="11.00" fill="#000000">status</text>
<polygon fill="#ffffff" stroke="transparent" points="149,-229.3832 149,-251.3832 323,-251.3832 323,-229.3832 149,-229.3832"/>
<polygon fill="none" stroke="#000000" points="149,-229.3832 149,-251.3832 323,-251.3832 323,-229.3832 149,-229.3832"/>
<image xlink:href="../../images/foreignKeys.png" width="11px" height="12px" preserveAspectRatio="xMinYMin meet" x="154" y="-246.383"/>
<text text-anchor="start" x="169" y="-236.4832" font-family="Helvetica,sans-Serif" font-size="11.00" fill="#000000">biographic_region</text>
<polygon fill="#ffffff" stroke="transparent" points="149,-207.3832 149,-229.3832 323,-229.3832 323,-207.3832 149,-207.3832"/>
<polygon fill="none" stroke="#000000" points="149,-207.3832 149,-229.3832 323,-229.3832 323,-207.3832 149,-207.3832"/>
<image xlink:href="../../images/foreignKeys.png" width="11px" height="12px" preserveAspectRatio="xMinYMin meet" x="154" y="-224.383"/>
<text text-anchor="start" x="169" y="-214.4832" font-family="Helvetica,sans-Serif" font-size="11.00" fill="#000000">eunis</text>
<polygon fill="#ffffff" stroke="transparent" points="149,-185.3832 149,-207.3832 323,-207.3832 323,-185.3832 149,-185.3832"/>
<polygon fill="none" stroke="#000000" points="149,-185.3832 149,-207.3832 323,-207.3832 323,-185.3832 149,-185.3832"/>
<image xlink:href="../../images/foreignKeys.png" width="11px" height="12px" preserveAspectRatio="xMinYMin meet" x="154" y="-202.383"/>
<text text-anchor="start" x="169" y="-192.4832" font-family="Helvetica,sans-Serif" font-size="11.00" fill="#000000">maes</text>
<polygon fill="#ffffff" stroke="transparent" points="149,-163.3832 149,-185.3832 323,-185.3832 323,-163.3832 149,-163.3832"/>
<polygon fill="none" stroke="#000000" points="149,-163.3832 149,-185.3832 323,-185.3832 323,-163.3832 149,-163.3832"/>
<image xlink:href="../../images/foreignKeys.png" width="11px" height="12px" preserveAspectRatio="xMinYMin meet" x="154" y="-180.383"/>
<text text-anchor="start" x="169" y="-170.4832" font-family="Helvetica,sans-Serif" font-size="11.00" fill="#000000">site_code_european</text>
<polygon fill="#ffffff" stroke="transparent" points="149,-141.3832 149,-163.3832 323,-163.3832 323,-141.3832 149,-141.3832"/>
<polygon fill="none" stroke="#000000" points="149,-141.3832 149,-163.3832 323,-163.3832 323,-141.3832 149,-141.3832"/>
<image xlink:href="../../images/foreignKeys.png" width="11px" height="12px" preserveAspectRatio="xMinYMin meet" x="154" y="-158.383"/>
<text text-anchor="start" x="169" y="-148.4832" font-family="Helvetica,sans-Serif" font-size="11.00" fill="#000000">site_code_national</text>
<polygon fill="#ffffff" stroke="transparent" points="149,-119.3832 149,-141.3832 323,-141.3832 323,-119.3832 149,-119.3832"/>
<polygon fill="none" stroke="#000000" points="149,-119.3832 149,-141.3832 323,-141.3832 323,-119.3832 149,-119.3832"/>
<text text-anchor="start" x="169" y="-126.4832" font-family="Helvetica,sans-Serif" font-size="11.00" fill="#000000">geometry</text>
<polygon fill="none" stroke="#000000" points="149,-100.3832 149,-119.3832 323,-119.3832 323,-100.3832 149,-100.3832"/>
<text text-anchor="start" x="152" y="-106.4832" font-family="Helvetica,sans-Serif" font-size="11.00" fill="#000000">...</text>
<polygon fill="#ffffff" stroke="transparent" points="149,-81.3832 149,-100.3832 230,-100.3832 230,-81.3832 149,-81.3832"/>
<polygon fill="none" stroke="#000000" points="149,-81.3832 149,-100.3832 230,-100.3832 230,-81.3832 149,-81.3832"/>
<text text-anchor="start" x="152" y="-87.4832" font-family="Helvetica,sans-Serif" font-size="11.00" fill="#000000">&lt; 8</text>
<polygon fill="#ffffff" stroke="transparent" points="230,-81.3832 230,-100.3832 272,-100.3832 272,-81.3832 230,-81.3832"/>
<polygon fill="none" stroke="#000000" points="230,-81.3832 230,-100.3832 272,-100.3832 272,-81.3832 230,-81.3832"/>
<text text-anchor="start" x="262.8862" y="-87.4832" font-family="Helvetica,sans-Serif" font-size="11.00" fill="#000000"> &#160;</text>
<polygon fill="#ffffff" stroke="transparent" points="272,-81.3832 272,-100.3832 323,-100.3832 323,-81.3832 272,-81.3832"/>
<polygon fill="none" stroke="#000000" points="272,-81.3832 272,-100.3832 323,-100.3832 323,-81.3832 272,-81.3832"/>
<text text-anchor="start" x="304.4053" y="-87.4832" font-family="Helvetica,sans-Serif" font-size="11.00" fill="#000000">8 &gt;</text>
</a>
</g>
</g>
<!-- disturbance_soil_site&#45;&gt;soil_site -->
<g id="edge1" class="edge">
<title>disturbance_soil_site:w&#45;&gt;soil_site:e</title>
<path fill="none" stroke="#000000" d="M359.7019,-228.3196C318.4077,-249.0377 386.3458,-372.3832 323,-372.3832"/>
<polygon fill="#000000" stroke="#000000" points="366.1635,-226.9926 374.7242,-228.9096 370.0818,-226.1879 374,-225.3832 374,-225.3832 374,-225.3832 370.0818,-226.1879 373.2758,-221.8568 366.1635,-226.9926 366.1635,-226.9926"/>
<ellipse fill="none" stroke="#000000" cx="363.029" cy="-227.6363" rx="3.2" ry="3.2"/>
</g>
<!-- codelist -->
<g id="node3" class="node">
<title>codelist</title>
<g id="a_node3"><a xlink:href="../../tables/codelist.html" xlink:title="codelist" target="_top">
<polygon fill="#ffffff" stroke="transparent" points="8,-81.8832 8,-230.8832 100,-230.8832 100,-81.8832 8,-81.8832"/>
<polygon fill="#f5f5f5" stroke="transparent" points="8,-207.3832 8,-230.3832 100,-230.3832 100,-207.3832 8,-207.3832"/>
<polygon fill="none" stroke="#000000" points="8,-207.3832 8,-230.3832 100,-230.3832 100,-207.3832 8,-207.3832"/>
<text text-anchor="start" x="13" y="-215.9832" font-family="Helvetica,sans-Serif" font-weight="bold" font-size="11.00" fill="#000000">codelist</text>
<text text-anchor="start" x="65.5219" y="-215.4832" font-family="Helvetica,sans-Serif" font-size="11.00" fill="#000000">[table]</text>
<polygon fill="none" stroke="#000000" points="8,-185.3832 8,-207.3832 100,-207.3832 100,-185.3832 8,-185.3832"/>
<image xlink:href="../../images/primaryKeys.png" width="11px" height="12px" preserveAspectRatio="xMinYMin meet" x="13" y="-202.383"/>
<text text-anchor="start" x="31" y="-192.4832" font-family="Helvetica,sans-Serif" font-size="11.00" fill="#000000">id</text>
<polygon fill="#ffffff" stroke="transparent" points="8,-163.3832 8,-185.3832 100,-185.3832 100,-163.3832 8,-163.3832"/>
<polygon fill="none" stroke="#000000" points="8,-163.3832 8,-185.3832 100,-185.3832 100,-163.3832 8,-163.3832"/>
<image xlink:href="../../images/foreignKeys.png" width="11px" height="12px" preserveAspectRatio="xMinYMin meet" x="13" y="-180.383"/>
<text text-anchor="start" x="31" y="-170.4832" font-family="Helvetica,sans-Serif" font-size="11.00" fill="#000000">parent</text>
<polygon fill="#ffffff" stroke="transparent" points="8,-141.3832 8,-163.3832 100,-163.3832 100,-141.3832 8,-141.3832"/>
<polygon fill="none" stroke="#000000" points="8,-141.3832 8,-163.3832 100,-163.3832 100,-141.3832 8,-141.3832"/>
<text text-anchor="start" x="31" y="-148.4832" font-family="Helvetica,sans-Serif" font-size="11.00" fill="#000000">localid</text>
<polygon fill="#ffffff" stroke="transparent" points="8,-119.3832 8,-141.3832 100,-141.3832 100,-119.3832 8,-119.3832"/>
<polygon fill="none" stroke="#000000" points="8,-119.3832 8,-141.3832 100,-141.3832 100,-119.3832 8,-119.3832"/>
<text text-anchor="start" x="31" y="-126.4832" font-family="Helvetica,sans-Serif" font-size="11.00" fill="#000000">collection</text>
<polygon fill="none" stroke="#000000" points="8,-100.3832 8,-119.3832 100,-119.3832 100,-100.3832 8,-100.3832"/>
<text text-anchor="start" x="11" y="-106.4832" font-family="Helvetica,sans-Serif" font-size="11.00" fill="#000000">...</text>
<polygon fill="#ffffff" stroke="transparent" points="8,-81.3832 8,-100.3832 45,-100.3832 45,-81.3832 8,-81.3832"/>
<polygon fill="none" stroke="#000000" points="8,-81.3832 8,-100.3832 45,-100.3832 45,-81.3832 8,-81.3832"/>
<text text-anchor="start" x="11" y="-87.4832" font-family="Helvetica,sans-Serif" font-size="11.00" fill="#000000">&lt; 1</text>
<polygon fill="#ffffff" stroke="transparent" points="45,-81.3832 45,-100.3832 65,-100.3832 65,-81.3832 45,-81.3832"/>
<polygon fill="none" stroke="#000000" points="45,-81.3832 45,-100.3832 65,-100.3832 65,-81.3832 45,-81.3832"/>
<text text-anchor="start" x="55.8862" y="-87.4832" font-family="Helvetica,sans-Serif" font-size="11.00" fill="#000000"> &#160;</text>
<polygon fill="#ffffff" stroke="transparent" points="65,-81.3832 65,-100.3832 100,-100.3832 100,-81.3832 65,-81.3832"/>
<polygon fill="none" stroke="#000000" points="65,-81.3832 65,-100.3832 100,-100.3832 100,-81.3832 65,-81.3832"/>
<text text-anchor="start" x="75.2904" y="-87.4832" font-family="Helvetica,sans-Serif" font-size="11.00" fill="#000000">55 &gt;</text>
</a>
</g>
</g>
<!-- disturbance_soil_site&#45;&gt;codelist -->
<g id="edge2" class="edge">
<title>disturbance_soil_site:w&#45;&gt;codelist:e</title>
<path fill="none" stroke="#000000" d="M359.4206,-200.7883C324.573,-185.2491 376.0548,-104.0914 331,-71.3832 262.6642,-21.7739 209.386,-21.8431 141,-71.3832 93.6509,-105.6838 158.4677,-196.3832 100,-196.3832"/>
<polygon fill="#000000" stroke="#000000" points="366.1238,-201.9813 373.3692,-206.9275 370.0619,-202.6822 374,-203.3832 374,-203.3832 374,-203.3832 370.0619,-202.6822 374.6308,-199.8389 366.1238,-201.9813 366.1238,-201.9813"/>
<ellipse fill="none" stroke="#000000" cx="362.9733" cy="-201.4205" rx="3.2" ry="3.2"/>
</g>
<!-- soil_site&#45;&gt;codelist -->
<g id="edge3" class="edge">
<title>soil_site:w&#45;&gt;codelist:e</title>
<path fill="none" stroke="#000000" d="M135.3171,-235.6744C122.0046,-224.3236 123.324,-196.3832 100,-196.3832"/>
<polygon fill="#000000" stroke="#000000" points="141.4354,-237.7799 147.8285,-243.7872 145.2177,-239.0815 149,-240.3832 149,-240.3832 149,-240.3832 145.2177,-239.0815 150.1715,-236.9791 141.4354,-237.7799 141.4354,-237.7799"/>
<ellipse fill="none" stroke="#000000" cx="138.4096" cy="-236.7386" rx="3.2" ry="3.2"/>
</g>
<!-- soil_site&#45;&gt;codelist -->
<g id="edge4" class="edge">
<title>soil_site:w&#45;&gt;codelist:e</title>
<path fill="none" stroke="#000000" d="M134.6297,-214.9457C123.0865,-208.7582 117.9041,-196.3832 100,-196.3832"/>
<polygon fill="#000000" stroke="#000000" points="141.2195,-216.522 148.1625,-221.8844 145.1098,-217.4526 149,-218.3832 149,-218.3832 149,-218.3832 145.1098,-217.4526 149.8375,-214.882 141.2195,-216.522 141.2195,-216.522"/>
<ellipse fill="none" stroke="#000000" cx="138.1073" cy="-215.7775" rx="3.2" ry="3.2"/>
</g>
<!-- soil_site&#45;&gt;codelist -->
<g id="edge5" class="edge">
<title>soil_site:w&#45;&gt;codelist:e</title>
<path fill="none" stroke="#000000" d="M134.4909,-196.3832C123.1774,-196.3832 115.9931,-196.3832 100,-196.3832"/>
<polygon fill="#000000" stroke="#000000" points="141,-196.3832 149,-199.9832 145,-196.3832 149,-196.3832 149,-196.3832 149,-196.3832 145,-196.3832 149,-192.7832 141,-196.3832 141,-196.3832"/>
<ellipse fill="none" stroke="#000000" cx="137.8" cy="-196.3833" rx="3.2" ry="3.2"/>
</g>
<!-- soil_site&#45;&gt;codelist -->
<g id="edge6" class="edge">
<title>soil_site:w&#45;&gt;codelist:e</title>
<path fill="none" stroke="#000000" d="M134.6297,-177.8207C123.0865,-184.0082 117.9041,-196.3832 100,-196.3832"/>
<polygon fill="#000000" stroke="#000000" points="141.2195,-176.2444 149.8375,-177.8844 145.1098,-175.3138 149,-174.3832 149,-174.3832 149,-174.3832 145.1098,-175.3138 148.1625,-170.882 141.2195,-176.2444 141.2195,-176.2444"/>
<ellipse fill="none" stroke="#000000" cx="138.1073" cy="-176.9889" rx="3.2" ry="3.2"/>
</g>
<!-- soil_site&#45;&gt;codelist -->
<g id="edge7" class="edge">
<title>soil_site:w&#45;&gt;codelist:e</title>
<path fill="none" stroke="#000000" d="M135.3171,-157.092C122.0046,-168.4428 123.324,-196.3832 100,-196.3832"/>
<polygon fill="#000000" stroke="#000000" points="141.4354,-154.9865 150.1715,-155.7872 145.2177,-153.6848 149,-152.3832 149,-152.3832 149,-152.3832 145.2177,-153.6848 147.8285,-148.9791 141.4354,-154.9865 141.4354,-154.9865"/>
<ellipse fill="none" stroke="#000000" cx="138.4096" cy="-156.0278" rx="3.2" ry="3.2"/>
</g>
<!-- soil_site&#45;&gt;codelist -->
<g id="edge8" class="edge">
<title>soil_site:w&#45;&gt;codelist:e</title>
<path fill="none" stroke="#000000" d="M135.3768,-257.6366C118.7322,-242.5034 130.5399,-196.3832 100,-196.3832"/>
<polygon fill="#000000" stroke="#000000" points="141.4454,-259.751 147.8155,-265.7827 145.2227,-261.0671 149,-262.3832 149,-262.3832 149,-262.3832 145.2227,-261.0671 150.1845,-258.9836 141.4454,-259.751 141.4454,-259.751"/>
<ellipse fill="none" stroke="#000000" cx="138.4236" cy="-258.6981" rx="3.2" ry="3.2"/>
</g>
</g>
</svg>
