<?xml version="1.0" encoding="UTF-8" standalone="no"?>
<!DOCTYPE svg PUBLIC "-//W3C//DTD SVG 1.1//EN"
 "http://www.w3.org/Graphics/SVG/1.1/DTD/svg11.dtd">
<!-- Generated by graphviz version 2.40.1 (20161225.0304)
 -->
<!-- Title: oneDegreeRelationshipsDiagram Pages: 1 -->
<svg width="598pt" height="435pt"
 viewBox="0.00 0.00 598.00 435.20" xmlns="http://www.w3.org/2000/svg" xmlns:xlink="http://www.w3.org/1999/xlink">
<g id="graph0" class="graph" transform="scale(1 1) rotate(0) translate(4 431.2)">
<title>oneDegreeRelationshipsDiagram</title>
<polygon fill="#ffffff" stroke="transparent" points="-4,4 -4,-431.2 594,-431.2 594,4 -4,4"/>
<text text-anchor="middle" x="72.4936" y="-7.3" font-family="Helvetica,sans-Serif" font-size="11.00" fill="#000000">Generated by SchemaSpy</text>
<!-- existing_land_use_value -->
<g id="node1" class="node">
<title>existing_land_use_value</title>
<g id="a_node1"><a xlink:href="../../tables/existing_land_use_value.html" xlink:title="existing_land_use_value" target="_top">
<polygon fill="#ffffff" stroke="transparent" points="263,-216.7 263,-372.7 582,-372.7 582,-216.7 263,-216.7"/>
<polygon fill="#f5f5f5" stroke="transparent" points="265.5,-347.7 265.5,-370.7 580.5,-370.7 580.5,-347.7 265.5,-347.7"/>
<polygon fill="none" stroke="#000000" points="265.5,-347.7 265.5,-370.7 580.5,-370.7 580.5,-347.7 265.5,-347.7"/>
<text text-anchor="start" x="270.5" y="-356.3" font-family="Helvetica,sans-Serif" font-weight="bold" font-size="11.00" fill="#000000">existing_land_use_value</text>
<text text-anchor="start" x="545.5437" y="-355.8" font-family="Helvetica,sans-Serif" font-size="11.00" fill="#000000">[table]</text>
<polygon fill="none" stroke="#000000" points="265.5,-325.7 265.5,-347.7 471.5,-347.7 471.5,-325.7 265.5,-325.7"/>
<image xlink:href="../../images/primaryKeys.png" width="11px" height="12px" preserveAspectRatio="xMinYMin meet" x="270.5" y="-342.7"/>
<text text-anchor="start" x="285.5" y="-332.8" font-family="Helvetica,sans-Serif" font-size="11.00" fill="#000000">id</text>
<polygon fill="none" stroke="#000000" points="471.5,-325.7 471.5,-347.7 580.5,-347.7 580.5,-325.7 471.5,-325.7"/>
<text text-anchor="start" x="474.5" y="-333.4" font-family="Helvetica,sans-Serif" font-size="11.00" fill="#000000">int4[10]</text>
<polygon fill="#ffffff" stroke="transparent" points="265.5,-303.7 265.5,-325.7 471.5,-325.7 471.5,-303.7 265.5,-303.7"/>
<polygon fill="none" stroke="#000000" points="265.5,-303.7 265.5,-325.7 471.5,-325.7 471.5,-303.7 265.5,-303.7"/>
<image xlink:href="../../images/foreignKeys.png" width="11px" height="12px" preserveAspectRatio="xMinYMin meet" x="270.5" y="-320.7"/>
<text text-anchor="start" x="285.5" y="-310.8" font-family="Helvetica,sans-Serif" font-size="11.00" fill="#000000">code</text>
<polygon fill="none" stroke="#000000" points="471.5,-303.7 471.5,-325.7 580.5,-325.7 580.5,-303.7 471.5,-303.7"/>
<text text-anchor="start" x="474.5" y="-311.4" font-family="Helvetica,sans-Serif" font-size="11.00" fill="#000000">int4[10]</text>
<polygon fill="#ffffff" stroke="transparent" points="265.5,-281.7 265.5,-303.7 471.5,-303.7 471.5,-281.7 265.5,-281.7"/>
<polygon fill="none" stroke="#000000" points="265.5,-281.7 265.5,-303.7 471.5,-303.7 471.5,-281.7 265.5,-281.7"/>
<image xlink:href="../../images/foreignKeys.png" width="11px" height="12px" preserveAspectRatio="xMinYMin meet" x="270.5" y="-298.7"/>
<text text-anchor="start" x="285.5" y="-288.8" font-family="Helvetica,sans-Serif" font-size="11.00" fill="#000000">id_existing_land_use_object</text>
<polygon fill="none" stroke="#000000" points="471.5,-281.7 471.5,-303.7 580.5,-303.7 580.5,-281.7 471.5,-281.7"/>
<text text-anchor="start" x="474.5" y="-289.4" font-family="Helvetica,sans-Serif" font-size="11.00" fill="#000000">int4[10]</text>
<polygon fill="#ffffff" stroke="transparent" points="265.5,-259.7 265.5,-281.7 471.5,-281.7 471.5,-259.7 265.5,-259.7"/>
<polygon fill="none" stroke="#000000" points="265.5,-259.7 265.5,-281.7 471.5,-281.7 471.5,-259.7 265.5,-259.7"/>
<text text-anchor="start" x="285.5" y="-266.8" font-family="Helvetica,sans-Serif" font-size="11.00" fill="#000000">percentage</text>
<polygon fill="none" stroke="#000000" points="471.5,-259.7 471.5,-281.7 580.5,-281.7 580.5,-259.7 471.5,-259.7"/>
<text text-anchor="start" x="474.5" y="-267.4" font-family="Helvetica,sans-Serif" font-size="11.00" fill="#000000">float8[17,17]</text>
<polygon fill="#ffffff" stroke="transparent" points="265.5,-237.7 265.5,-259.7 471.5,-259.7 471.5,-237.7 265.5,-237.7"/>
<polygon fill="none" stroke="#000000" points="265.5,-237.7 265.5,-259.7 471.5,-259.7 471.5,-237.7 265.5,-237.7"/>
<text text-anchor="start" x="285.5" y="-244.8" font-family="Helvetica,sans-Serif" font-size="11.00" fill="#000000">type</text>
<polygon fill="none" stroke="#000000" points="471.5,-237.7 471.5,-259.7 580.5,-259.7 580.5,-237.7 471.5,-237.7"/>
<text text-anchor="start" x="474.0344" y="-245.4" font-family="Helvetica,sans-Serif" font-size="11.00" fill="#000000">varchar[2147483647]</text>
<polygon fill="#ffffff" stroke="transparent" points="265.5,-218.7 265.5,-237.7 372.5,-237.7 372.5,-218.7 265.5,-218.7"/>
<polygon fill="none" stroke="#000000" points="265.5,-218.7 265.5,-237.7 372.5,-237.7 372.5,-218.7 265.5,-218.7"/>
<text text-anchor="start" x="268.5" y="-224.8" font-family="Helvetica,sans-Serif" font-size="11.00" fill="#000000">&lt; 2</text>
<polygon fill="#ffffff" stroke="transparent" points="372.5,-218.7 372.5,-237.7 471.5,-237.7 471.5,-218.7 372.5,-218.7"/>
<polygon fill="none" stroke="#000000" points="372.5,-218.7 372.5,-237.7 471.5,-237.7 471.5,-218.7 372.5,-218.7"/>
<text text-anchor="start" x="462.3862" y="-224.8" font-family="Helvetica,sans-Serif" font-size="11.00" fill="#000000"> &#160;</text>
<polygon fill="#ffffff" stroke="transparent" points="471.5,-218.7 471.5,-237.7 580.5,-237.7 580.5,-218.7 471.5,-218.7"/>
<polygon fill="none" stroke="#000000" points="471.5,-218.7 471.5,-237.7 580.5,-237.7 580.5,-218.7 471.5,-218.7"/>
<text text-anchor="start" x="561.9053" y="-224.8" font-family="Helvetica,sans-Serif" font-size="11.00" fill="#000000">0 &gt;</text>
<polygon fill="none" stroke="#000000" stroke-width="2" points="264,-217.7 264,-371.7 581,-371.7 581,-217.7 264,-217.7"/>
</a>
</g>
</g>
<!-- codelist -->
<g id="node2" class="node">
<title>codelist</title>
<g id="a_node2"><a xlink:href="../../tables/codelist.html" xlink:title="codelist" target="_top">
<polygon fill="#ffffff" stroke="transparent" points="65,-274.2 65,-423.2 157,-423.2 157,-274.2 65,-274.2"/>
<polygon fill="#f5f5f5" stroke="transparent" points="65,-399.7 65,-422.7 157,-422.7 157,-399.7 65,-399.7"/>
<polygon fill="none" stroke="#000000" points="65,-399.7 65,-422.7 157,-422.7 157,-399.7 65,-399.7"/>
<text text-anchor="start" x="70" y="-408.3" font-family="Helvetica,sans-Serif" font-weight="bold" font-size="11.00" fill="#000000">codelist</text>
<text text-anchor="start" x="122.5219" y="-407.8" font-family="Helvetica,sans-Serif" font-size="11.00" fill="#000000">[table]</text>
<polygon fill="none" stroke="#000000" points="65,-377.7 65,-399.7 157,-399.7 157,-377.7 65,-377.7"/>
<image xlink:href="../../images/primaryKeys.png" width="11px" height="12px" preserveAspectRatio="xMinYMin meet" x="70" y="-394.7"/>
<text text-anchor="start" x="88" y="-384.8" font-family="Helvetica,sans-Serif" font-size="11.00" fill="#000000">id</text>
<polygon fill="#ffffff" stroke="transparent" points="65,-355.7 65,-377.7 157,-377.7 157,-355.7 65,-355.7"/>
<polygon fill="none" stroke="#000000" points="65,-355.7 65,-377.7 157,-377.7 157,-355.7 65,-355.7"/>
<image xlink:href="../../images/foreignKeys.png" width="11px" height="12px" preserveAspectRatio="xMinYMin meet" x="70" y="-372.7"/>
<text text-anchor="start" x="88" y="-362.8" font-family="Helvetica,sans-Serif" font-size="11.00" fill="#000000">parent</text>
<polygon fill="#ffffff" stroke="transparent" points="65,-333.7 65,-355.7 157,-355.7 157,-333.7 65,-333.7"/>
<polygon fill="none" stroke="#000000" points="65,-333.7 65,-355.7 157,-355.7 157,-333.7 65,-333.7"/>
<text text-anchor="start" x="88" y="-340.8" font-family="Helvetica,sans-Serif" font-size="11.00" fill="#000000">localid</text>
<polygon fill="#ffffff" stroke="transparent" points="65,-311.7 65,-333.7 157,-333.7 157,-311.7 65,-311.7"/>
<polygon fill="none" stroke="#000000" points="65,-311.7 65,-333.7 157,-333.7 157,-311.7 65,-311.7"/>
<text text-anchor="start" x="88" y="-318.8" font-family="Helvetica,sans-Serif" font-size="11.00" fill="#000000">collection</text>
<polygon fill="none" stroke="#000000" points="65,-292.7 65,-311.7 157,-311.7 157,-292.7 65,-292.7"/>
<text text-anchor="start" x="68" y="-298.8" font-family="Helvetica,sans-Serif" font-size="11.00" fill="#000000">...</text>
<polygon fill="#ffffff" stroke="transparent" points="65,-273.7 65,-292.7 102,-292.7 102,-273.7 65,-273.7"/>
<polygon fill="none" stroke="#000000" points="65,-273.7 65,-292.7 102,-292.7 102,-273.7 65,-273.7"/>
<text text-anchor="start" x="68" y="-279.8" font-family="Helvetica,sans-Serif" font-size="11.00" fill="#000000">&lt; 1</text>
<polygon fill="#ffffff" stroke="transparent" points="102,-273.7 102,-292.7 122,-292.7 122,-273.7 102,-273.7"/>
<polygon fill="none" stroke="#000000" points="102,-273.7 102,-292.7 122,-292.7 122,-273.7 102,-273.7"/>
<text text-anchor="start" x="112.8862" y="-279.8" font-family="Helvetica,sans-Serif" font-size="11.00" fill="#000000"> &#160;</text>
<polygon fill="#ffffff" stroke="transparent" points="122,-273.7 122,-292.7 157,-292.7 157,-273.7 122,-273.7"/>
<polygon fill="none" stroke="#000000" points="122,-273.7 122,-292.7 157,-292.7 157,-273.7 122,-273.7"/>
<text text-anchor="start" x="132.2904" y="-279.8" font-family="Helvetica,sans-Serif" font-size="11.00" fill="#000000">55 &gt;</text>
</a>
</g>
</g>
<!-- existing_land_use_value&#45;&gt;codelist -->
<g id="edge1" class="edge">
<title>existing_land_use_value:w&#45;&gt;codelist:e</title>
<path fill="none" stroke="#000000" d="M251.0063,-316.4562C208.0815,-327.6624 210.0119,-388.7 157,-388.7"/>
<polygon fill="#000000" stroke="#000000" points="257.5581,-315.6624 265.9331,-318.2739 261.529,-315.1812 265.5,-314.7 265.5,-314.7 265.5,-314.7 261.529,-315.1812 265.0669,-311.1261 257.5581,-315.6624 257.5581,-315.6624"/>
<ellipse fill="none" stroke="#000000" cx="254.3813" cy="-316.0473" rx="3.2" ry="3.2"/>
</g>
<!-- existing_land_use_object -->
<g id="node3" class="node">
<title>existing_land_use_object</title>
<g id="a_node3"><a xlink:href="../../tables/existing_land_use_object.html" xlink:title="existing_land_use_object" target="_top">
<polygon fill="#ffffff" stroke="transparent" points="8,-38.2 8,-253.2 214,-253.2 214,-38.2 8,-38.2"/>
<polygon fill="#f5f5f5" stroke="transparent" points="8,-229.7 8,-252.7 214,-252.7 214,-229.7 8,-229.7"/>
<polygon fill="none" stroke="#000000" points="8,-229.7 8,-252.7 214,-252.7 214,-229.7 8,-229.7"/>
<text text-anchor="start" x="13" y="-238.3" font-family="Helvetica,sans-Serif" font-weight="bold" font-size="11.00" fill="#000000">existing_land_use_object</text>
<text text-anchor="start" x="179.5219" y="-237.8" font-family="Helvetica,sans-Serif" font-size="11.00" fill="#000000">[table]</text>
<polygon fill="none" stroke="#000000" points="8,-207.7 8,-229.7 214,-229.7 214,-207.7 8,-207.7"/>
<image xlink:href="../../images/primaryKeys.png" width="11px" height="12px" preserveAspectRatio="xMinYMin meet" x="13" y="-224.7"/>
<text text-anchor="start" x="37" y="-214.8" font-family="Helvetica,sans-Serif" font-size="11.00" fill="#000000">id</text>
<polygon fill="#ffffff" stroke="transparent" points="8,-185.7 8,-207.7 214,-207.7 214,-185.7 8,-185.7"/>
<polygon fill="none" stroke="#000000" points="8,-185.7 8,-207.7 214,-207.7 214,-185.7 8,-185.7"/>
<image xlink:href="../../images/foreignKeys.png" width="11px" height="12px" preserveAspectRatio="xMinYMin meet" x="13" y="-202.7"/>
<text text-anchor="start" x="37" y="-192.8" font-family="Helvetica,sans-Serif" font-size="11.00" fill="#000000">id_inspire</text>
<polygon fill="#ffffff" stroke="transparent" points="8,-163.7 8,-185.7 214,-185.7 214,-163.7 8,-163.7"/>
<polygon fill="none" stroke="#000000" points="8,-163.7 8,-185.7 214,-185.7 214,-163.7 8,-163.7"/>
<image xlink:href="../../images/foreignKeys.png" width="11px" height="12px" preserveAspectRatio="xMinYMin meet" x="13" y="-180.7"/>
<text text-anchor="start" x="37" y="-170.8" font-family="Helvetica,sans-Serif" font-size="11.00" fill="#000000">id_soil_site</text>
<polygon fill="#ffffff" stroke="transparent" points="8,-141.7 8,-163.7 214,-163.7 214,-141.7 8,-141.7"/>
<polygon fill="none" stroke="#000000" points="8,-141.7 8,-163.7 214,-163.7 214,-141.7 8,-141.7"/>
<text text-anchor="start" x="37" y="-148.8" font-family="Helvetica,sans-Serif" font-size="11.00" fill="#000000">geometry</text>
<polygon fill="#ffffff" stroke="transparent" points="8,-119.7 8,-141.7 214,-141.7 214,-119.7 8,-119.7"/>
<polygon fill="none" stroke="#000000" points="8,-119.7 8,-141.7 214,-141.7 214,-119.7 8,-119.7"/>
<text text-anchor="start" x="37" y="-126.8" font-family="Helvetica,sans-Serif" font-size="11.00" fill="#000000">observation_date</text>
<polygon fill="#ffffff" stroke="transparent" points="8,-97.7 8,-119.7 214,-119.7 214,-97.7 8,-97.7"/>
<polygon fill="none" stroke="#000000" points="8,-97.7 8,-119.7 214,-119.7 214,-97.7 8,-97.7"/>
<text text-anchor="start" x="37" y="-104.8" font-family="Helvetica,sans-Serif" font-size="11.00" fill="#000000">valid_from</text>
<polygon fill="#ffffff" stroke="transparent" points="8,-75.7 8,-97.7 214,-97.7 214,-75.7 8,-75.7"/>
<polygon fill="none" stroke="#000000" points="8,-75.7 8,-97.7 214,-97.7 214,-75.7 8,-75.7"/>
<text text-anchor="start" x="37" y="-82.8" font-family="Helvetica,sans-Serif" font-size="11.00" fill="#000000">valid_to</text>
<polygon fill="none" stroke="#000000" points="8,-56.7 8,-75.7 214,-75.7 214,-56.7 8,-56.7"/>
<text text-anchor="start" x="11" y="-62.8" font-family="Helvetica,sans-Serif" font-size="11.00" fill="#000000">...</text>
<polygon fill="#ffffff" stroke="transparent" points="8,-37.7 8,-56.7 105,-56.7 105,-37.7 8,-37.7"/>
<polygon fill="none" stroke="#000000" points="8,-37.7 8,-56.7 105,-56.7 105,-37.7 8,-37.7"/>
<text text-anchor="start" x="11" y="-43.8" font-family="Helvetica,sans-Serif" font-size="11.00" fill="#000000">&lt; 2</text>
<polygon fill="#ffffff" stroke="transparent" points="105,-37.7 105,-56.7 155,-56.7 155,-37.7 105,-37.7"/>
<polygon fill="none" stroke="#000000" points="105,-37.7 105,-56.7 155,-56.7 155,-37.7 105,-37.7"/>
<text text-anchor="start" x="145.8862" y="-43.8" font-family="Helvetica,sans-Serif" font-size="11.00" fill="#000000"> &#160;</text>
<polygon fill="#ffffff" stroke="transparent" points="155,-37.7 155,-56.7 214,-56.7 214,-37.7 155,-37.7"/>
<polygon fill="none" stroke="#000000" points="155,-37.7 155,-56.7 214,-56.7 214,-37.7 155,-37.7"/>
<text text-anchor="start" x="195.4053" y="-43.8" font-family="Helvetica,sans-Serif" font-size="11.00" fill="#000000">1 &gt;</text>
</a>
</g>
</g>
<!-- existing_land_use_value&#45;&gt;existing_land_use_object -->
<g id="edge2" class="edge">
<title>existing_land_use_value:w&#45;&gt;existing_land_use_object:e</title>
<path fill="none" stroke="#000000" d="M251.7488,-288.2926C232.4187,-272.3617 248.1218,-218.7 214,-218.7"/>
<polygon fill="#000000" stroke="#000000" points="257.8817,-290.2582 264.4012,-296.1282 261.6909,-291.4791 265.5,-292.7 265.5,-292.7 265.5,-292.7 261.6909,-291.4791 266.5988,-289.2718 257.8817,-290.2582 257.8817,-290.2582"/>
<ellipse fill="none" stroke="#000000" cx="254.8344" cy="-289.2815" rx="3.2" ry="3.2"/>
</g>
</g>
</svg>
