<?xml version="1.0" encoding="UTF-8" standalone="no"?>
<!DOCTYPE svg PUBLIC "-//W3C//DTD SVG 1.1//EN"
 "http://www.w3.org/Graphics/SVG/1.1/DTD/svg11.dtd">
<!-- Generated by graphviz version 2.40.1 (20161225.0304)
 -->
<!-- Title: oneDegreeRelationshipsDiagram Pages: 1 -->
<svg width="764pt" height="665pt"
 viewBox="0.00 0.00 764.00 665.20" xmlns="http://www.w3.org/2000/svg" xmlns:xlink="http://www.w3.org/1999/xlink">
<g id="graph0" class="graph" transform="scale(1 1) rotate(0) translate(4 661.2)">
<title>oneDegreeRelationshipsDiagram</title>
<polygon fill="#ffffff" stroke="transparent" points="-4,4 -4,-661.2 760,-661.2 760,4 -4,4"/>
<text text-anchor="middle" x="72.4936" y="-7.3" font-family="Helvetica,sans-Serif" font-size="11.00" fill="#000000">Generated by SchemaSpy</text>
<!-- datastream -->
<g id="node1" class="node">
<title>datastream</title>
<g id="a_node1"><a xlink:href="../../tables/datastream.html" xlink:title="datastream" target="_top">
<polygon fill="#ffffff" stroke="transparent" points="559,-281.2 559,-653.2 748,-653.2 748,-281.2 559,-281.2"/>
<polygon fill="#f5f5f5" stroke="transparent" points="559.5,-630.2 559.5,-653.2 748.5,-653.2 748.5,-630.2 559.5,-630.2"/>
<polygon fill="none" stroke="#000000" points="559.5,-630.2 559.5,-653.2 748.5,-653.2 748.5,-630.2 559.5,-630.2"/>
<text text-anchor="start" x="564.5" y="-638.8" font-family="Helvetica,sans-Serif" font-weight="bold" font-size="11.00" fill="#000000">datastream</text>
<text text-anchor="start" x="713.5437" y="-638.3" font-family="Helvetica,sans-Serif" font-size="11.00" fill="#000000">[table]</text>
<polygon fill="none" stroke="#000000" points="559.5,-608.2 559.5,-630.2 748.5,-630.2 748.5,-608.2 559.5,-608.2"/>
<image xlink:href="../../images/primaryKeys.png" width="11px" height="12px" preserveAspectRatio="xMinYMin meet" x="564.5" y="-625.2"/>
<text text-anchor="start" x="579.5" y="-615.3" font-family="Helvetica,sans-Serif" font-size="11.00" fill="#000000">id</text>
<polygon fill="#ffffff" stroke="transparent" points="559.5,-586.2 559.5,-608.2 748.5,-608.2 748.5,-586.2 559.5,-586.2"/>
<polygon fill="none" stroke="#000000" points="559.5,-586.2 559.5,-608.2 748.5,-608.2 748.5,-586.2 559.5,-586.2"/>
<text text-anchor="start" x="579.5" y="-593.3" font-family="Helvetica,sans-Serif" font-size="11.00" fill="#000000">guidkey</text>
<polygon fill="#ffffff" stroke="transparent" points="559.5,-564.2 559.5,-586.2 748.5,-586.2 748.5,-564.2 559.5,-564.2"/>
<polygon fill="none" stroke="#000000" points="559.5,-564.2 559.5,-586.2 748.5,-586.2 748.5,-564.2 559.5,-564.2"/>
<image xlink:href="../../images/foreignKeys.png" width="11px" height="12px" preserveAspectRatio="xMinYMin meet" x="564.5" y="-581.2"/>
<text text-anchor="start" x="579.5" y="-571.3" font-family="Helvetica,sans-Serif" font-size="11.00" fill="#000000">id_soil_site</text>
<polygon fill="#ffffff" stroke="transparent" points="559.5,-542.2 559.5,-564.2 748.5,-564.2 748.5,-542.2 559.5,-542.2"/>
<polygon fill="none" stroke="#000000" points="559.5,-542.2 559.5,-564.2 748.5,-564.2 748.5,-542.2 559.5,-542.2"/>
<image xlink:href="../../images/foreignKeys.png" width="11px" height="12px" preserveAspectRatio="xMinYMin meet" x="564.5" y="-559.2"/>
<text text-anchor="start" x="579.5" y="-549.3" font-family="Helvetica,sans-Serif" font-size="11.00" fill="#000000">id_soil_plot</text>
<polygon fill="#ffffff" stroke="transparent" points="559.5,-520.2 559.5,-542.2 748.5,-542.2 748.5,-520.2 559.5,-520.2"/>
<polygon fill="none" stroke="#000000" points="559.5,-520.2 559.5,-542.2 748.5,-542.2 748.5,-520.2 559.5,-520.2"/>
<image xlink:href="../../images/foreignKeys.png" width="11px" height="12px" preserveAspectRatio="xMinYMin meet" x="564.5" y="-537.2"/>
<text text-anchor="start" x="579.5" y="-527.3" font-family="Helvetica,sans-Serif" font-size="11.00" fill="#000000">id_soil_profile</text>
<polygon fill="#ffffff" stroke="transparent" points="559.5,-498.2 559.5,-520.2 748.5,-520.2 748.5,-498.2 559.5,-498.2"/>
<polygon fill="none" stroke="#000000" points="559.5,-498.2 559.5,-520.2 748.5,-520.2 748.5,-498.2 559.5,-498.2"/>
<image xlink:href="../../images/foreignKeys.png" width="11px" height="12px" preserveAspectRatio="xMinYMin meet" x="564.5" y="-515.2"/>
<text text-anchor="start" x="579.5" y="-505.3" font-family="Helvetica,sans-Serif" font-size="11.00" fill="#000000">id_profile_element</text>
<polygon fill="#ffffff" stroke="transparent" points="559.5,-476.2 559.5,-498.2 748.5,-498.2 748.5,-476.2 559.5,-476.2"/>
<polygon fill="none" stroke="#000000" points="559.5,-476.2 559.5,-498.2 748.5,-498.2 748.5,-476.2 559.5,-476.2"/>
<image xlink:href="../../images/foreignKeys.png" width="11px" height="12px" preserveAspectRatio="xMinYMin meet" x="564.5" y="-493.2"/>
<text text-anchor="start" x="579.5" y="-483.3" font-family="Helvetica,sans-Serif" font-size="11.00" fill="#000000">id_soil_derived_object</text>
<polygon fill="none" stroke="#000000" points="559.5,-454.2 559.5,-476.2 748.5,-476.2 748.5,-454.2 559.5,-454.2"/>
<image xlink:href="../../images/foreignKeys.png" width="11px" height="12px" preserveAspectRatio="xMinYMin meet" x="564.5" y="-471.2"/>
<text text-anchor="start" x="579.5" y="-461.3" font-family="Helvetica,sans-Serif" font-size="11.00" fill="#000000">id_sensor</text>
<polygon fill="#ffffff" stroke="transparent" points="559.5,-432.2 559.5,-454.2 748.5,-454.2 748.5,-432.2 559.5,-432.2"/>
<polygon fill="none" stroke="#000000" points="559.5,-432.2 559.5,-454.2 748.5,-454.2 748.5,-432.2 559.5,-432.2"/>
<image xlink:href="../../images/foreignKeys.png" width="11px" height="12px" preserveAspectRatio="xMinYMin meet" x="564.5" y="-449.2"/>
<text text-anchor="start" x="579.5" y="-439.3" font-family="Helvetica,sans-Serif" font-size="11.00" fill="#000000">id_observed_property</text>
<polygon fill="#ffffff" stroke="transparent" points="559.5,-410.2 559.5,-432.2 748.5,-432.2 748.5,-410.2 559.5,-410.2"/>
<polygon fill="none" stroke="#000000" points="559.5,-410.2 559.5,-432.2 748.5,-432.2 748.5,-410.2 559.5,-410.2"/>
<image xlink:href="../../images/foreignKeys.png" width="11px" height="12px" preserveAspectRatio="xMinYMin meet" x="564.5" y="-427.2"/>
<text text-anchor="start" x="579.5" y="-417.3" font-family="Helvetica,sans-Serif" font-size="11.00" fill="#000000">id_process</text>
<polygon fill="none" stroke="#000000" points="559.5,-388.2 559.5,-410.2 748.5,-410.2 748.5,-388.2 559.5,-388.2"/>
<image xlink:href="../../images/foreignKeys.png" width="11px" height="12px" preserveAspectRatio="xMinYMin meet" x="564.5" y="-405.2"/>
<text text-anchor="start" x="579.5" y="-395.3" font-family="Helvetica,sans-Serif" font-size="11.00" fill="#000000">id_equipment</text>
<polygon fill="#ffffff" stroke="transparent" points="559.5,-366.2 559.5,-388.2 748.5,-388.2 748.5,-366.2 559.5,-366.2"/>
<polygon fill="none" stroke="#000000" points="559.5,-366.2 559.5,-388.2 748.5,-388.2 748.5,-366.2 559.5,-366.2"/>
<image xlink:href="../../images/foreignKeys.png" width="11px" height="12px" preserveAspectRatio="xMinYMin meet" x="564.5" y="-383.2"/>
<text text-anchor="start" x="579.5" y="-373.3" font-family="Helvetica,sans-Serif" font-size="11.00" fill="#000000">id_preparation_process</text>
<polygon fill="none" stroke="#000000" points="559.5,-344.2 559.5,-366.2 748.5,-366.2 748.5,-344.2 559.5,-344.2"/>
<image xlink:href="../../images/foreignKeys.png" width="11px" height="12px" preserveAspectRatio="xMinYMin meet" x="564.5" y="-361.2"/>
<text text-anchor="start" x="579.5" y="-351.3" font-family="Helvetica,sans-Serif" font-size="11.00" fill="#000000">id_datastream_collection</text>
<polygon fill="#ffffff" stroke="transparent" points="559.5,-322.2 559.5,-344.2 748.5,-344.2 748.5,-322.2 559.5,-322.2"/>
<polygon fill="none" stroke="#000000" points="559.5,-322.2 559.5,-344.2 748.5,-344.2 748.5,-322.2 559.5,-322.2"/>
<text text-anchor="start" x="579.5" y="-329.3" font-family="Helvetica,sans-Serif" font-size="11.00" fill="#000000">begin_result_time</text>
<polygon fill="#ffffff" stroke="transparent" points="559.5,-300.2 559.5,-322.2 748.5,-322.2 748.5,-300.2 559.5,-300.2"/>
<polygon fill="none" stroke="#000000" points="559.5,-300.2 559.5,-322.2 748.5,-322.2 748.5,-300.2 559.5,-300.2"/>
<text text-anchor="start" x="579.5" y="-307.3" font-family="Helvetica,sans-Serif" font-size="11.00" fill="#000000">end_result_time</text>
<polygon fill="#ffffff" stroke="transparent" points="559.5,-281.2 559.5,-300.2 650.5,-300.2 650.5,-281.2 559.5,-281.2"/>
<polygon fill="none" stroke="#000000" points="559.5,-281.2 559.5,-300.2 650.5,-300.2 650.5,-281.2 559.5,-281.2"/>
<text text-anchor="start" x="562.5" y="-287.3" font-family="Helvetica,sans-Serif" font-size="11.00" fill="#000000">&lt; 16</text>
<polygon fill="#ffffff" stroke="transparent" points="650.5,-281.2 650.5,-300.2 694.5,-300.2 694.5,-281.2 650.5,-281.2"/>
<polygon fill="none" stroke="#000000" points="650.5,-281.2 650.5,-300.2 694.5,-300.2 694.5,-281.2 650.5,-281.2"/>
<text text-anchor="start" x="685.3862" y="-287.3" font-family="Helvetica,sans-Serif" font-size="11.00" fill="#000000"> &#160;</text>
<polygon fill="#ffffff" stroke="transparent" points="694.5,-281.2 694.5,-300.2 748.5,-300.2 748.5,-281.2 694.5,-281.2"/>
<polygon fill="none" stroke="#000000" points="694.5,-281.2 694.5,-300.2 748.5,-300.2 748.5,-281.2 694.5,-281.2"/>
<text text-anchor="start" x="729.9053" y="-287.3" font-family="Helvetica,sans-Serif" font-size="11.00" fill="#000000">1 &gt;</text>
</a>
</g>
</g>
<!-- observable_property -->
<g id="node2" class="node">
<title>observable_property</title>
<g id="a_node2"><a xlink:href="../../tables/observable_property.html" xlink:title="observable_property" target="_top">
<polygon fill="#ffffff" stroke="transparent" points="237,-38.2 237,-348.2 510,-348.2 510,-38.2 237,-38.2"/>
<polygon fill="#f5f5f5" stroke="transparent" points="239.5,-323.2 239.5,-346.2 508.5,-346.2 508.5,-323.2 239.5,-323.2"/>
<polygon fill="none" stroke="#000000" points="239.5,-323.2 239.5,-346.2 508.5,-346.2 508.5,-323.2 239.5,-323.2"/>
<text text-anchor="start" x="244.5" y="-331.8" font-family="Helvetica,sans-Serif" font-weight="bold" font-size="11.00" fill="#000000">observable_property</text>
<text text-anchor="start" x="473.5437" y="-331.3" font-family="Helvetica,sans-Serif" font-size="11.00" fill="#000000">[table]</text>
<polygon fill="none" stroke="#000000" points="239.5,-301.2 239.5,-323.2 399.5,-323.2 399.5,-301.2 239.5,-301.2"/>
<image xlink:href="../../images/primaryKeys.png" width="11px" height="12px" preserveAspectRatio="xMinYMin meet" x="244.5" y="-318.2"/>
<text text-anchor="start" x="259.5" y="-308.3" font-family="Helvetica,sans-Serif" font-size="11.00" fill="#000000">id</text>
<polygon fill="none" stroke="#000000" points="399.5,-301.2 399.5,-323.2 508.5,-323.2 508.5,-301.2 399.5,-301.2"/>
<text text-anchor="start" x="402.5" y="-308.9" font-family="Helvetica,sans-Serif" font-size="11.00" fill="#000000">int4[10]</text>
<polygon fill="#ffffff" stroke="transparent" points="239.5,-279.2 239.5,-301.2 399.5,-301.2 399.5,-279.2 239.5,-279.2"/>
<polygon fill="none" stroke="#000000" points="239.5,-279.2 239.5,-301.2 399.5,-301.2 399.5,-279.2 239.5,-279.2"/>
<text text-anchor="start" x="259.5" y="-286.3" font-family="Helvetica,sans-Serif" font-size="11.00" fill="#000000">guidkey</text>
<polygon fill="none" stroke="#000000" points="399.5,-279.2 399.5,-301.2 508.5,-301.2 508.5,-279.2 399.5,-279.2"/>
<text text-anchor="start" x="402.5" y="-286.9" font-family="Helvetica,sans-Serif" font-size="11.00" fill="#000000">varchar[50]</text>
<polygon fill="#ffffff" stroke="transparent" points="239.5,-257.2 239.5,-279.2 399.5,-279.2 399.5,-257.2 239.5,-257.2"/>
<polygon fill="none" stroke="#000000" points="239.5,-257.2 239.5,-279.2 399.5,-279.2 399.5,-257.2 239.5,-257.2"/>
<image xlink:href="../../images/foreignKeys.png" width="11px" height="12px" preserveAspectRatio="xMinYMin meet" x="244.5" y="-274.2"/>
<text text-anchor="start" x="259.5" y="-264.3" font-family="Helvetica,sans-Serif" font-size="11.00" fill="#000000">id_uom</text>
<polygon fill="none" stroke="#000000" points="399.5,-257.2 399.5,-279.2 508.5,-279.2 508.5,-257.2 399.5,-257.2"/>
<text text-anchor="start" x="402.5" y="-264.9" font-family="Helvetica,sans-Serif" font-size="11.00" fill="#000000">int4[10]</text>
<polygon fill="none" stroke="#000000" points="239.5,-235.2 239.5,-257.2 399.5,-257.2 399.5,-235.2 239.5,-235.2"/>
<image xlink:href="../../images/foreignKeys.png" width="11px" height="12px" preserveAspectRatio="xMinYMin meet" x="244.5" y="-252.2"/>
<text text-anchor="start" x="259.5" y="-242.3" font-family="Helvetica,sans-Serif" font-size="11.00" fill="#000000">base_phenomenon</text>
<polygon fill="none" stroke="#000000" points="399.5,-235.2 399.5,-257.2 508.5,-257.2 508.5,-235.2 399.5,-235.2"/>
<text text-anchor="start" x="402.5" y="-242.9" font-family="Helvetica,sans-Serif" font-size="11.00" fill="#000000">int4[10]</text>
<polygon fill="none" stroke="#000000" points="239.5,-213.2 239.5,-235.2 399.5,-235.2 399.5,-213.2 239.5,-213.2"/>
<image xlink:href="../../images/foreignKeys.png" width="11px" height="12px" preserveAspectRatio="xMinYMin meet" x="244.5" y="-230.2"/>
<text text-anchor="start" x="259.5" y="-220.3" font-family="Helvetica,sans-Serif" font-size="11.00" fill="#000000">phenomenon_type</text>
<polygon fill="none" stroke="#000000" points="399.5,-213.2 399.5,-235.2 508.5,-235.2 508.5,-213.2 399.5,-213.2"/>
<text text-anchor="start" x="402.5" y="-220.9" font-family="Helvetica,sans-Serif" font-size="11.00" fill="#000000">int4[10]</text>
<polygon fill="none" stroke="#000000" points="239.5,-191.2 239.5,-213.2 399.5,-213.2 399.5,-191.2 239.5,-191.2"/>
<text text-anchor="start" x="259.5" y="-198.3" font-family="Helvetica,sans-Serif" font-size="11.00" fill="#000000">full_name</text>
<polygon fill="none" stroke="#000000" points="399.5,-191.2 399.5,-213.2 508.5,-213.2 508.5,-191.2 399.5,-191.2"/>
<text text-anchor="start" x="402.5" y="-198.9" font-family="Helvetica,sans-Serif" font-size="11.00" fill="#000000">varchar[255]</text>
<polygon fill="#ffffff" stroke="transparent" points="239.5,-169.2 239.5,-191.2 399.5,-191.2 399.5,-169.2 239.5,-169.2"/>
<polygon fill="none" stroke="#000000" points="239.5,-169.2 239.5,-191.2 399.5,-191.2 399.5,-169.2 239.5,-169.2"/>
<text text-anchor="start" x="259.5" y="-176.3" font-family="Helvetica,sans-Serif" font-size="11.00" fill="#000000">name</text>
<polygon fill="none" stroke="#000000" points="399.5,-169.2 399.5,-191.2 508.5,-191.2 508.5,-169.2 399.5,-169.2"/>
<text text-anchor="start" x="402.5" y="-176.9" font-family="Helvetica,sans-Serif" font-size="11.00" fill="#000000">varchar[100]</text>
<polygon fill="none" stroke="#000000" points="239.5,-147.2 239.5,-169.2 399.5,-169.2 399.5,-147.2 239.5,-147.2"/>
<text text-anchor="start" x="259.5" y="-154.3" font-family="Helvetica,sans-Serif" font-size="11.00" fill="#000000">cas_code</text>
<polygon fill="none" stroke="#000000" points="399.5,-147.2 399.5,-169.2 508.5,-169.2 508.5,-147.2 399.5,-147.2"/>
<text text-anchor="start" x="402.5" y="-154.9" font-family="Helvetica,sans-Serif" font-size="11.00" fill="#000000">varchar[30]</text>
<polygon fill="none" stroke="#000000" points="239.5,-125.2 239.5,-147.2 399.5,-147.2 399.5,-125.2 239.5,-125.2"/>
<text text-anchor="start" x="259.5" y="-132.3" font-family="Helvetica,sans-Serif" font-size="11.00" fill="#000000">priority</text>
<polygon fill="none" stroke="#000000" points="399.5,-125.2 399.5,-147.2 508.5,-147.2 508.5,-125.2 399.5,-125.2"/>
<text text-anchor="start" x="402.5" y="-132.9" font-family="Helvetica,sans-Serif" font-size="11.00" fill="#000000">int4[10]</text>
<polygon fill="none" stroke="#000000" points="239.5,-103.2 239.5,-125.2 399.5,-125.2 399.5,-103.2 239.5,-103.2"/>
<text text-anchor="start" x="259.5" y="-110.3" font-family="Helvetica,sans-Serif" font-size="11.00" fill="#000000">type</text>
<polygon fill="none" stroke="#000000" points="399.5,-103.2 399.5,-125.2 508.5,-125.2 508.5,-103.2 399.5,-103.2"/>
<text text-anchor="start" x="402.0344" y="-110.9" font-family="Helvetica,sans-Serif" font-size="11.00" fill="#000000">varchar[2147483647]</text>
<polygon fill="none" stroke="#000000" points="239.5,-81.2 239.5,-103.2 399.5,-103.2 399.5,-81.2 239.5,-81.2"/>
<text text-anchor="start" x="259.5" y="-88.3" font-family="Helvetica,sans-Serif" font-size="11.00" fill="#000000">domain_min</text>
<polygon fill="none" stroke="#000000" points="399.5,-81.2 399.5,-103.2 508.5,-103.2 508.5,-81.2 399.5,-81.2"/>
<text text-anchor="start" x="402.5" y="-88.9" font-family="Helvetica,sans-Serif" font-size="11.00" fill="#000000">float8[17,17]</text>
<polygon fill="none" stroke="#000000" points="239.5,-59.2 239.5,-81.2 399.5,-81.2 399.5,-59.2 239.5,-59.2"/>
<text text-anchor="start" x="259.5" y="-66.3" font-family="Helvetica,sans-Serif" font-size="11.00" fill="#000000">domain_max</text>
<polygon fill="none" stroke="#000000" points="399.5,-59.2 399.5,-81.2 508.5,-81.2 508.5,-59.2 399.5,-59.2"/>
<text text-anchor="start" x="402.5" y="-66.9" font-family="Helvetica,sans-Serif" font-size="11.00" fill="#000000">float8[17,17]</text>
<polygon fill="#ffffff" stroke="transparent" points="239.5,-40.2 239.5,-59.2 323.5,-59.2 323.5,-40.2 239.5,-40.2"/>
<polygon fill="none" stroke="#000000" points="239.5,-40.2 239.5,-59.2 323.5,-59.2 323.5,-40.2 239.5,-40.2"/>
<text text-anchor="start" x="242.5" y="-46.3" font-family="Helvetica,sans-Serif" font-size="11.00" fill="#000000">&lt; 3</text>
<polygon fill="#ffffff" stroke="transparent" points="323.5,-40.2 323.5,-59.2 399.5,-59.2 399.5,-40.2 323.5,-40.2"/>
<polygon fill="none" stroke="#000000" points="323.5,-40.2 323.5,-59.2 399.5,-59.2 399.5,-40.2 323.5,-40.2"/>
<text text-anchor="start" x="390.3862" y="-46.3" font-family="Helvetica,sans-Serif" font-size="11.00" fill="#000000"> &#160;</text>
<polygon fill="#ffffff" stroke="transparent" points="399.5,-40.2 399.5,-59.2 508.5,-59.2 508.5,-40.2 399.5,-40.2"/>
<polygon fill="none" stroke="#000000" points="399.5,-40.2 399.5,-59.2 508.5,-59.2 508.5,-40.2 399.5,-40.2"/>
<text text-anchor="start" x="489.9053" y="-46.3" font-family="Helvetica,sans-Serif" font-size="11.00" fill="#000000">2 &gt;</text>
<polygon fill="none" stroke="#000000" stroke-width="2" points="238,-39.2 238,-347.2 509,-347.2 509,-39.2 238,-39.2"/>
</a>
</g>
</g>
<!-- datastream&#45;&gt;observable_property -->
<g id="edge1" class="edge">
<title>datastream:w&#45;&gt;observable_property:e</title>
<path fill="none" stroke="#000000" d="M545.3004,-439.9618C509.6891,-419.7889 565.1214,-312.2 508.5,-312.2"/>
<polygon fill="#000000" stroke="#000000" points="551.7002,-441.4212 558.6995,-446.7099 555.6001,-442.3106 559.5,-443.2 559.5,-443.2 559.5,-443.2 555.6001,-442.3106 560.3005,-439.6901 551.7002,-441.4212 551.7002,-441.4212"/>
<ellipse fill="none" stroke="#000000" cx="548.5803" cy="-440.7097" rx="3.2" ry="3.2"/>
</g>
<!-- codelist -->
<g id="node3" class="node">
<title>codelist</title>
<g id="a_node3"><a xlink:href="../../tables/codelist.html" xlink:title="codelist" target="_top">
<polygon fill="#ffffff" stroke="transparent" points="52,-109.7 52,-258.7 144,-258.7 144,-109.7 52,-109.7"/>
<polygon fill="#f5f5f5" stroke="transparent" points="52,-235.2 52,-258.2 144,-258.2 144,-235.2 52,-235.2"/>
<polygon fill="none" stroke="#000000" points="52,-235.2 52,-258.2 144,-258.2 144,-235.2 52,-235.2"/>
<text text-anchor="start" x="57" y="-243.8" font-family="Helvetica,sans-Serif" font-weight="bold" font-size="11.00" fill="#000000">codelist</text>
<text text-anchor="start" x="109.5219" y="-243.3" font-family="Helvetica,sans-Serif" font-size="11.00" fill="#000000">[table]</text>
<polygon fill="none" stroke="#000000" points="52,-213.2 52,-235.2 144,-235.2 144,-213.2 52,-213.2"/>
<image xlink:href="../../images/primaryKeys.png" width="11px" height="12px" preserveAspectRatio="xMinYMin meet" x="57" y="-230.2"/>
<text text-anchor="start" x="75" y="-220.3" font-family="Helvetica,sans-Serif" font-size="11.00" fill="#000000">id</text>
<polygon fill="#ffffff" stroke="transparent" points="52,-191.2 52,-213.2 144,-213.2 144,-191.2 52,-191.2"/>
<polygon fill="none" stroke="#000000" points="52,-191.2 52,-213.2 144,-213.2 144,-191.2 52,-191.2"/>
<image xlink:href="../../images/foreignKeys.png" width="11px" height="12px" preserveAspectRatio="xMinYMin meet" x="57" y="-208.2"/>
<text text-anchor="start" x="75" y="-198.3" font-family="Helvetica,sans-Serif" font-size="11.00" fill="#000000">parent</text>
<polygon fill="#ffffff" stroke="transparent" points="52,-169.2 52,-191.2 144,-191.2 144,-169.2 52,-169.2"/>
<polygon fill="none" stroke="#000000" points="52,-169.2 52,-191.2 144,-191.2 144,-169.2 52,-169.2"/>
<text text-anchor="start" x="75" y="-176.3" font-family="Helvetica,sans-Serif" font-size="11.00" fill="#000000">localid</text>
<polygon fill="#ffffff" stroke="transparent" points="52,-147.2 52,-169.2 144,-169.2 144,-147.2 52,-147.2"/>
<polygon fill="none" stroke="#000000" points="52,-147.2 52,-169.2 144,-169.2 144,-147.2 52,-147.2"/>
<text text-anchor="start" x="75" y="-154.3" font-family="Helvetica,sans-Serif" font-size="11.00" fill="#000000">collection</text>
<polygon fill="none" stroke="#000000" points="52,-128.2 52,-147.2 144,-147.2 144,-128.2 52,-128.2"/>
<text text-anchor="start" x="55" y="-134.3" font-family="Helvetica,sans-Serif" font-size="11.00" fill="#000000">...</text>
<polygon fill="#ffffff" stroke="transparent" points="52,-109.2 52,-128.2 89,-128.2 89,-109.2 52,-109.2"/>
<polygon fill="none" stroke="#000000" points="52,-109.2 52,-128.2 89,-128.2 89,-109.2 52,-109.2"/>
<text text-anchor="start" x="55" y="-115.3" font-family="Helvetica,sans-Serif" font-size="11.00" fill="#000000">&lt; 1</text>
<polygon fill="#ffffff" stroke="transparent" points="89,-109.2 89,-128.2 109,-128.2 109,-109.2 89,-109.2"/>
<polygon fill="none" stroke="#000000" points="89,-109.2 89,-128.2 109,-128.2 109,-109.2 89,-109.2"/>
<text text-anchor="start" x="99.8862" y="-115.3" font-family="Helvetica,sans-Serif" font-size="11.00" fill="#000000"> &#160;</text>
<polygon fill="#ffffff" stroke="transparent" points="109,-109.2 109,-128.2 144,-128.2 144,-109.2 109,-109.2"/>
<polygon fill="none" stroke="#000000" points="109,-109.2 109,-128.2 144,-128.2 144,-109.2 109,-109.2"/>
<text text-anchor="start" x="119.2904" y="-115.3" font-family="Helvetica,sans-Serif" font-size="11.00" fill="#000000">55 &gt;</text>
</a>
</g>
</g>
<!-- observable_property&#45;&gt;codelist -->
<g id="edge2" class="edge">
<title>observable_property:w&#45;&gt;codelist:e</title>
<path fill="none" stroke="#000000" d="M225.0991,-245.3103C193.3968,-241.1945 182.2817,-224.2 144,-224.2"/>
<polygon fill="#000000" stroke="#000000" points="231.5152,-245.7067 239.278,-249.7931 235.5076,-245.9533 239.5,-246.2 239.5,-246.2 239.5,-246.2 235.5076,-245.9533 239.722,-242.6069 231.5152,-245.7067 231.5152,-245.7067"/>
<ellipse fill="none" stroke="#000000" cx="228.3213" cy="-245.5093" rx="3.2" ry="3.2"/>
</g>
<!-- observable_property&#45;&gt;codelist -->
<g id="edge4" class="edge">
<title>observable_property:w&#45;&gt;codelist:e</title>
<path fill="none" stroke="#000000" d="M224.9512,-224.2C193.9054,-224.2 181.1389,-224.2 144,-224.2"/>
<polygon fill="#000000" stroke="#000000" points="231.5,-224.2001 239.5,-227.8 235.5,-224.2 239.5,-224.2 239.5,-224.2 239.5,-224.2 235.5,-224.2 239.5,-220.6 231.5,-224.2001 231.5,-224.2001"/>
<ellipse fill="none" stroke="#000000" cx="228.3" cy="-224.2001" rx="3.2" ry="3.2"/>
</g>
<!-- unit_of_measure -->
<g id="node4" class="node">
<title>unit_of_measure</title>
<g id="a_node4"><a xlink:href="../../tables/unit_of_measure.html" xlink:title="unit_of_measure" target="_top">
<polygon fill="#ffffff" stroke="transparent" points="8,-279.7 8,-428.7 188,-428.7 188,-279.7 8,-279.7"/>
<polygon fill="#f5f5f5" stroke="transparent" points="8,-405.2 8,-428.2 188,-428.2 188,-405.2 8,-405.2"/>
<polygon fill="none" stroke="#000000" points="8,-405.2 8,-428.2 188,-428.2 188,-405.2 8,-405.2"/>
<text text-anchor="start" x="13" y="-413.8" font-family="Helvetica,sans-Serif" font-weight="bold" font-size="11.00" fill="#000000">unit_of_measure</text>
<text text-anchor="start" x="153.0437" y="-413.3" font-family="Helvetica,sans-Serif" font-size="11.00" fill="#000000">[table]</text>
<polygon fill="none" stroke="#000000" points="8,-383.2 8,-405.2 188,-405.2 188,-383.2 8,-383.2"/>
<image xlink:href="../../images/primaryKeys.png" width="11px" height="12px" preserveAspectRatio="xMinYMin meet" x="13" y="-400.2"/>
<text text-anchor="start" x="28" y="-390.3" font-family="Helvetica,sans-Serif" font-size="11.00" fill="#000000">id</text>
<polygon fill="#ffffff" stroke="transparent" points="8,-361.2 8,-383.2 188,-383.2 188,-361.2 8,-361.2"/>
<polygon fill="none" stroke="#000000" points="8,-361.2 8,-383.2 188,-383.2 188,-361.2 8,-361.2"/>
<text text-anchor="start" x="28" y="-368.3" font-family="Helvetica,sans-Serif" font-size="11.00" fill="#000000">guidkey</text>
<polygon fill="#ffffff" stroke="transparent" points="8,-339.2 8,-361.2 188,-361.2 188,-339.2 8,-339.2"/>
<polygon fill="none" stroke="#000000" points="8,-339.2 8,-361.2 188,-361.2 188,-339.2 8,-339.2"/>
<text text-anchor="start" x="28" y="-346.3" font-family="Helvetica,sans-Serif" font-size="11.00" fill="#000000">uom_name</text>
<polygon fill="#ffffff" stroke="transparent" points="8,-317.2 8,-339.2 188,-339.2 188,-317.2 8,-317.2"/>
<polygon fill="none" stroke="#000000" points="8,-317.2 8,-339.2 188,-339.2 188,-317.2 8,-317.2"/>
<text text-anchor="start" x="28" y="-324.3" font-family="Helvetica,sans-Serif" font-size="11.00" fill="#000000">uom_symbol</text>
<polygon fill="none" stroke="#000000" points="8,-298.2 8,-317.2 188,-317.2 188,-298.2 8,-298.2"/>
<text text-anchor="start" x="11" y="-304.3" font-family="Helvetica,sans-Serif" font-size="11.00" fill="#000000">...</text>
<polygon fill="#ffffff" stroke="transparent" points="8,-279.2 8,-298.2 87,-298.2 87,-279.2 8,-279.2"/>
<polygon fill="none" stroke="#000000" points="8,-279.2 8,-298.2 87,-298.2 87,-279.2 8,-279.2"/>
<text text-anchor="start" x="11" y="-285.3" font-family="Helvetica,sans-Serif" font-size="11.00" fill="#000000"> &#160;</text>
<polygon fill="#ffffff" stroke="transparent" points="87,-279.2 87,-298.2 133,-298.2 133,-279.2 87,-279.2"/>
<polygon fill="none" stroke="#000000" points="87,-279.2 87,-298.2 133,-298.2 133,-279.2 87,-279.2"/>
<text text-anchor="start" x="123.8862" y="-285.3" font-family="Helvetica,sans-Serif" font-size="11.00" fill="#000000"> &#160;</text>
<polygon fill="#ffffff" stroke="transparent" points="133,-279.2 133,-298.2 188,-298.2 188,-279.2 133,-279.2"/>
<polygon fill="none" stroke="#000000" points="133,-279.2 133,-298.2 188,-298.2 188,-279.2 133,-279.2"/>
<text text-anchor="start" x="169.4053" y="-285.3" font-family="Helvetica,sans-Serif" font-size="11.00" fill="#000000">2 &gt;</text>
</a>
</g>
</g>
<!-- observable_property&#45;&gt;unit_of_measure -->
<g id="edge3" class="edge">
<title>observable_property:w&#45;&gt;unit_of_measure:e</title>
<path fill="none" stroke="#000000" d="M225.2532,-271.5702C191.3363,-291.6077 242.5892,-394.2 188,-394.2"/>
<polygon fill="#000000" stroke="#000000" points="231.7149,-270.0417 240.3288,-271.7033 235.6074,-269.1208 239.5,-268.2 239.5,-268.2 239.5,-268.2 235.6074,-269.1208 238.6712,-264.6967 231.7149,-270.0417 231.7149,-270.0417"/>
<ellipse fill="none" stroke="#000000" cx="228.6008" cy="-270.7783" rx="3.2" ry="3.2"/>
</g>
<!-- soil_theme_coverage -->
<g id="node5" class="node">
<title>soil_theme_coverage</title>
<g id="a_node5"><a xlink:href="../../tables/soil_theme_coverage.html" xlink:title="soil_theme_coverage" target="_top">
<polygon fill="#ffffff" stroke="transparent" points="564,-110.7 564,-259.7 743,-259.7 743,-110.7 564,-110.7"/>
<polygon fill="#f5f5f5" stroke="transparent" points="564.5,-236.2 564.5,-259.2 743.5,-259.2 743.5,-236.2 564.5,-236.2"/>
<polygon fill="none" stroke="#000000" points="564.5,-236.2 564.5,-259.2 743.5,-259.2 743.5,-236.2 564.5,-236.2"/>
<text text-anchor="start" x="569.5" y="-244.8" font-family="Helvetica,sans-Serif" font-weight="bold" font-size="11.00" fill="#000000">soil_theme_coverage</text>
<text text-anchor="start" x="709.0219" y="-244.3" font-family="Helvetica,sans-Serif" font-size="11.00" fill="#000000">[table]</text>
<polygon fill="none" stroke="#000000" points="564.5,-214.2 564.5,-236.2 743.5,-236.2 743.5,-214.2 564.5,-214.2"/>
<image xlink:href="../../images/primaryKeys.png" width="11px" height="12px" preserveAspectRatio="xMinYMin meet" x="569.5" y="-231.2"/>
<text text-anchor="start" x="587.5" y="-221.3" font-family="Helvetica,sans-Serif" font-size="11.00" fill="#000000">id</text>
<polygon fill="#ffffff" stroke="transparent" points="564.5,-192.2 564.5,-214.2 743.5,-214.2 743.5,-192.2 564.5,-192.2"/>
<polygon fill="none" stroke="#000000" points="564.5,-192.2 564.5,-214.2 743.5,-214.2 743.5,-192.2 564.5,-192.2"/>
<image xlink:href="../../images/foreignKeys.png" width="11px" height="12px" preserveAspectRatio="xMinYMin meet" x="569.5" y="-209.2"/>
<text text-anchor="start" x="587.5" y="-199.3" font-family="Helvetica,sans-Serif" font-size="11.00" fill="#000000">id_inspire</text>
<polygon fill="none" stroke="#000000" points="564.5,-170.2 564.5,-192.2 743.5,-192.2 743.5,-170.2 564.5,-170.2"/>
<image xlink:href="../../images/foreignKeys.png" width="11px" height="12px" preserveAspectRatio="xMinYMin meet" x="569.5" y="-187.2"/>
<text text-anchor="start" x="587.5" y="-177.3" font-family="Helvetica,sans-Serif" font-size="11.00" fill="#000000">soil_theme_parameter</text>
<polygon fill="#ffffff" stroke="transparent" points="564.5,-148.2 564.5,-170.2 743.5,-170.2 743.5,-148.2 564.5,-148.2"/>
<polygon fill="none" stroke="#000000" points="564.5,-148.2 564.5,-170.2 743.5,-170.2 743.5,-148.2 564.5,-148.2"/>
<text text-anchor="start" x="587.5" y="-155.3" font-family="Helvetica,sans-Serif" font-size="11.00" fill="#000000">domain_extent</text>
<polygon fill="none" stroke="#000000" points="564.5,-129.2 564.5,-148.2 743.5,-148.2 743.5,-129.2 564.5,-129.2"/>
<text text-anchor="start" x="567.5" y="-135.3" font-family="Helvetica,sans-Serif" font-size="11.00" fill="#000000">...</text>
<polygon fill="#ffffff" stroke="transparent" points="564.5,-110.2 564.5,-129.2 647.5,-129.2 647.5,-110.2 564.5,-110.2"/>
<polygon fill="none" stroke="#000000" points="564.5,-110.2 564.5,-129.2 647.5,-129.2 647.5,-110.2 564.5,-110.2"/>
<text text-anchor="start" x="567.5" y="-116.3" font-family="Helvetica,sans-Serif" font-size="11.00" fill="#000000">&lt; 2</text>
<polygon fill="#ffffff" stroke="transparent" points="647.5,-110.2 647.5,-129.2 690.5,-129.2 690.5,-110.2 647.5,-110.2"/>
<polygon fill="none" stroke="#000000" points="647.5,-110.2 647.5,-129.2 690.5,-129.2 690.5,-110.2 647.5,-110.2"/>
<text text-anchor="start" x="681.3862" y="-116.3" font-family="Helvetica,sans-Serif" font-size="11.00" fill="#000000"> &#160;</text>
<polygon fill="#ffffff" stroke="transparent" points="690.5,-110.2 690.5,-129.2 743.5,-129.2 743.5,-110.2 690.5,-110.2"/>
<polygon fill="none" stroke="#000000" points="690.5,-110.2 690.5,-129.2 743.5,-129.2 743.5,-110.2 690.5,-110.2"/>
<text text-anchor="start" x="724.9053" y="-116.3" font-family="Helvetica,sans-Serif" font-size="11.00" fill="#000000">1 &gt;</text>
</a>
</g>
</g>
<!-- soil_theme_coverage&#45;&gt;observable_property -->
<g id="edge5" class="edge">
<title>soil_theme_coverage:w&#45;&gt;observable_property:e</title>
<path fill="none" stroke="#000000" d="M550.0029,-184.4382C513.2483,-204.6111 565.8828,-312.2 508.5,-312.2"/>
<polygon fill="#000000" stroke="#000000" points="556.6924,-182.944 565.2848,-184.7134 560.5962,-182.072 564.5,-181.2 564.5,-181.2 564.5,-181.2 560.5962,-182.072 563.7152,-177.6866 556.6924,-182.944 556.6924,-182.944"/>
<ellipse fill="none" stroke="#000000" cx="553.5694" cy="-183.6416" rx="3.2" ry="3.2"/>
</g>
</g>
</svg>
