<?xml version="1.0" encoding="UTF-8" standalone="no"?>
<!DOCTYPE svg PUBLIC "-//W3C//DTD SVG 1.1//EN"
 "http://www.w3.org/Graphics/SVG/1.1/DTD/svg11.dtd">
<!-- Generated by graphviz version 2.40.1 (20161225.0304)
 -->
<!-- Title: oneDegreeRelationshipsDiagram Pages: 1 -->
<svg width="715pt" height="392pt"
 viewBox="0.00 0.00 715.00 391.70" xmlns="http://www.w3.org/2000/svg" xmlns:xlink="http://www.w3.org/1999/xlink">
<g id="graph0" class="graph" transform="scale(1 1) rotate(0) translate(4 387.7)">
<title>oneDegreeRelationshipsDiagram</title>
<polygon fill="#ffffff" stroke="transparent" points="-4,4 -4,-387.7 711,-387.7 711,4 -4,4"/>
<text text-anchor="middle" x="72.4936" y="-7.3" font-family="Helvetica,sans-Serif" font-size="11.00" fill="#000000">Generated by SchemaSpy</text>
<!-- other_horizon_notation_type -->
<g id="node1" class="node">
<title>other_horizon_notation_type</title>
<g id="a_node1"><a xlink:href="../../tables/other_horizon_notation_type.html" xlink:title="other_horizon_notation_type" target="_top">
<polygon fill="#ffffff" stroke="transparent" points="415,-179.7 415,-379.7 699,-379.7 699,-179.7 415,-179.7"/>
<polygon fill="#f5f5f5" stroke="transparent" points="417,-354.7 417,-377.7 697,-377.7 697,-354.7 417,-354.7"/>
<polygon fill="none" stroke="#000000" points="417,-354.7 417,-377.7 697,-377.7 697,-354.7 417,-354.7"/>
<text text-anchor="start" x="422" y="-363.3" font-family="Helvetica,sans-Serif" font-weight="bold" font-size="11.00" fill="#000000">other_horizon_notation_type</text>
<text text-anchor="start" x="662.0437" y="-362.8" font-family="Helvetica,sans-Serif" font-size="11.00" fill="#000000">[table]</text>
<polygon fill="none" stroke="#000000" points="417,-332.7 417,-354.7 630,-354.7 630,-332.7 417,-332.7"/>
<image xlink:href="../../images/primaryKeys.png" width="11px" height="12px" preserveAspectRatio="xMinYMin meet" x="422" y="-349.7"/>
<text text-anchor="start" x="437" y="-339.8" font-family="Helvetica,sans-Serif" font-size="11.00" fill="#000000">id</text>
<polygon fill="none" stroke="#000000" points="630,-332.7 630,-354.7 697,-354.7 697,-332.7 630,-332.7"/>
<text text-anchor="start" x="633" y="-340.4" font-family="Helvetica,sans-Serif" font-size="11.00" fill="#000000">int4[10]</text>
<polygon fill="#ffffff" stroke="transparent" points="417,-310.7 417,-332.7 630,-332.7 630,-310.7 417,-310.7"/>
<polygon fill="none" stroke="#000000" points="417,-310.7 417,-332.7 630,-332.7 630,-310.7 417,-310.7"/>
<text text-anchor="start" x="437" y="-317.8" font-family="Helvetica,sans-Serif" font-size="11.00" fill="#000000">guidkey</text>
<polygon fill="none" stroke="#000000" points="630,-310.7 630,-332.7 697,-332.7 697,-310.7 630,-310.7"/>
<text text-anchor="start" x="633" y="-318.4" font-family="Helvetica,sans-Serif" font-size="11.00" fill="#000000">varchar[50]</text>
<polygon fill="#ffffff" stroke="transparent" points="417,-288.7 417,-310.7 630,-310.7 630,-288.7 417,-288.7"/>
<polygon fill="none" stroke="#000000" points="417,-288.7 417,-310.7 630,-310.7 630,-288.7 417,-288.7"/>
<image xlink:href="../../images/foreignKeys.png" width="11px" height="12px" preserveAspectRatio="xMinYMin meet" x="422" y="-305.7"/>
<text text-anchor="start" x="437" y="-295.8" font-family="Helvetica,sans-Serif" font-size="11.00" fill="#000000">diagnostic_horizon</text>
<polygon fill="none" stroke="#000000" points="630,-288.7 630,-310.7 697,-310.7 697,-288.7 630,-288.7"/>
<text text-anchor="start" x="633" y="-296.4" font-family="Helvetica,sans-Serif" font-size="11.00" fill="#000000">int4[10]</text>
<polygon fill="#ffffff" stroke="transparent" points="417,-266.7 417,-288.7 630,-288.7 630,-266.7 417,-266.7"/>
<polygon fill="none" stroke="#000000" points="417,-266.7 417,-288.7 630,-288.7 630,-266.7 417,-266.7"/>
<image xlink:href="../../images/foreignKeys.png" width="11px" height="12px" preserveAspectRatio="xMinYMin meet" x="422" y="-283.7"/>
<text text-anchor="start" x="437" y="-273.8" font-family="Helvetica,sans-Serif" font-size="11.00" fill="#000000">horizon_notation</text>
<polygon fill="none" stroke="#000000" points="630,-266.7 630,-288.7 697,-288.7 697,-266.7 630,-266.7"/>
<text text-anchor="start" x="633" y="-274.4" font-family="Helvetica,sans-Serif" font-size="11.00" fill="#000000">int4[10]</text>
<polygon fill="#ffffff" stroke="transparent" points="417,-244.7 417,-266.7 630,-266.7 630,-244.7 417,-244.7"/>
<polygon fill="none" stroke="#000000" points="417,-244.7 417,-266.7 630,-266.7 630,-244.7 417,-244.7"/>
<image xlink:href="../../images/foreignKeys.png" width="11px" height="12px" preserveAspectRatio="xMinYMin meet" x="422" y="-261.7"/>
<text text-anchor="start" x="437" y="-251.8" font-family="Helvetica,sans-Serif" font-size="11.00" fill="#000000">id_profile_element</text>
<polygon fill="none" stroke="#000000" points="630,-244.7 630,-266.7 697,-266.7 697,-244.7 630,-244.7"/>
<text text-anchor="start" x="633" y="-252.4" font-family="Helvetica,sans-Serif" font-size="11.00" fill="#000000">int4[10]</text>
<polygon fill="none" stroke="#000000" points="417,-222.7 417,-244.7 630,-244.7 630,-222.7 417,-222.7"/>
<text text-anchor="start" x="437" y="-229.8" font-family="Helvetica,sans-Serif" font-size="11.00" fill="#000000">is_original_classification</text>
<polygon fill="none" stroke="#000000" points="630,-222.7 630,-244.7 697,-244.7 697,-222.7 630,-222.7"/>
<text text-anchor="start" x="633" y="-230.4" font-family="Helvetica,sans-Serif" font-size="11.00" fill="#000000">bool[1]</text>
<polygon fill="none" stroke="#000000" points="417,-200.7 417,-222.7 630,-222.7 630,-200.7 417,-200.7"/>
<text text-anchor="start" x="437" y="-207.8" font-family="Helvetica,sans-Serif" font-size="11.00" fill="#000000">other_horizon_notation</text>
<polygon fill="none" stroke="#000000" points="630,-200.7 630,-222.7 697,-222.7 697,-200.7 630,-200.7"/>
<text text-anchor="start" x="632.9365" y="-208.4" font-family="Helvetica,sans-Serif" font-size="11.00" fill="#000000">varchar[255]</text>
<polygon fill="#ffffff" stroke="transparent" points="417,-181.7 417,-200.7 528,-200.7 528,-181.7 417,-181.7"/>
<polygon fill="none" stroke="#000000" points="417,-181.7 417,-200.7 528,-200.7 528,-181.7 417,-181.7"/>
<text text-anchor="start" x="420" y="-187.8" font-family="Helvetica,sans-Serif" font-size="11.00" fill="#000000">&lt; 3</text>
<polygon fill="#ffffff" stroke="transparent" points="528,-181.7 528,-200.7 630,-200.7 630,-181.7 528,-181.7"/>
<polygon fill="none" stroke="#000000" points="528,-181.7 528,-200.7 630,-200.7 630,-181.7 528,-181.7"/>
<text text-anchor="start" x="620.8862" y="-187.8" font-family="Helvetica,sans-Serif" font-size="11.00" fill="#000000"> &#160;</text>
<polygon fill="#ffffff" stroke="transparent" points="630,-181.7 630,-200.7 697,-200.7 697,-181.7 630,-181.7"/>
<polygon fill="none" stroke="#000000" points="630,-181.7 630,-200.7 697,-200.7 697,-181.7 630,-181.7"/>
<text text-anchor="start" x="678.4053" y="-187.8" font-family="Helvetica,sans-Serif" font-size="11.00" fill="#000000">0 &gt;</text>
<polygon fill="none" stroke="#000000" stroke-width="2" points="416,-180.7 416,-378.7 698,-378.7 698,-180.7 416,-180.7"/>
</a>
</g>
</g>
<!-- codelist -->
<g id="node2" class="node">
<title>codelist</title>
<g id="a_node2"><a xlink:href="../../tables/codelist.html" xlink:title="codelist" target="_top">
<polygon fill="#ffffff" stroke="transparent" points="8,-89.2 8,-238.2 100,-238.2 100,-89.2 8,-89.2"/>
<polygon fill="#f5f5f5" stroke="transparent" points="8,-214.7 8,-237.7 100,-237.7 100,-214.7 8,-214.7"/>
<polygon fill="none" stroke="#000000" points="8,-214.7 8,-237.7 100,-237.7 100,-214.7 8,-214.7"/>
<text text-anchor="start" x="13" y="-223.3" font-family="Helvetica,sans-Serif" font-weight="bold" font-size="11.00" fill="#000000">codelist</text>
<text text-anchor="start" x="65.5219" y="-222.8" font-family="Helvetica,sans-Serif" font-size="11.00" fill="#000000">[table]</text>
<polygon fill="none" stroke="#000000" points="8,-192.7 8,-214.7 100,-214.7 100,-192.7 8,-192.7"/>
<image xlink:href="../../images/primaryKeys.png" width="11px" height="12px" preserveAspectRatio="xMinYMin meet" x="13" y="-209.7"/>
<text text-anchor="start" x="31" y="-199.8" font-family="Helvetica,sans-Serif" font-size="11.00" fill="#000000">id</text>
<polygon fill="#ffffff" stroke="transparent" points="8,-170.7 8,-192.7 100,-192.7 100,-170.7 8,-170.7"/>
<polygon fill="none" stroke="#000000" points="8,-170.7 8,-192.7 100,-192.7 100,-170.7 8,-170.7"/>
<image xlink:href="../../images/foreignKeys.png" width="11px" height="12px" preserveAspectRatio="xMinYMin meet" x="13" y="-187.7"/>
<text text-anchor="start" x="31" y="-177.8" font-family="Helvetica,sans-Serif" font-size="11.00" fill="#000000">parent</text>
<polygon fill="#ffffff" stroke="transparent" points="8,-148.7 8,-170.7 100,-170.7 100,-148.7 8,-148.7"/>
<polygon fill="none" stroke="#000000" points="8,-148.7 8,-170.7 100,-170.7 100,-148.7 8,-148.7"/>
<text text-anchor="start" x="31" y="-155.8" font-family="Helvetica,sans-Serif" font-size="11.00" fill="#000000">localid</text>
<polygon fill="#ffffff" stroke="transparent" points="8,-126.7 8,-148.7 100,-148.7 100,-126.7 8,-126.7"/>
<polygon fill="none" stroke="#000000" points="8,-126.7 8,-148.7 100,-148.7 100,-126.7 8,-126.7"/>
<text text-anchor="start" x="31" y="-133.8" font-family="Helvetica,sans-Serif" font-size="11.00" fill="#000000">collection</text>
<polygon fill="none" stroke="#000000" points="8,-107.7 8,-126.7 100,-126.7 100,-107.7 8,-107.7"/>
<text text-anchor="start" x="11" y="-113.8" font-family="Helvetica,sans-Serif" font-size="11.00" fill="#000000">...</text>
<polygon fill="#ffffff" stroke="transparent" points="8,-88.7 8,-107.7 45,-107.7 45,-88.7 8,-88.7"/>
<polygon fill="none" stroke="#000000" points="8,-88.7 8,-107.7 45,-107.7 45,-88.7 8,-88.7"/>
<text text-anchor="start" x="11" y="-94.8" font-family="Helvetica,sans-Serif" font-size="11.00" fill="#000000">&lt; 1</text>
<polygon fill="#ffffff" stroke="transparent" points="45,-88.7 45,-107.7 65,-107.7 65,-88.7 45,-88.7"/>
<polygon fill="none" stroke="#000000" points="45,-88.7 45,-107.7 65,-107.7 65,-88.7 45,-88.7"/>
<text text-anchor="start" x="55.8862" y="-94.8" font-family="Helvetica,sans-Serif" font-size="11.00" fill="#000000"> &#160;</text>
<polygon fill="#ffffff" stroke="transparent" points="65,-88.7 65,-107.7 100,-107.7 100,-88.7 65,-88.7"/>
<polygon fill="none" stroke="#000000" points="65,-88.7 65,-107.7 100,-107.7 100,-88.7 65,-88.7"/>
<text text-anchor="start" x="75.2904" y="-94.8" font-family="Helvetica,sans-Serif" font-size="11.00" fill="#000000">55 &gt;</text>
</a>
</g>
</g>
<!-- other_horizon_notation_type&#45;&gt;codelist -->
<g id="edge1" class="edge">
<title>other_horizon_notation_type:w&#45;&gt;codelist:e</title>
<path fill="none" stroke="#000000" d="M402.5913,-299.9545C290.0882,-303.9315 239.5854,-352.302 141,-287.7 106.2527,-264.9305 141.5431,-203.7 100,-203.7"/>
<polygon fill="#000000" stroke="#000000" points="409.0012,-299.8413 417.0636,-303.2994 413.0006,-299.7707 417,-299.7 417,-299.7 417,-299.7 413.0006,-299.7707 416.9364,-296.1006 409.0012,-299.8413 409.0012,-299.8413"/>
<ellipse fill="none" stroke="#000000" cx="405.8017" cy="-299.8979" rx="3.2" ry="3.2"/>
</g>
<!-- other_horizon_notation_type&#45;&gt;codelist -->
<g id="edge2" class="edge">
<title>other_horizon_notation_type:w&#45;&gt;codelist:e</title>
<path fill="none" stroke="#000000" d="M402.2036,-277.9278C332.8764,-279.7769 190.6957,-291.5638 141,-263.7 112.8281,-247.9043 132.298,-203.7 100,-203.7"/>
<polygon fill="#000000" stroke="#000000" points="409.0009,-277.8232 417.0554,-281.2996 413.0005,-277.7616 417,-277.7 417,-277.7 417,-277.7 413.0005,-277.7616 416.9446,-274.1004 409.0009,-277.8232 409.0009,-277.8232"/>
<ellipse fill="none" stroke="#000000" cx="405.8013" cy="-277.8725" rx="3.2" ry="3.2"/>
</g>
<!-- profile_element -->
<g id="node3" class="node">
<title>profile_element</title>
<g id="a_node3"><a xlink:href="../../tables/profile_element.html" xlink:title="profile_element" target="_top">
<polygon fill="#ffffff" stroke="transparent" points="149,-38.2 149,-253.2 366,-253.2 366,-38.2 149,-38.2"/>
<polygon fill="#f5f5f5" stroke="transparent" points="149.5,-229.7 149.5,-252.7 366.5,-252.7 366.5,-229.7 149.5,-229.7"/>
<polygon fill="none" stroke="#000000" points="149.5,-229.7 149.5,-252.7 366.5,-252.7 366.5,-229.7 149.5,-229.7"/>
<text text-anchor="start" x="154.5" y="-238.3" font-family="Helvetica,sans-Serif" font-weight="bold" font-size="11.00" fill="#000000">profile_element</text>
<text text-anchor="start" x="331.5437" y="-237.8" font-family="Helvetica,sans-Serif" font-size="11.00" fill="#000000">[table]</text>
<polygon fill="none" stroke="#000000" points="149.5,-207.7 149.5,-229.7 366.5,-229.7 366.5,-207.7 149.5,-207.7"/>
<image xlink:href="../../images/primaryKeys.png" width="11px" height="12px" preserveAspectRatio="xMinYMin meet" x="154.5" y="-224.7"/>
<text text-anchor="start" x="169.5" y="-214.8" font-family="Helvetica,sans-Serif" font-size="11.00" fill="#000000">id</text>
<polygon fill="#ffffff" stroke="transparent" points="149.5,-185.7 149.5,-207.7 366.5,-207.7 366.5,-185.7 149.5,-185.7"/>
<polygon fill="none" stroke="#000000" points="149.5,-185.7 149.5,-207.7 366.5,-207.7 366.5,-185.7 149.5,-185.7"/>
<text text-anchor="start" x="169.5" y="-192.8" font-family="Helvetica,sans-Serif" font-size="11.00" fill="#000000">guidkey</text>
<polygon fill="#ffffff" stroke="transparent" points="149.5,-163.7 149.5,-185.7 366.5,-185.7 366.5,-163.7 149.5,-163.7"/>
<polygon fill="none" stroke="#000000" points="149.5,-163.7 149.5,-185.7 366.5,-185.7 366.5,-163.7 149.5,-163.7"/>
<image xlink:href="../../images/foreignKeys.png" width="11px" height="12px" preserveAspectRatio="xMinYMin meet" x="154.5" y="-180.7"/>
<text text-anchor="start" x="169.5" y="-170.8" font-family="Helvetica,sans-Serif" font-size="11.00" fill="#000000">id_inspire</text>
<polygon fill="#ffffff" stroke="transparent" points="149.5,-141.7 149.5,-163.7 366.5,-163.7 366.5,-141.7 149.5,-141.7"/>
<polygon fill="none" stroke="#000000" points="149.5,-141.7 149.5,-163.7 366.5,-163.7 366.5,-141.7 149.5,-141.7"/>
<image xlink:href="../../images/foreignKeys.png" width="11px" height="12px" preserveAspectRatio="xMinYMin meet" x="154.5" y="-158.7"/>
<text text-anchor="start" x="169.5" y="-148.8" font-family="Helvetica,sans-Serif" font-size="11.00" fill="#000000">is_part_of</text>
<polygon fill="none" stroke="#000000" points="149.5,-119.7 149.5,-141.7 366.5,-141.7 366.5,-119.7 149.5,-119.7"/>
<image xlink:href="../../images/foreignKeys.png" width="11px" height="12px" preserveAspectRatio="xMinYMin meet" x="154.5" y="-136.7"/>
<text text-anchor="start" x="169.5" y="-126.8" font-family="Helvetica,sans-Serif" font-size="11.00" fill="#000000">profile_element_type</text>
<polygon fill="#ffffff" stroke="transparent" points="149.5,-97.7 149.5,-119.7 366.5,-119.7 366.5,-97.7 149.5,-97.7"/>
<polygon fill="none" stroke="#000000" points="149.5,-97.7 149.5,-119.7 366.5,-119.7 366.5,-97.7 149.5,-97.7"/>
<image xlink:href="../../images/foreignKeys.png" width="11px" height="12px" preserveAspectRatio="xMinYMin meet" x="154.5" y="-114.7"/>
<text text-anchor="start" x="169.5" y="-104.8" font-family="Helvetica,sans-Serif" font-size="11.00" fill="#000000">layer_type</text>
<polygon fill="none" stroke="#000000" points="149.5,-75.7 149.5,-97.7 366.5,-97.7 366.5,-75.7 149.5,-75.7"/>
<image xlink:href="../../images/foreignKeys.png" width="11px" height="12px" preserveAspectRatio="xMinYMin meet" x="154.5" y="-92.7"/>
<text text-anchor="start" x="169.5" y="-82.8" font-family="Helvetica,sans-Serif" font-size="11.00" fill="#000000">id_fao_horizon_notation_type</text>
<polygon fill="none" stroke="#000000" points="149.5,-56.7 149.5,-75.7 366.5,-75.7 366.5,-56.7 149.5,-56.7"/>
<text text-anchor="start" x="152.5" y="-62.8" font-family="Helvetica,sans-Serif" font-size="11.00" fill="#000000">...</text>
<polygon fill="#ffffff" stroke="transparent" points="149.5,-37.7 149.5,-56.7 251.5,-56.7 251.5,-37.7 149.5,-37.7"/>
<polygon fill="none" stroke="#000000" points="149.5,-37.7 149.5,-56.7 251.5,-56.7 251.5,-37.7 149.5,-37.7"/>
<text text-anchor="start" x="152.5" y="-43.8" font-family="Helvetica,sans-Serif" font-size="11.00" fill="#000000">&lt; 5</text>
<polygon fill="#ffffff" stroke="transparent" points="251.5,-37.7 251.5,-56.7 304.5,-56.7 304.5,-37.7 251.5,-37.7"/>
<polygon fill="none" stroke="#000000" points="251.5,-37.7 251.5,-56.7 304.5,-56.7 304.5,-37.7 251.5,-37.7"/>
<text text-anchor="start" x="295.3862" y="-43.8" font-family="Helvetica,sans-Serif" font-size="11.00" fill="#000000"> &#160;</text>
<polygon fill="#ffffff" stroke="transparent" points="304.5,-37.7 304.5,-56.7 366.5,-56.7 366.5,-37.7 304.5,-37.7"/>
<polygon fill="none" stroke="#000000" points="304.5,-37.7 304.5,-56.7 366.5,-56.7 366.5,-37.7 304.5,-37.7"/>
<text text-anchor="start" x="347.9053" y="-43.8" font-family="Helvetica,sans-Serif" font-size="11.00" fill="#000000">5 &gt;</text>
</a>
</g>
</g>
<!-- other_horizon_notation_type&#45;&gt;profile_element -->
<g id="edge3" class="edge">
<title>other_horizon_notation_type:w&#45;&gt;profile_element:e</title>
<path fill="none" stroke="#000000" d="M403.1749,-251.4556C389.8807,-241.7369 388.4548,-218.7 366.5,-218.7"/>
<polygon fill="#000000" stroke="#000000" points="409.3523,-253.3521 415.9434,-259.1415 413.1761,-254.526 417,-255.7 417,-255.7 417,-255.7 413.1761,-254.526 418.0566,-252.2585 409.3523,-253.3521 409.3523,-253.3521"/>
<ellipse fill="none" stroke="#000000" cx="406.2932" cy="-252.4129" rx="3.2" ry="3.2"/>
</g>
<!-- profile_element&#45;&gt;codelist -->
<g id="edge4" class="edge">
<title>profile_element:w&#45;&gt;codelist:e</title>
<path fill="none" stroke="#000000" d="M135.6565,-112.782C111.8617,-130.9656 141.6588,-203.7 100,-203.7"/>
<polygon fill="#000000" stroke="#000000" points="141.8266,-110.9627 150.5182,-112.153 145.6633,-109.8313 149.5,-108.7 149.5,-108.7 149.5,-108.7 145.6633,-109.8313 148.4818,-105.247 141.8266,-110.9627 141.8266,-110.9627"/>
<ellipse fill="none" stroke="#000000" cx="138.7573" cy="-111.8678" rx="3.2" ry="3.2"/>
</g>
<!-- profile_element&#45;&gt;codelist -->
<g id="edge5" class="edge">
<title>profile_element:w&#45;&gt;codelist:e</title>
<path fill="none" stroke="#000000" d="M135.5932,-135.4897C117.6686,-151.7303 133.075,-203.7 100,-203.7"/>
<polygon fill="#000000" stroke="#000000" points="141.9361,-133.3052 150.6723,-134.1038 145.718,-132.0026 149.5,-130.7 149.5,-130.7 149.5,-130.7 145.718,-132.0026 148.3277,-127.2962 141.9361,-133.3052 141.9361,-133.3052"/>
<ellipse fill="none" stroke="#000000" cx="138.9105" cy="-134.3473" rx="3.2" ry="3.2"/>
</g>
</g>
</svg>
