<?xml version="1.0" encoding="UTF-8" standalone="no"?>
<!DOCTYPE svg PUBLIC "-//W3C//DTD SVG 1.1//EN"
 "http://www.w3.org/Graphics/SVG/1.1/DTD/svg11.dtd">
<!-- Generated by graphviz version 2.40.1 (20161225.0304)
 -->
<!-- Title: oneDegreeRelationshipsDiagram Pages: 1 -->
<svg width="560pt" height="289pt"
 viewBox="0.00 0.00 560.00 288.70" xmlns="http://www.w3.org/2000/svg" xmlns:xlink="http://www.w3.org/1999/xlink">
<g id="graph0" class="graph" transform="scale(1 1) rotate(0) translate(4 284.7)">
<title>oneDegreeRelationshipsDiagram</title>
<polygon fill="#ffffff" stroke="transparent" points="-4,4 -4,-284.7 556,-284.7 556,4 -4,4"/>
<text text-anchor="middle" x="72.4936" y="-7.3" font-family="Helvetica,sans-Serif" font-size="11.00" fill="#000000">Generated by SchemaSpy</text>
<!-- particle_size_fraction_type -->
<g id="node1" class="node">
<title>particle_size_fraction_type</title>
<g id="a_node1"><a xlink:href="../../tables/particle_size_fraction_type.html" xlink:title="particle_size_fraction_type" target="_top">
<polygon fill="#ffffff" stroke="transparent" points="274,-120.7 274,-276.7 544,-276.7 544,-120.7 274,-120.7"/>
<polygon fill="#f5f5f5" stroke="transparent" points="276,-251.7 276,-274.7 542,-274.7 542,-251.7 276,-251.7"/>
<polygon fill="none" stroke="#000000" points="276,-251.7 276,-274.7 542,-274.7 542,-251.7 276,-251.7"/>
<text text-anchor="start" x="281" y="-260.3" font-family="Helvetica,sans-Serif" font-weight="bold" font-size="11.00" fill="#000000">particle_size_fraction_type</text>
<text text-anchor="start" x="507.0437" y="-259.8" font-family="Helvetica,sans-Serif" font-size="11.00" fill="#000000">[table]</text>
<polygon fill="none" stroke="#000000" points="276,-229.7 276,-251.7 476,-251.7 476,-229.7 276,-229.7"/>
<image xlink:href="../../images/primaryKeys.png" width="11px" height="12px" preserveAspectRatio="xMinYMin meet" x="281" y="-246.7"/>
<text text-anchor="start" x="296" y="-236.8" font-family="Helvetica,sans-Serif" font-size="11.00" fill="#000000">id</text>
<polygon fill="none" stroke="#000000" points="476,-229.7 476,-251.7 542,-251.7 542,-229.7 476,-229.7"/>
<text text-anchor="start" x="479" y="-237.4" font-family="Helvetica,sans-Serif" font-size="11.00" fill="#000000">int4[10]</text>
<polygon fill="#ffffff" stroke="transparent" points="276,-207.7 276,-229.7 476,-229.7 476,-207.7 276,-207.7"/>
<polygon fill="none" stroke="#000000" points="276,-207.7 276,-229.7 476,-229.7 476,-207.7 276,-207.7"/>
<image xlink:href="../../images/foreignKeys.png" width="11px" height="12px" preserveAspectRatio="xMinYMin meet" x="281" y="-224.7"/>
<text text-anchor="start" x="296" y="-214.8" font-family="Helvetica,sans-Serif" font-size="11.00" fill="#000000">id_profile_element</text>
<polygon fill="none" stroke="#000000" points="476,-207.7 476,-229.7 542,-229.7 542,-207.7 476,-207.7"/>
<text text-anchor="start" x="479" y="-215.4" font-family="Helvetica,sans-Serif" font-size="11.00" fill="#000000">int4[10]</text>
<polygon fill="none" stroke="#000000" points="276,-185.7 276,-207.7 476,-207.7 476,-185.7 276,-185.7"/>
<text text-anchor="start" x="296" y="-192.8" font-family="Helvetica,sans-Serif" font-size="11.00" fill="#000000">fraction_content</text>
<polygon fill="none" stroke="#000000" points="476,-185.7 476,-207.7 542,-207.7 542,-185.7 476,-185.7"/>
<text text-anchor="start" x="478.7352" y="-193.4" font-family="Helvetica,sans-Serif" font-size="11.00" fill="#000000">float8[17,17]</text>
<polygon fill="#ffffff" stroke="transparent" points="276,-163.7 276,-185.7 476,-185.7 476,-163.7 276,-163.7"/>
<polygon fill="none" stroke="#000000" points="276,-163.7 276,-185.7 476,-185.7 476,-163.7 276,-163.7"/>
<text text-anchor="start" x="296" y="-170.8" font-family="Helvetica,sans-Serif" font-size="11.00" fill="#000000">particle_size_lower</text>
<polygon fill="none" stroke="#000000" points="476,-163.7 476,-185.7 542,-185.7 542,-163.7 476,-163.7"/>
<text text-anchor="start" x="478.7352" y="-171.4" font-family="Helvetica,sans-Serif" font-size="11.00" fill="#000000">float8[17,17]</text>
<polygon fill="#ffffff" stroke="transparent" points="276,-141.7 276,-163.7 476,-163.7 476,-141.7 276,-141.7"/>
<polygon fill="none" stroke="#000000" points="276,-141.7 276,-163.7 476,-163.7 476,-141.7 276,-141.7"/>
<text text-anchor="start" x="296" y="-148.8" font-family="Helvetica,sans-Serif" font-size="11.00" fill="#000000">particle_size_upper</text>
<polygon fill="none" stroke="#000000" points="476,-141.7 476,-163.7 542,-163.7 542,-141.7 476,-141.7"/>
<text text-anchor="start" x="478.7352" y="-149.4" font-family="Helvetica,sans-Serif" font-size="11.00" fill="#000000">float8[17,17]</text>
<polygon fill="#ffffff" stroke="transparent" points="276,-122.7 276,-141.7 380,-141.7 380,-122.7 276,-122.7"/>
<polygon fill="none" stroke="#000000" points="276,-122.7 276,-141.7 380,-141.7 380,-122.7 276,-122.7"/>
<text text-anchor="start" x="279" y="-128.8" font-family="Helvetica,sans-Serif" font-size="11.00" fill="#000000">&lt; 1</text>
<polygon fill="#ffffff" stroke="transparent" points="380,-122.7 380,-141.7 476,-141.7 476,-122.7 380,-122.7"/>
<polygon fill="none" stroke="#000000" points="380,-122.7 380,-141.7 476,-141.7 476,-122.7 380,-122.7"/>
<text text-anchor="start" x="466.8862" y="-128.8" font-family="Helvetica,sans-Serif" font-size="11.00" fill="#000000"> &#160;</text>
<polygon fill="#ffffff" stroke="transparent" points="476,-122.7 476,-141.7 542,-141.7 542,-122.7 476,-122.7"/>
<polygon fill="none" stroke="#000000" points="476,-122.7 476,-141.7 542,-141.7 542,-122.7 476,-122.7"/>
<text text-anchor="start" x="523.4053" y="-128.8" font-family="Helvetica,sans-Serif" font-size="11.00" fill="#000000">0 &gt;</text>
<polygon fill="none" stroke="#000000" stroke-width="2" points="275,-121.7 275,-275.7 543,-275.7 543,-121.7 275,-121.7"/>
</a>
</g>
</g>
<!-- profile_element -->
<g id="node2" class="node">
<title>profile_element</title>
<g id="a_node2"><a xlink:href="../../tables/profile_element.html" xlink:title="profile_element" target="_top">
<polygon fill="#ffffff" stroke="transparent" points="8,-38.2 8,-253.2 225,-253.2 225,-38.2 8,-38.2"/>
<polygon fill="#f5f5f5" stroke="transparent" points="8.5,-229.7 8.5,-252.7 225.5,-252.7 225.5,-229.7 8.5,-229.7"/>
<polygon fill="none" stroke="#000000" points="8.5,-229.7 8.5,-252.7 225.5,-252.7 225.5,-229.7 8.5,-229.7"/>
<text text-anchor="start" x="13.5" y="-238.3" font-family="Helvetica,sans-Serif" font-weight="bold" font-size="11.00" fill="#000000">profile_element</text>
<text text-anchor="start" x="190.5437" y="-237.8" font-family="Helvetica,sans-Serif" font-size="11.00" fill="#000000">[table]</text>
<polygon fill="none" stroke="#000000" points="8.5,-207.7 8.5,-229.7 225.5,-229.7 225.5,-207.7 8.5,-207.7"/>
<image xlink:href="../../images/primaryKeys.png" width="11px" height="12px" preserveAspectRatio="xMinYMin meet" x="13.5" y="-224.7"/>
<text text-anchor="start" x="28.5" y="-214.8" font-family="Helvetica,sans-Serif" font-size="11.00" fill="#000000">id</text>
<polygon fill="#ffffff" stroke="transparent" points="8.5,-185.7 8.5,-207.7 225.5,-207.7 225.5,-185.7 8.5,-185.7"/>
<polygon fill="none" stroke="#000000" points="8.5,-185.7 8.5,-207.7 225.5,-207.7 225.5,-185.7 8.5,-185.7"/>
<text text-anchor="start" x="28.5" y="-192.8" font-family="Helvetica,sans-Serif" font-size="11.00" fill="#000000">guidkey</text>
<polygon fill="#ffffff" stroke="transparent" points="8.5,-163.7 8.5,-185.7 225.5,-185.7 225.5,-163.7 8.5,-163.7"/>
<polygon fill="none" stroke="#000000" points="8.5,-163.7 8.5,-185.7 225.5,-185.7 225.5,-163.7 8.5,-163.7"/>
<image xlink:href="../../images/foreignKeys.png" width="11px" height="12px" preserveAspectRatio="xMinYMin meet" x="13.5" y="-180.7"/>
<text text-anchor="start" x="28.5" y="-170.8" font-family="Helvetica,sans-Serif" font-size="11.00" fill="#000000">id_inspire</text>
<polygon fill="#ffffff" stroke="transparent" points="8.5,-141.7 8.5,-163.7 225.5,-163.7 225.5,-141.7 8.5,-141.7"/>
<polygon fill="none" stroke="#000000" points="8.5,-141.7 8.5,-163.7 225.5,-163.7 225.5,-141.7 8.5,-141.7"/>
<image xlink:href="../../images/foreignKeys.png" width="11px" height="12px" preserveAspectRatio="xMinYMin meet" x="13.5" y="-158.7"/>
<text text-anchor="start" x="28.5" y="-148.8" font-family="Helvetica,sans-Serif" font-size="11.00" fill="#000000">is_part_of</text>
<polygon fill="none" stroke="#000000" points="8.5,-119.7 8.5,-141.7 225.5,-141.7 225.5,-119.7 8.5,-119.7"/>
<image xlink:href="../../images/foreignKeys.png" width="11px" height="12px" preserveAspectRatio="xMinYMin meet" x="13.5" y="-136.7"/>
<text text-anchor="start" x="28.5" y="-126.8" font-family="Helvetica,sans-Serif" font-size="11.00" fill="#000000">profile_element_type</text>
<polygon fill="#ffffff" stroke="transparent" points="8.5,-97.7 8.5,-119.7 225.5,-119.7 225.5,-97.7 8.5,-97.7"/>
<polygon fill="none" stroke="#000000" points="8.5,-97.7 8.5,-119.7 225.5,-119.7 225.5,-97.7 8.5,-97.7"/>
<image xlink:href="../../images/foreignKeys.png" width="11px" height="12px" preserveAspectRatio="xMinYMin meet" x="13.5" y="-114.7"/>
<text text-anchor="start" x="28.5" y="-104.8" font-family="Helvetica,sans-Serif" font-size="11.00" fill="#000000">layer_type</text>
<polygon fill="none" stroke="#000000" points="8.5,-75.7 8.5,-97.7 225.5,-97.7 225.5,-75.7 8.5,-75.7"/>
<image xlink:href="../../images/foreignKeys.png" width="11px" height="12px" preserveAspectRatio="xMinYMin meet" x="13.5" y="-92.7"/>
<text text-anchor="start" x="28.5" y="-82.8" font-family="Helvetica,sans-Serif" font-size="11.00" fill="#000000">id_fao_horizon_notation_type</text>
<polygon fill="none" stroke="#000000" points="8.5,-56.7 8.5,-75.7 225.5,-75.7 225.5,-56.7 8.5,-56.7"/>
<text text-anchor="start" x="11.5" y="-62.8" font-family="Helvetica,sans-Serif" font-size="11.00" fill="#000000">...</text>
<polygon fill="#ffffff" stroke="transparent" points="8.5,-37.7 8.5,-56.7 110.5,-56.7 110.5,-37.7 8.5,-37.7"/>
<polygon fill="none" stroke="#000000" points="8.5,-37.7 8.5,-56.7 110.5,-56.7 110.5,-37.7 8.5,-37.7"/>
<text text-anchor="start" x="11.5" y="-43.8" font-family="Helvetica,sans-Serif" font-size="11.00" fill="#000000">&lt; 5</text>
<polygon fill="#ffffff" stroke="transparent" points="110.5,-37.7 110.5,-56.7 163.5,-56.7 163.5,-37.7 110.5,-37.7"/>
<polygon fill="none" stroke="#000000" points="110.5,-37.7 110.5,-56.7 163.5,-56.7 163.5,-37.7 110.5,-37.7"/>
<text text-anchor="start" x="154.3862" y="-43.8" font-family="Helvetica,sans-Serif" font-size="11.00" fill="#000000"> &#160;</text>
<polygon fill="#ffffff" stroke="transparent" points="163.5,-37.7 163.5,-56.7 225.5,-56.7 225.5,-37.7 163.5,-37.7"/>
<polygon fill="none" stroke="#000000" points="163.5,-37.7 163.5,-56.7 225.5,-56.7 225.5,-37.7 163.5,-37.7"/>
<text text-anchor="start" x="206.9053" y="-43.8" font-family="Helvetica,sans-Serif" font-size="11.00" fill="#000000">5 &gt;</text>
</a>
</g>
</g>
<!-- particle_size_fraction_type&#45;&gt;profile_element -->
<g id="edge1" class="edge">
<title>particle_size_fraction_type:w&#45;&gt;profile_element:e</title>
<path fill="none" stroke="#000000" d="M261.4203,-218.7C249.5435,-218.7 242.158,-218.7 225.5,-218.7"/>
<polygon fill="#000000" stroke="#000000" points="268,-218.7001 276,-222.3 272,-218.7 276,-218.7 276,-218.7 276,-218.7 272,-218.7 276,-215.1 268,-218.7001 268,-218.7001"/>
<ellipse fill="none" stroke="#000000" cx="264.8" cy="-218.7001" rx="3.2" ry="3.2"/>
</g>
</g>
</svg>
