<?xml version="1.0" encoding="UTF-8" standalone="no"?>
<!DOCTYPE svg PUBLIC "-//W3C//DTD SVG 1.1//EN"
 "http://www.w3.org/Graphics/SVG/1.1/DTD/svg11.dtd">
<!-- Generated by graphviz version 2.40.1 (20161225.0304)
 -->
<!-- Title: oneDegreeRelationshipsDiagram Pages: 1 -->
<svg width="430pt" height="422pt"
 viewBox="0.00 0.00 430.00 422.20" xmlns="http://www.w3.org/2000/svg" xmlns:xlink="http://www.w3.org/1999/xlink">
<g id="graph0" class="graph" transform="scale(1 1) rotate(0) translate(4 418.2)">
<title>oneDegreeRelationshipsDiagram</title>
<polygon fill="#ffffff" stroke="transparent" points="-4,4 -4,-418.2 426,-418.2 426,4 -4,4"/>
<text text-anchor="middle" x="72.4936" y="-7.3" font-family="Helvetica,sans-Serif" font-size="11.00" fill="#000000">Generated by SchemaSpy</text>
<!-- datastream -->
<g id="node1" class="node">
<title>datastream</title>
<g id="a_node1"><a xlink:href="../../tables/datastream.html" xlink:title="datastream" target="_top">
<polygon fill="#ffffff" stroke="transparent" points="225,-38.2 225,-410.2 414,-410.2 414,-38.2 225,-38.2"/>
<polygon fill="#f5f5f5" stroke="transparent" points="225.5,-387.2 225.5,-410.2 414.5,-410.2 414.5,-387.2 225.5,-387.2"/>
<polygon fill="none" stroke="#000000" points="225.5,-387.2 225.5,-410.2 414.5,-410.2 414.5,-387.2 225.5,-387.2"/>
<text text-anchor="start" x="230.5" y="-395.8" font-family="Helvetica,sans-Serif" font-weight="bold" font-size="11.00" fill="#000000">datastream</text>
<text text-anchor="start" x="379.5437" y="-395.3" font-family="Helvetica,sans-Serif" font-size="11.00" fill="#000000">[table]</text>
<polygon fill="none" stroke="#000000" points="225.5,-365.2 225.5,-387.2 414.5,-387.2 414.5,-365.2 225.5,-365.2"/>
<image xlink:href="../../images/primaryKeys.png" width="11px" height="12px" preserveAspectRatio="xMinYMin meet" x="230.5" y="-382.2"/>
<text text-anchor="start" x="245.5" y="-372.3" font-family="Helvetica,sans-Serif" font-size="11.00" fill="#000000">id</text>
<polygon fill="#ffffff" stroke="transparent" points="225.5,-343.2 225.5,-365.2 414.5,-365.2 414.5,-343.2 225.5,-343.2"/>
<polygon fill="none" stroke="#000000" points="225.5,-343.2 225.5,-365.2 414.5,-365.2 414.5,-343.2 225.5,-343.2"/>
<text text-anchor="start" x="245.5" y="-350.3" font-family="Helvetica,sans-Serif" font-size="11.00" fill="#000000">guidkey</text>
<polygon fill="#ffffff" stroke="transparent" points="225.5,-321.2 225.5,-343.2 414.5,-343.2 414.5,-321.2 225.5,-321.2"/>
<polygon fill="none" stroke="#000000" points="225.5,-321.2 225.5,-343.2 414.5,-343.2 414.5,-321.2 225.5,-321.2"/>
<image xlink:href="../../images/foreignKeys.png" width="11px" height="12px" preserveAspectRatio="xMinYMin meet" x="230.5" y="-338.2"/>
<text text-anchor="start" x="245.5" y="-328.3" font-family="Helvetica,sans-Serif" font-size="11.00" fill="#000000">id_soil_site</text>
<polygon fill="#ffffff" stroke="transparent" points="225.5,-299.2 225.5,-321.2 414.5,-321.2 414.5,-299.2 225.5,-299.2"/>
<polygon fill="none" stroke="#000000" points="225.5,-299.2 225.5,-321.2 414.5,-321.2 414.5,-299.2 225.5,-299.2"/>
<image xlink:href="../../images/foreignKeys.png" width="11px" height="12px" preserveAspectRatio="xMinYMin meet" x="230.5" y="-316.2"/>
<text text-anchor="start" x="245.5" y="-306.3" font-family="Helvetica,sans-Serif" font-size="11.00" fill="#000000">id_soil_plot</text>
<polygon fill="#ffffff" stroke="transparent" points="225.5,-277.2 225.5,-299.2 414.5,-299.2 414.5,-277.2 225.5,-277.2"/>
<polygon fill="none" stroke="#000000" points="225.5,-277.2 225.5,-299.2 414.5,-299.2 414.5,-277.2 225.5,-277.2"/>
<image xlink:href="../../images/foreignKeys.png" width="11px" height="12px" preserveAspectRatio="xMinYMin meet" x="230.5" y="-294.2"/>
<text text-anchor="start" x="245.5" y="-284.3" font-family="Helvetica,sans-Serif" font-size="11.00" fill="#000000">id_soil_profile</text>
<polygon fill="#ffffff" stroke="transparent" points="225.5,-255.2 225.5,-277.2 414.5,-277.2 414.5,-255.2 225.5,-255.2"/>
<polygon fill="none" stroke="#000000" points="225.5,-255.2 225.5,-277.2 414.5,-277.2 414.5,-255.2 225.5,-255.2"/>
<image xlink:href="../../images/foreignKeys.png" width="11px" height="12px" preserveAspectRatio="xMinYMin meet" x="230.5" y="-272.2"/>
<text text-anchor="start" x="245.5" y="-262.3" font-family="Helvetica,sans-Serif" font-size="11.00" fill="#000000">id_profile_element</text>
<polygon fill="#ffffff" stroke="transparent" points="225.5,-233.2 225.5,-255.2 414.5,-255.2 414.5,-233.2 225.5,-233.2"/>
<polygon fill="none" stroke="#000000" points="225.5,-233.2 225.5,-255.2 414.5,-255.2 414.5,-233.2 225.5,-233.2"/>
<image xlink:href="../../images/foreignKeys.png" width="11px" height="12px" preserveAspectRatio="xMinYMin meet" x="230.5" y="-250.2"/>
<text text-anchor="start" x="245.5" y="-240.3" font-family="Helvetica,sans-Serif" font-size="11.00" fill="#000000">id_soil_derived_object</text>
<polygon fill="none" stroke="#000000" points="225.5,-211.2 225.5,-233.2 414.5,-233.2 414.5,-211.2 225.5,-211.2"/>
<image xlink:href="../../images/foreignKeys.png" width="11px" height="12px" preserveAspectRatio="xMinYMin meet" x="230.5" y="-228.2"/>
<text text-anchor="start" x="245.5" y="-218.3" font-family="Helvetica,sans-Serif" font-size="11.00" fill="#000000">id_sensor</text>
<polygon fill="#ffffff" stroke="transparent" points="225.5,-189.2 225.5,-211.2 414.5,-211.2 414.5,-189.2 225.5,-189.2"/>
<polygon fill="none" stroke="#000000" points="225.5,-189.2 225.5,-211.2 414.5,-211.2 414.5,-189.2 225.5,-189.2"/>
<image xlink:href="../../images/foreignKeys.png" width="11px" height="12px" preserveAspectRatio="xMinYMin meet" x="230.5" y="-206.2"/>
<text text-anchor="start" x="245.5" y="-196.3" font-family="Helvetica,sans-Serif" font-size="11.00" fill="#000000">id_observed_property</text>
<polygon fill="#ffffff" stroke="transparent" points="225.5,-167.2 225.5,-189.2 414.5,-189.2 414.5,-167.2 225.5,-167.2"/>
<polygon fill="none" stroke="#000000" points="225.5,-167.2 225.5,-189.2 414.5,-189.2 414.5,-167.2 225.5,-167.2"/>
<image xlink:href="../../images/foreignKeys.png" width="11px" height="12px" preserveAspectRatio="xMinYMin meet" x="230.5" y="-184.2"/>
<text text-anchor="start" x="245.5" y="-174.3" font-family="Helvetica,sans-Serif" font-size="11.00" fill="#000000">id_process</text>
<polygon fill="none" stroke="#000000" points="225.5,-145.2 225.5,-167.2 414.5,-167.2 414.5,-145.2 225.5,-145.2"/>
<image xlink:href="../../images/foreignKeys.png" width="11px" height="12px" preserveAspectRatio="xMinYMin meet" x="230.5" y="-162.2"/>
<text text-anchor="start" x="245.5" y="-152.3" font-family="Helvetica,sans-Serif" font-size="11.00" fill="#000000">id_equipment</text>
<polygon fill="#ffffff" stroke="transparent" points="225.5,-123.2 225.5,-145.2 414.5,-145.2 414.5,-123.2 225.5,-123.2"/>
<polygon fill="none" stroke="#000000" points="225.5,-123.2 225.5,-145.2 414.5,-145.2 414.5,-123.2 225.5,-123.2"/>
<image xlink:href="../../images/foreignKeys.png" width="11px" height="12px" preserveAspectRatio="xMinYMin meet" x="230.5" y="-140.2"/>
<text text-anchor="start" x="245.5" y="-130.3" font-family="Helvetica,sans-Serif" font-size="11.00" fill="#000000">id_preparation_process</text>
<polygon fill="none" stroke="#000000" points="225.5,-101.2 225.5,-123.2 414.5,-123.2 414.5,-101.2 225.5,-101.2"/>
<image xlink:href="../../images/foreignKeys.png" width="11px" height="12px" preserveAspectRatio="xMinYMin meet" x="230.5" y="-118.2"/>
<text text-anchor="start" x="245.5" y="-108.3" font-family="Helvetica,sans-Serif" font-size="11.00" fill="#000000">id_datastream_collection</text>
<polygon fill="#ffffff" stroke="transparent" points="225.5,-79.2 225.5,-101.2 414.5,-101.2 414.5,-79.2 225.5,-79.2"/>
<polygon fill="none" stroke="#000000" points="225.5,-79.2 225.5,-101.2 414.5,-101.2 414.5,-79.2 225.5,-79.2"/>
<text text-anchor="start" x="245.5" y="-86.3" font-family="Helvetica,sans-Serif" font-size="11.00" fill="#000000">begin_result_time</text>
<polygon fill="#ffffff" stroke="transparent" points="225.5,-57.2 225.5,-79.2 414.5,-79.2 414.5,-57.2 225.5,-57.2"/>
<polygon fill="none" stroke="#000000" points="225.5,-57.2 225.5,-79.2 414.5,-79.2 414.5,-57.2 225.5,-57.2"/>
<text text-anchor="start" x="245.5" y="-64.3" font-family="Helvetica,sans-Serif" font-size="11.00" fill="#000000">end_result_time</text>
<polygon fill="#ffffff" stroke="transparent" points="225.5,-38.2 225.5,-57.2 316.5,-57.2 316.5,-38.2 225.5,-38.2"/>
<polygon fill="none" stroke="#000000" points="225.5,-38.2 225.5,-57.2 316.5,-57.2 316.5,-38.2 225.5,-38.2"/>
<text text-anchor="start" x="228.5" y="-44.3" font-family="Helvetica,sans-Serif" font-size="11.00" fill="#000000">&lt; 16</text>
<polygon fill="#ffffff" stroke="transparent" points="316.5,-38.2 316.5,-57.2 360.5,-57.2 360.5,-38.2 316.5,-38.2"/>
<polygon fill="none" stroke="#000000" points="316.5,-38.2 316.5,-57.2 360.5,-57.2 360.5,-38.2 316.5,-38.2"/>
<text text-anchor="start" x="351.3862" y="-44.3" font-family="Helvetica,sans-Serif" font-size="11.00" fill="#000000"> &#160;</text>
<polygon fill="#ffffff" stroke="transparent" points="360.5,-38.2 360.5,-57.2 414.5,-57.2 414.5,-38.2 360.5,-38.2"/>
<polygon fill="none" stroke="#000000" points="360.5,-38.2 360.5,-57.2 414.5,-57.2 414.5,-38.2 360.5,-38.2"/>
<text text-anchor="start" x="395.9053" y="-44.3" font-family="Helvetica,sans-Serif" font-size="11.00" fill="#000000">1 &gt;</text>
</a>
</g>
</g>
<!-- sensor -->
<g id="node2" class="node">
<title>sensor</title>
<g id="a_node2"><a xlink:href="../../tables/sensor.html" xlink:title="sensor" target="_top">
<polygon fill="#ffffff" stroke="transparent" points="8,-124.2 8,-258.2 176,-258.2 176,-124.2 8,-124.2"/>
<polygon fill="#f5f5f5" stroke="transparent" points="10,-233.2 10,-256.2 174,-256.2 174,-233.2 10,-233.2"/>
<polygon fill="none" stroke="#000000" points="10,-233.2 10,-256.2 174,-256.2 174,-233.2 10,-233.2"/>
<text text-anchor="start" x="15" y="-241.8" font-family="Helvetica,sans-Serif" font-weight="bold" font-size="11.00" fill="#000000">sensor</text>
<text text-anchor="start" x="139.0437" y="-241.3" font-family="Helvetica,sans-Serif" font-size="11.00" fill="#000000">[table]</text>
<polygon fill="none" stroke="#000000" points="10,-211.2 10,-233.2 107,-233.2 107,-211.2 10,-211.2"/>
<image xlink:href="../../images/primaryKeys.png" width="11px" height="12px" preserveAspectRatio="xMinYMin meet" x="15" y="-228.2"/>
<text text-anchor="start" x="30" y="-218.3" font-family="Helvetica,sans-Serif" font-size="11.00" fill="#000000">id</text>
<polygon fill="none" stroke="#000000" points="107,-211.2 107,-233.2 174,-233.2 174,-211.2 107,-211.2"/>
<text text-anchor="start" x="110" y="-218.9" font-family="Helvetica,sans-Serif" font-size="11.00" fill="#000000">int4[10]</text>
<polygon fill="#ffffff" stroke="transparent" points="10,-189.2 10,-211.2 107,-211.2 107,-189.2 10,-189.2"/>
<polygon fill="none" stroke="#000000" points="10,-189.2 10,-211.2 107,-211.2 107,-189.2 10,-189.2"/>
<text text-anchor="start" x="30" y="-196.3" font-family="Helvetica,sans-Serif" font-size="11.00" fill="#000000">guidkey</text>
<polygon fill="none" stroke="#000000" points="107,-189.2 107,-211.2 174,-211.2 174,-189.2 107,-189.2"/>
<text text-anchor="start" x="110" y="-196.9" font-family="Helvetica,sans-Serif" font-size="11.00" fill="#000000">varchar[50]</text>
<polygon fill="#ffffff" stroke="transparent" points="10,-167.2 10,-189.2 107,-189.2 107,-167.2 10,-167.2"/>
<polygon fill="none" stroke="#000000" points="10,-167.2 10,-189.2 107,-189.2 107,-167.2 10,-167.2"/>
<text text-anchor="start" x="30" y="-174.3" font-family="Helvetica,sans-Serif" font-size="11.00" fill="#000000">name</text>
<polygon fill="none" stroke="#000000" points="107,-167.2 107,-189.2 174,-189.2 174,-167.2 107,-167.2"/>
<text text-anchor="start" x="109.9365" y="-174.9" font-family="Helvetica,sans-Serif" font-size="11.00" fill="#000000">varchar[100]</text>
<polygon fill="none" stroke="#000000" points="10,-145.2 10,-167.2 107,-167.2 107,-145.2 10,-145.2"/>
<text text-anchor="start" x="30" y="-152.3" font-family="Helvetica,sans-Serif" font-size="11.00" fill="#000000">description</text>
<polygon fill="none" stroke="#000000" points="107,-145.2 107,-167.2 174,-167.2 174,-145.2 107,-145.2"/>
<text text-anchor="start" x="109.9365" y="-152.9" font-family="Helvetica,sans-Serif" font-size="11.00" fill="#000000">varchar[200]</text>
<polygon fill="#ffffff" stroke="transparent" points="10,-126.2 10,-145.2 63,-145.2 63,-126.2 10,-126.2"/>
<polygon fill="none" stroke="#000000" points="10,-126.2 10,-145.2 63,-145.2 63,-126.2 10,-126.2"/>
<text text-anchor="start" x="13" y="-132.3" font-family="Helvetica,sans-Serif" font-size="11.00" fill="#000000">&lt; 0</text>
<polygon fill="#ffffff" stroke="transparent" points="63,-126.2 63,-145.2 107,-145.2 107,-126.2 63,-126.2"/>
<polygon fill="none" stroke="#000000" points="63,-126.2 63,-145.2 107,-145.2 107,-126.2 63,-126.2"/>
<text text-anchor="start" x="97.8862" y="-132.3" font-family="Helvetica,sans-Serif" font-size="11.00" fill="#000000"> &#160;</text>
<polygon fill="#ffffff" stroke="transparent" points="107,-126.2 107,-145.2 174,-145.2 174,-126.2 107,-126.2"/>
<polygon fill="none" stroke="#000000" points="107,-126.2 107,-145.2 174,-145.2 174,-126.2 107,-126.2"/>
<text text-anchor="start" x="155.4053" y="-132.3" font-family="Helvetica,sans-Serif" font-size="11.00" fill="#000000">1 &gt;</text>
<polygon fill="none" stroke="#000000" stroke-width="2" points="9,-125.2 9,-257.2 175,-257.2 175,-125.2 9,-125.2"/>
</a>
</g>
</g>
<!-- datastream&#45;&gt;sensor -->
<g id="edge1" class="edge">
<title>datastream:w&#45;&gt;sensor:e</title>
<path fill="none" stroke="#000000" d="M211.0156,-222.2C198.6771,-222.2 191.1667,-222.2 174,-222.2"/>
<polygon fill="#000000" stroke="#000000" points="217.5,-222.2001 225.5,-225.8 221.5,-222.2 225.5,-222.2 225.5,-222.2 225.5,-222.2 221.5,-222.2 225.5,-218.6 217.5,-222.2001 217.5,-222.2001"/>
<ellipse fill="none" stroke="#000000" cx="214.3" cy="-222.2001" rx="3.2" ry="3.2"/>
</g>
</g>
</svg>
