<?xml version="1.0" encoding="UTF-8" standalone="no"?>
<!DOCTYPE svg PUBLIC "-//W3C//DTD SVG 1.1//EN"
 "http://www.w3.org/Graphics/SVG/1.1/DTD/svg11.dtd">
<!-- Generated by graphviz version 2.40.1 (20161225.0304)
 -->
<!-- Title: oneDegreeRelationshipsDiagram Pages: 1 -->
<svg width="1062pt" height="534pt"
 viewBox="0.00 0.00 1062.00 534.20" xmlns="http://www.w3.org/2000/svg" xmlns:xlink="http://www.w3.org/1999/xlink">
<g id="graph0" class="graph" transform="scale(1 1) rotate(0) translate(4 530.2)">
<title>oneDegreeRelationshipsDiagram</title>
<polygon fill="#ffffff" stroke="transparent" points="-4,4 -4,-530.2 1058,-530.2 1058,4 -4,4"/>
<text text-anchor="middle" x="72.4936" y="-7.3" font-family="Helvetica,sans-Serif" font-size="11.00" fill="#000000">Generated by SchemaSpy</text>
<!-- datastream -->
<g id="node1" class="node">
<title>datastream</title>
<g id="a_node1"><a xlink:href="../../tables/datastream.html" xlink:title="datastream" target="_top">
<polygon fill="#ffffff" stroke="transparent" points="857,-150.2 857,-522.2 1046,-522.2 1046,-150.2 857,-150.2"/>
<polygon fill="#f5f5f5" stroke="transparent" points="857.5,-499.2 857.5,-522.2 1046.5,-522.2 1046.5,-499.2 857.5,-499.2"/>
<polygon fill="none" stroke="#000000" points="857.5,-499.2 857.5,-522.2 1046.5,-522.2 1046.5,-499.2 857.5,-499.2"/>
<text text-anchor="start" x="862.5" y="-507.8" font-family="Helvetica,sans-Serif" font-weight="bold" font-size="11.00" fill="#000000">datastream</text>
<text text-anchor="start" x="1011.5437" y="-507.3" font-family="Helvetica,sans-Serif" font-size="11.00" fill="#000000">[table]</text>
<polygon fill="none" stroke="#000000" points="857.5,-477.2 857.5,-499.2 1046.5,-499.2 1046.5,-477.2 857.5,-477.2"/>
<image xlink:href="../../images/primaryKeys.png" width="11px" height="12px" preserveAspectRatio="xMinYMin meet" x="862.5" y="-494.2"/>
<text text-anchor="start" x="877.5" y="-484.3" font-family="Helvetica,sans-Serif" font-size="11.00" fill="#000000">id</text>
<polygon fill="#ffffff" stroke="transparent" points="857.5,-455.2 857.5,-477.2 1046.5,-477.2 1046.5,-455.2 857.5,-455.2"/>
<polygon fill="none" stroke="#000000" points="857.5,-455.2 857.5,-477.2 1046.5,-477.2 1046.5,-455.2 857.5,-455.2"/>
<text text-anchor="start" x="877.5" y="-462.3" font-family="Helvetica,sans-Serif" font-size="11.00" fill="#000000">guidkey</text>
<polygon fill="#ffffff" stroke="transparent" points="857.5,-433.2 857.5,-455.2 1046.5,-455.2 1046.5,-433.2 857.5,-433.2"/>
<polygon fill="none" stroke="#000000" points="857.5,-433.2 857.5,-455.2 1046.5,-455.2 1046.5,-433.2 857.5,-433.2"/>
<image xlink:href="../../images/foreignKeys.png" width="11px" height="12px" preserveAspectRatio="xMinYMin meet" x="862.5" y="-450.2"/>
<text text-anchor="start" x="877.5" y="-440.3" font-family="Helvetica,sans-Serif" font-size="11.00" fill="#000000">id_soil_site</text>
<polygon fill="#ffffff" stroke="transparent" points="857.5,-411.2 857.5,-433.2 1046.5,-433.2 1046.5,-411.2 857.5,-411.2"/>
<polygon fill="none" stroke="#000000" points="857.5,-411.2 857.5,-433.2 1046.5,-433.2 1046.5,-411.2 857.5,-411.2"/>
<image xlink:href="../../images/foreignKeys.png" width="11px" height="12px" preserveAspectRatio="xMinYMin meet" x="862.5" y="-428.2"/>
<text text-anchor="start" x="877.5" y="-418.3" font-family="Helvetica,sans-Serif" font-size="11.00" fill="#000000">id_soil_plot</text>
<polygon fill="#ffffff" stroke="transparent" points="857.5,-389.2 857.5,-411.2 1046.5,-411.2 1046.5,-389.2 857.5,-389.2"/>
<polygon fill="none" stroke="#000000" points="857.5,-389.2 857.5,-411.2 1046.5,-411.2 1046.5,-389.2 857.5,-389.2"/>
<image xlink:href="../../images/foreignKeys.png" width="11px" height="12px" preserveAspectRatio="xMinYMin meet" x="862.5" y="-406.2"/>
<text text-anchor="start" x="877.5" y="-396.3" font-family="Helvetica,sans-Serif" font-size="11.00" fill="#000000">id_soil_profile</text>
<polygon fill="#ffffff" stroke="transparent" points="857.5,-367.2 857.5,-389.2 1046.5,-389.2 1046.5,-367.2 857.5,-367.2"/>
<polygon fill="none" stroke="#000000" points="857.5,-367.2 857.5,-389.2 1046.5,-389.2 1046.5,-367.2 857.5,-367.2"/>
<image xlink:href="../../images/foreignKeys.png" width="11px" height="12px" preserveAspectRatio="xMinYMin meet" x="862.5" y="-384.2"/>
<text text-anchor="start" x="877.5" y="-374.3" font-family="Helvetica,sans-Serif" font-size="11.00" fill="#000000">id_profile_element</text>
<polygon fill="#ffffff" stroke="transparent" points="857.5,-345.2 857.5,-367.2 1046.5,-367.2 1046.5,-345.2 857.5,-345.2"/>
<polygon fill="none" stroke="#000000" points="857.5,-345.2 857.5,-367.2 1046.5,-367.2 1046.5,-345.2 857.5,-345.2"/>
<image xlink:href="../../images/foreignKeys.png" width="11px" height="12px" preserveAspectRatio="xMinYMin meet" x="862.5" y="-362.2"/>
<text text-anchor="start" x="877.5" y="-352.3" font-family="Helvetica,sans-Serif" font-size="11.00" fill="#000000">id_soil_derived_object</text>
<polygon fill="none" stroke="#000000" points="857.5,-323.2 857.5,-345.2 1046.5,-345.2 1046.5,-323.2 857.5,-323.2"/>
<image xlink:href="../../images/foreignKeys.png" width="11px" height="12px" preserveAspectRatio="xMinYMin meet" x="862.5" y="-340.2"/>
<text text-anchor="start" x="877.5" y="-330.3" font-family="Helvetica,sans-Serif" font-size="11.00" fill="#000000">id_sensor</text>
<polygon fill="#ffffff" stroke="transparent" points="857.5,-301.2 857.5,-323.2 1046.5,-323.2 1046.5,-301.2 857.5,-301.2"/>
<polygon fill="none" stroke="#000000" points="857.5,-301.2 857.5,-323.2 1046.5,-323.2 1046.5,-301.2 857.5,-301.2"/>
<image xlink:href="../../images/foreignKeys.png" width="11px" height="12px" preserveAspectRatio="xMinYMin meet" x="862.5" y="-318.2"/>
<text text-anchor="start" x="877.5" y="-308.3" font-family="Helvetica,sans-Serif" font-size="11.00" fill="#000000">id_observed_property</text>
<polygon fill="#ffffff" stroke="transparent" points="857.5,-279.2 857.5,-301.2 1046.5,-301.2 1046.5,-279.2 857.5,-279.2"/>
<polygon fill="none" stroke="#000000" points="857.5,-279.2 857.5,-301.2 1046.5,-301.2 1046.5,-279.2 857.5,-279.2"/>
<image xlink:href="../../images/foreignKeys.png" width="11px" height="12px" preserveAspectRatio="xMinYMin meet" x="862.5" y="-296.2"/>
<text text-anchor="start" x="877.5" y="-286.3" font-family="Helvetica,sans-Serif" font-size="11.00" fill="#000000">id_process</text>
<polygon fill="none" stroke="#000000" points="857.5,-257.2 857.5,-279.2 1046.5,-279.2 1046.5,-257.2 857.5,-257.2"/>
<image xlink:href="../../images/foreignKeys.png" width="11px" height="12px" preserveAspectRatio="xMinYMin meet" x="862.5" y="-274.2"/>
<text text-anchor="start" x="877.5" y="-264.3" font-family="Helvetica,sans-Serif" font-size="11.00" fill="#000000">id_equipment</text>
<polygon fill="#ffffff" stroke="transparent" points="857.5,-235.2 857.5,-257.2 1046.5,-257.2 1046.5,-235.2 857.5,-235.2"/>
<polygon fill="none" stroke="#000000" points="857.5,-235.2 857.5,-257.2 1046.5,-257.2 1046.5,-235.2 857.5,-235.2"/>
<image xlink:href="../../images/foreignKeys.png" width="11px" height="12px" preserveAspectRatio="xMinYMin meet" x="862.5" y="-252.2"/>
<text text-anchor="start" x="877.5" y="-242.3" font-family="Helvetica,sans-Serif" font-size="11.00" fill="#000000">id_preparation_process</text>
<polygon fill="none" stroke="#000000" points="857.5,-213.2 857.5,-235.2 1046.5,-235.2 1046.5,-213.2 857.5,-213.2"/>
<image xlink:href="../../images/foreignKeys.png" width="11px" height="12px" preserveAspectRatio="xMinYMin meet" x="862.5" y="-230.2"/>
<text text-anchor="start" x="877.5" y="-220.3" font-family="Helvetica,sans-Serif" font-size="11.00" fill="#000000">id_datastream_collection</text>
<polygon fill="#ffffff" stroke="transparent" points="857.5,-191.2 857.5,-213.2 1046.5,-213.2 1046.5,-191.2 857.5,-191.2"/>
<polygon fill="none" stroke="#000000" points="857.5,-191.2 857.5,-213.2 1046.5,-213.2 1046.5,-191.2 857.5,-191.2"/>
<text text-anchor="start" x="877.5" y="-198.3" font-family="Helvetica,sans-Serif" font-size="11.00" fill="#000000">begin_result_time</text>
<polygon fill="#ffffff" stroke="transparent" points="857.5,-169.2 857.5,-191.2 1046.5,-191.2 1046.5,-169.2 857.5,-169.2"/>
<polygon fill="none" stroke="#000000" points="857.5,-169.2 857.5,-191.2 1046.5,-191.2 1046.5,-169.2 857.5,-169.2"/>
<text text-anchor="start" x="877.5" y="-176.3" font-family="Helvetica,sans-Serif" font-size="11.00" fill="#000000">end_result_time</text>
<polygon fill="#ffffff" stroke="transparent" points="857.5,-150.2 857.5,-169.2 948.5,-169.2 948.5,-150.2 857.5,-150.2"/>
<polygon fill="none" stroke="#000000" points="857.5,-150.2 857.5,-169.2 948.5,-169.2 948.5,-150.2 857.5,-150.2"/>
<text text-anchor="start" x="860.5" y="-156.3" font-family="Helvetica,sans-Serif" font-size="11.00" fill="#000000">&lt; 16</text>
<polygon fill="#ffffff" stroke="transparent" points="948.5,-150.2 948.5,-169.2 992.5,-169.2 992.5,-150.2 948.5,-150.2"/>
<polygon fill="none" stroke="#000000" points="948.5,-150.2 948.5,-169.2 992.5,-169.2 992.5,-150.2 948.5,-150.2"/>
<text text-anchor="start" x="983.3862" y="-156.3" font-family="Helvetica,sans-Serif" font-size="11.00" fill="#000000"> &#160;</text>
<polygon fill="#ffffff" stroke="transparent" points="992.5,-150.2 992.5,-169.2 1046.5,-169.2 1046.5,-150.2 992.5,-150.2"/>
<polygon fill="none" stroke="#000000" points="992.5,-150.2 992.5,-169.2 1046.5,-169.2 1046.5,-150.2 992.5,-150.2"/>
<text text-anchor="start" x="1027.9053" y="-156.3" font-family="Helvetica,sans-Serif" font-size="11.00" fill="#000000">1 &gt;</text>
</a>
</g>
</g>
<!-- is_based_on_observed_soil_profile -->
<g id="node2" class="node">
<title>is_based_on_observed_soil_profile</title>
<g id="a_node2"><a xlink:href="../../tables/is_based_on_observed_soil_profile.html" xlink:title="is_based_on_observed_soil_profile" target="_top">
<polygon fill="#ffffff" stroke="transparent" points="540,-370.2 540,-478.2 808,-478.2 808,-370.2 540,-370.2"/>
<polygon fill="#f5f5f5" stroke="transparent" points="540,-455.2 540,-478.2 808,-478.2 808,-455.2 540,-455.2"/>
<polygon fill="none" stroke="#000000" points="540,-455.2 540,-478.2 808,-478.2 808,-455.2 540,-455.2"/>
<text text-anchor="start" x="545" y="-463.8" font-family="Helvetica,sans-Serif" font-weight="bold" font-size="11.00" fill="#000000">is_based_on_observed_soil_profile</text>
<text text-anchor="start" x="773.5219" y="-463.3" font-family="Helvetica,sans-Serif" font-size="11.00" fill="#000000">[table]</text>
<polygon fill="none" stroke="#000000" points="540,-433.2 540,-455.2 808,-455.2 808,-433.2 540,-433.2"/>
<image xlink:href="../../images/primaryKeys.png" width="11px" height="12px" preserveAspectRatio="xMinYMin meet" x="545" y="-450.2"/>
<text text-anchor="start" x="569" y="-440.3" font-family="Helvetica,sans-Serif" font-size="11.00" fill="#000000">id</text>
<polygon fill="#ffffff" stroke="transparent" points="540,-411.2 540,-433.2 808,-433.2 808,-411.2 540,-411.2"/>
<polygon fill="none" stroke="#000000" points="540,-411.2 540,-433.2 808,-433.2 808,-411.2 540,-411.2"/>
<image xlink:href="../../images/foreignKeys.png" width="11px" height="12px" preserveAspectRatio="xMinYMin meet" x="545" y="-428.2"/>
<text text-anchor="start" x="569" y="-418.3" font-family="Helvetica,sans-Serif" font-size="11.00" fill="#000000">id_soil_derived_object</text>
<polygon fill="#ffffff" stroke="transparent" points="540,-389.2 540,-411.2 808,-411.2 808,-389.2 540,-389.2"/>
<polygon fill="none" stroke="#000000" points="540,-389.2 540,-411.2 808,-411.2 808,-389.2 540,-389.2"/>
<image xlink:href="../../images/foreignKeys.png" width="11px" height="12px" preserveAspectRatio="xMinYMin meet" x="545" y="-406.2"/>
<text text-anchor="start" x="569" y="-396.3" font-family="Helvetica,sans-Serif" font-size="11.00" fill="#000000">id_soil_profile</text>
<polygon fill="#ffffff" stroke="transparent" points="540,-370.2 540,-389.2 668,-389.2 668,-370.2 540,-370.2"/>
<polygon fill="none" stroke="#000000" points="540,-370.2 540,-389.2 668,-389.2 668,-370.2 540,-370.2"/>
<text text-anchor="start" x="543" y="-376.3" font-family="Helvetica,sans-Serif" font-size="11.00" fill="#000000">&lt; 2</text>
<polygon fill="#ffffff" stroke="transparent" points="668,-370.2 668,-389.2 733,-389.2 733,-370.2 668,-370.2"/>
<polygon fill="none" stroke="#000000" points="668,-370.2 668,-389.2 733,-389.2 733,-370.2 668,-370.2"/>
<text text-anchor="start" x="723.8862" y="-376.3" font-family="Helvetica,sans-Serif" font-size="11.00" fill="#000000"> &#160;</text>
<polygon fill="#ffffff" stroke="transparent" points="733,-370.2 733,-389.2 808,-389.2 808,-370.2 733,-370.2"/>
<polygon fill="none" stroke="#000000" points="733,-370.2 733,-389.2 808,-389.2 808,-370.2 733,-370.2"/>
<text text-anchor="start" x="789.4053" y="-376.3" font-family="Helvetica,sans-Serif" font-size="11.00" fill="#000000">2 &gt;</text>
</a>
</g>
</g>
<!-- datastream&#45;&gt;is_based_on_observed_soil_profile -->
<g id="edge1" class="edge">
<title>datastream:w&#45;&gt;is_based_on_observed_soil_profile:e</title>
<path fill="none" stroke="#000000" d="M843.8041,-360.9466C827.0252,-376.0798 838.651,-422.2 808,-422.2"/>
<polygon fill="#000000" stroke="#000000" points="849.9411,-358.8197 858.6789,-359.6015 853.7205,-357.5099 857.5,-356.2 857.5,-356.2 857.5,-356.2 853.7205,-357.5099 856.3211,-352.7985 849.9411,-358.8197 849.9411,-358.8197"/>
<ellipse fill="none" stroke="#000000" cx="846.9175" cy="-359.8676" rx="3.2" ry="3.2"/>
</g>
<!-- datastream&#45;&gt;is_based_on_observed_soil_profile -->
<g id="edge3" class="edge">
<title>datastream:w&#45;&gt;is_based_on_observed_soil_profile:e</title>
<path fill="none" stroke="#000000" d="M842.8428,-400.2C831.4139,-400.2 824.1563,-400.2 808,-400.2"/>
<polygon fill="#000000" stroke="#000000" points="849.5,-400.2001 857.5,-403.8 853.5,-400.2 857.5,-400.2 857.5,-400.2 857.5,-400.2 853.5,-400.2 857.5,-396.6 849.5,-400.2001 849.5,-400.2001"/>
<ellipse fill="none" stroke="#000000" cx="846.3" cy="-400.2001" rx="3.2" ry="3.2"/>
</g>
<!-- soil_derived_object -->
<g id="node3" class="node">
<title>soil_derived_object</title>
<g id="a_node3"><a xlink:href="../../tables/soil_derived_object.html" xlink:title="soil_derived_object" target="_top">
<polygon fill="#ffffff" stroke="transparent" points="219,-124.2 219,-280.2 491,-280.2 491,-124.2 219,-124.2"/>
<polygon fill="#f5f5f5" stroke="transparent" points="221,-255.2 221,-278.2 489,-278.2 489,-255.2 221,-255.2"/>
<polygon fill="none" stroke="#000000" points="221,-255.2 221,-278.2 489,-278.2 489,-255.2 221,-255.2"/>
<text text-anchor="start" x="226" y="-263.8" font-family="Helvetica,sans-Serif" font-weight="bold" font-size="11.00" fill="#000000">soil_derived_object</text>
<text text-anchor="start" x="454.0437" y="-263.3" font-family="Helvetica,sans-Serif" font-size="11.00" fill="#000000">[table]</text>
<polygon fill="none" stroke="#000000" points="221,-233.2 221,-255.2 370,-255.2 370,-233.2 221,-233.2"/>
<image xlink:href="../../images/primaryKeys.png" width="11px" height="12px" preserveAspectRatio="xMinYMin meet" x="226" y="-250.2"/>
<text text-anchor="start" x="241" y="-240.3" font-family="Helvetica,sans-Serif" font-size="11.00" fill="#000000">id</text>
<polygon fill="none" stroke="#000000" points="370,-233.2 370,-255.2 489,-255.2 489,-233.2 370,-233.2"/>
<text text-anchor="start" x="373" y="-240.9" font-family="Helvetica,sans-Serif" font-size="11.00" fill="#000000">int4[10]</text>
<polygon fill="#ffffff" stroke="transparent" points="221,-211.2 221,-233.2 370,-233.2 370,-211.2 221,-211.2"/>
<polygon fill="none" stroke="#000000" points="221,-211.2 221,-233.2 370,-233.2 370,-211.2 221,-211.2"/>
<text text-anchor="start" x="241" y="-218.3" font-family="Helvetica,sans-Serif" font-size="11.00" fill="#000000">guidkey</text>
<polygon fill="none" stroke="#000000" points="370,-211.2 370,-233.2 489,-233.2 489,-211.2 370,-211.2"/>
<text text-anchor="start" x="373" y="-218.9" font-family="Helvetica,sans-Serif" font-size="11.00" fill="#000000">varchar[50]</text>
<polygon fill="none" stroke="#000000" points="221,-189.2 221,-211.2 370,-211.2 370,-189.2 221,-189.2"/>
<text text-anchor="start" x="241" y="-196.3" font-family="Helvetica,sans-Serif" font-size="11.00" fill="#000000">id_source</text>
<polygon fill="none" stroke="#000000" points="370,-189.2 370,-211.2 489,-211.2 489,-189.2 370,-189.2"/>
<text text-anchor="start" x="373" y="-196.9" font-family="Helvetica,sans-Serif" font-size="11.00" fill="#000000">varchar[30]</text>
<polygon fill="#ffffff" stroke="transparent" points="221,-167.2 221,-189.2 370,-189.2 370,-167.2 221,-167.2"/>
<polygon fill="none" stroke="#000000" points="221,-167.2 221,-189.2 370,-189.2 370,-167.2 221,-167.2"/>
<image xlink:href="../../images/foreignKeys.png" width="11px" height="12px" preserveAspectRatio="xMinYMin meet" x="226" y="-184.2"/>
<text text-anchor="start" x="241" y="-174.3" font-family="Helvetica,sans-Serif" font-size="11.00" fill="#000000">id_inspire</text>
<polygon fill="none" stroke="#000000" points="370,-167.2 370,-189.2 489,-189.2 489,-167.2 370,-167.2"/>
<text text-anchor="start" x="373" y="-174.9" font-family="Helvetica,sans-Serif" font-size="11.00" fill="#000000">int4[10]</text>
<polygon fill="#ffffff" stroke="transparent" points="221,-145.2 221,-167.2 370,-167.2 370,-145.2 221,-145.2"/>
<polygon fill="none" stroke="#000000" points="221,-145.2 221,-167.2 370,-167.2 370,-145.2 221,-145.2"/>
<text text-anchor="start" x="241" y="-152.3" font-family="Helvetica,sans-Serif" font-size="11.00" fill="#000000">geometry</text>
<polygon fill="none" stroke="#000000" points="370,-145.2 370,-167.2 489,-167.2 489,-145.2 370,-145.2"/>
<text text-anchor="start" x="372.9485" y="-152.9" font-family="Helvetica,sans-Serif" font-size="11.00" fill="#000000">geometry[2147483647]</text>
<polygon fill="#ffffff" stroke="transparent" points="221,-126.2 221,-145.2 300,-145.2 300,-126.2 221,-126.2"/>
<polygon fill="none" stroke="#000000" points="221,-126.2 221,-145.2 300,-145.2 300,-126.2 221,-126.2"/>
<text text-anchor="start" x="224" y="-132.3" font-family="Helvetica,sans-Serif" font-size="11.00" fill="#000000">&lt; 1</text>
<polygon fill="#ffffff" stroke="transparent" points="300,-126.2 300,-145.2 370,-145.2 370,-126.2 300,-126.2"/>
<polygon fill="none" stroke="#000000" points="300,-126.2 300,-145.2 370,-145.2 370,-126.2 300,-126.2"/>
<text text-anchor="start" x="360.8862" y="-132.3" font-family="Helvetica,sans-Serif" font-size="11.00" fill="#000000"> &#160;</text>
<polygon fill="#ffffff" stroke="transparent" points="370,-126.2 370,-145.2 489,-145.2 489,-126.2 370,-126.2"/>
<polygon fill="none" stroke="#000000" points="370,-126.2 370,-145.2 489,-145.2 489,-126.2 370,-126.2"/>
<text text-anchor="start" x="470.4053" y="-132.3" font-family="Helvetica,sans-Serif" font-size="11.00" fill="#000000">5 &gt;</text>
<polygon fill="none" stroke="#000000" stroke-width="2" points="220,-125.2 220,-279.2 490,-279.2 490,-125.2 220,-125.2"/>
</a>
</g>
</g>
<!-- datastream&#45;&gt;soil_derived_object -->
<g id="edge2" class="edge">
<title>datastream:w&#45;&gt;soil_derived_object:e</title>
<path fill="none" stroke="#000000" d="M843.0602,-356.3776C762.1074,-358.1273 588.392,-371.4194 532,-333.2 495.6347,-308.5536 532.9304,-244.2 489,-244.2"/>
<polygon fill="#000000" stroke="#000000" points="849.5006,-356.2984 857.5443,-359.7997 853.5003,-356.2492 857.5,-356.2 857.5,-356.2 857.5,-356.2 853.5003,-356.2492 857.4557,-352.6003 849.5006,-356.2984 849.5006,-356.2984"/>
<ellipse fill="none" stroke="#000000" cx="846.3008" cy="-356.3378" rx="3.2" ry="3.2"/>
</g>
<!-- is_based_on_observed_soil_profile&#45;&gt;soil_derived_object -->
<g id="edge4" class="edge">
<title>is_based_on_observed_soil_profile:w&#45;&gt;soil_derived_object:e</title>
<path fill="none" stroke="#000000" d="M525.7442,-419.8183C472.3201,-398.6959 565.6687,-244.2 489,-244.2"/>
<polygon fill="#000000" stroke="#000000" points="532.1094,-420.8817 539.4068,-425.7508 536.0547,-421.5408 540,-422.2 540,-422.2 540,-422.2 536.0547,-421.5408 540.5932,-418.6492 532.1094,-420.8817 532.1094,-420.8817"/>
<ellipse fill="none" stroke="#000000" cx="528.9531" cy="-420.3544" rx="3.2" ry="3.2"/>
</g>
<!-- inspire -->
<g id="node6" class="node">
<title>inspire</title>
<g id="a_node6"><a xlink:href="../../tables/inspire.html" xlink:title="inspire" target="_top">
<polygon fill="#ffffff" stroke="transparent" points="8,-38.2 8,-212.2 170,-212.2 170,-38.2 8,-38.2"/>
<polygon fill="#f5f5f5" stroke="transparent" points="8,-189.2 8,-212.2 170,-212.2 170,-189.2 8,-189.2"/>
<polygon fill="none" stroke="#000000" points="8,-189.2 8,-212.2 170,-212.2 170,-189.2 8,-189.2"/>
<text text-anchor="start" x="13" y="-197.8" font-family="Helvetica,sans-Serif" font-weight="bold" font-size="11.00" fill="#000000">inspire</text>
<text text-anchor="start" x="135.0437" y="-197.3" font-family="Helvetica,sans-Serif" font-size="11.00" fill="#000000">[table]</text>
<polygon fill="none" stroke="#000000" points="8,-167.2 8,-189.2 170,-189.2 170,-167.2 8,-167.2"/>
<image xlink:href="../../images/primaryKeys.png" width="11px" height="12px" preserveAspectRatio="xMinYMin meet" x="13" y="-184.2"/>
<text text-anchor="start" x="28" y="-174.3" font-family="Helvetica,sans-Serif" font-size="11.00" fill="#000000">id</text>
<polygon fill="#ffffff" stroke="transparent" points="8,-145.2 8,-167.2 170,-167.2 170,-145.2 8,-145.2"/>
<polygon fill="none" stroke="#000000" points="8,-145.2 8,-167.2 170,-167.2 170,-145.2 8,-145.2"/>
<text text-anchor="start" x="28" y="-152.3" font-family="Helvetica,sans-Serif" font-size="11.00" fill="#000000">inspireid_localid</text>
<polygon fill="#ffffff" stroke="transparent" points="8,-123.2 8,-145.2 170,-145.2 170,-123.2 8,-123.2"/>
<polygon fill="none" stroke="#000000" points="8,-123.2 8,-145.2 170,-145.2 170,-123.2 8,-123.2"/>
<text text-anchor="start" x="28" y="-130.3" font-family="Helvetica,sans-Serif" font-size="11.00" fill="#000000">inspireid_namespace</text>
<polygon fill="#ffffff" stroke="transparent" points="8,-101.2 8,-123.2 170,-123.2 170,-101.2 8,-101.2"/>
<polygon fill="none" stroke="#000000" points="8,-101.2 8,-123.2 170,-123.2 170,-101.2 8,-101.2"/>
<text text-anchor="start" x="28" y="-108.3" font-family="Helvetica,sans-Serif" font-size="11.00" fill="#000000">inspireid_versionid</text>
<polygon fill="#ffffff" stroke="transparent" points="8,-79.2 8,-101.2 170,-101.2 170,-79.2 8,-79.2"/>
<polygon fill="none" stroke="#000000" points="8,-79.2 8,-101.2 170,-101.2 170,-79.2 8,-79.2"/>
<text text-anchor="start" x="28" y="-86.3" font-family="Helvetica,sans-Serif" font-size="11.00" fill="#000000">start_date</text>
<polygon fill="#ffffff" stroke="transparent" points="8,-57.2 8,-79.2 170,-79.2 170,-57.2 8,-57.2"/>
<polygon fill="none" stroke="#000000" points="8,-57.2 8,-79.2 170,-79.2 170,-57.2 8,-57.2"/>
<text text-anchor="start" x="28" y="-64.3" font-family="Helvetica,sans-Serif" font-size="11.00" fill="#000000">end_date</text>
<polygon fill="#ffffff" stroke="transparent" points="8,-38.2 8,-57.2 75,-57.2 75,-38.2 8,-38.2"/>
<polygon fill="none" stroke="#000000" points="8,-38.2 8,-57.2 75,-57.2 75,-38.2 8,-38.2"/>
<text text-anchor="start" x="11" y="-44.3" font-family="Helvetica,sans-Serif" font-size="11.00" fill="#000000"> &#160;</text>
<polygon fill="#ffffff" stroke="transparent" points="75,-38.2 75,-57.2 115,-57.2 115,-38.2 75,-38.2"/>
<polygon fill="none" stroke="#000000" points="75,-38.2 75,-57.2 115,-57.2 115,-38.2 75,-38.2"/>
<text text-anchor="start" x="105.8862" y="-44.3" font-family="Helvetica,sans-Serif" font-size="11.00" fill="#000000"> &#160;</text>
<polygon fill="#ffffff" stroke="transparent" points="115,-38.2 115,-57.2 170,-57.2 170,-38.2 115,-38.2"/>
<polygon fill="none" stroke="#000000" points="115,-38.2 115,-57.2 170,-57.2 170,-38.2 115,-38.2"/>
<text text-anchor="start" x="145.2904" y="-44.3" font-family="Helvetica,sans-Serif" font-size="11.00" fill="#000000">10 &gt;</text>
</a>
</g>
</g>
<!-- soil_derived_object&#45;&gt;inspire -->
<g id="edge8" class="edge">
<title>soil_derived_object:w&#45;&gt;inspire:e</title>
<path fill="none" stroke="#000000" d="M206.276,-178.2C194.2815,-178.2 186.8229,-178.2 170,-178.2"/>
<polygon fill="#000000" stroke="#000000" points="213,-178.2001 221,-181.8 217,-178.2 221,-178.2 221,-178.2 221,-178.2 217,-178.2 221,-174.6 213,-178.2001 213,-178.2001"/>
<ellipse fill="none" stroke="#000000" cx="209.8" cy="-178.2001" rx="3.2" ry="3.2"/>
</g>
<!-- is_based_on_soil_body -->
<g id="node4" class="node">
<title>is_based_on_soil_body</title>
<g id="a_node4"><a xlink:href="../../tables/is_based_on_soil_body.html" xlink:title="is_based_on_soil_body" target="_top">
<polygon fill="#ffffff" stroke="transparent" points="580,-214.2 580,-322.2 768,-322.2 768,-214.2 580,-214.2"/>
<polygon fill="#f5f5f5" stroke="transparent" points="580,-299.2 580,-322.2 768,-322.2 768,-299.2 580,-299.2"/>
<polygon fill="none" stroke="#000000" points="580,-299.2 580,-322.2 768,-322.2 768,-299.2 580,-299.2"/>
<text text-anchor="start" x="585" y="-307.8" font-family="Helvetica,sans-Serif" font-weight="bold" font-size="11.00" fill="#000000">is_based_on_soil_body</text>
<text text-anchor="start" x="733.5219" y="-307.3" font-family="Helvetica,sans-Serif" font-size="11.00" fill="#000000">[table]</text>
<polygon fill="none" stroke="#000000" points="580,-277.2 580,-299.2 768,-299.2 768,-277.2 580,-277.2"/>
<image xlink:href="../../images/primaryKeys.png" width="11px" height="12px" preserveAspectRatio="xMinYMin meet" x="585" y="-294.2"/>
<text text-anchor="start" x="609" y="-284.3" font-family="Helvetica,sans-Serif" font-size="11.00" fill="#000000">id</text>
<polygon fill="#ffffff" stroke="transparent" points="580,-255.2 580,-277.2 768,-277.2 768,-255.2 580,-255.2"/>
<polygon fill="none" stroke="#000000" points="580,-255.2 580,-277.2 768,-277.2 768,-255.2 580,-255.2"/>
<image xlink:href="../../images/foreignKeys.png" width="11px" height="12px" preserveAspectRatio="xMinYMin meet" x="585" y="-272.2"/>
<text text-anchor="start" x="609" y="-262.3" font-family="Helvetica,sans-Serif" font-size="11.00" fill="#000000">id_soil_body</text>
<polygon fill="#ffffff" stroke="transparent" points="580,-233.2 580,-255.2 768,-255.2 768,-233.2 580,-233.2"/>
<polygon fill="none" stroke="#000000" points="580,-233.2 580,-255.2 768,-255.2 768,-233.2 580,-233.2"/>
<image xlink:href="../../images/foreignKeys.png" width="11px" height="12px" preserveAspectRatio="xMinYMin meet" x="585" y="-250.2"/>
<text text-anchor="start" x="609" y="-240.3" font-family="Helvetica,sans-Serif" font-size="11.00" fill="#000000">id_soil_derived_object</text>
<polygon fill="#ffffff" stroke="transparent" points="580,-214.2 580,-233.2 672,-233.2 672,-214.2 580,-214.2"/>
<polygon fill="none" stroke="#000000" points="580,-214.2 580,-233.2 672,-233.2 672,-214.2 580,-214.2"/>
<text text-anchor="start" x="583" y="-220.3" font-family="Helvetica,sans-Serif" font-size="11.00" fill="#000000">&lt; 2</text>
<polygon fill="#ffffff" stroke="transparent" points="672,-214.2 672,-233.2 720,-233.2 720,-214.2 672,-214.2"/>
<polygon fill="none" stroke="#000000" points="672,-214.2 672,-233.2 720,-233.2 720,-214.2 672,-214.2"/>
<text text-anchor="start" x="710.8862" y="-220.3" font-family="Helvetica,sans-Serif" font-size="11.00" fill="#000000"> &#160;</text>
<polygon fill="#ffffff" stroke="transparent" points="720,-214.2 720,-233.2 768,-233.2 768,-214.2 720,-214.2"/>
<polygon fill="none" stroke="#000000" points="720,-214.2 720,-233.2 768,-233.2 768,-214.2 720,-214.2"/>
<text text-anchor="start" x="758.8862" y="-220.3" font-family="Helvetica,sans-Serif" font-size="11.00" fill="#000000"> &#160;</text>
</a>
</g>
</g>
<!-- is_based_on_soil_body&#45;&gt;soil_derived_object -->
<g id="edge5" class="edge">
<title>is_based_on_soil_body:w&#45;&gt;soil_derived_object:e</title>
<path fill="none" stroke="#000000" d="M565.3485,-244.2C536.3347,-244.2 524.0729,-244.2 489,-244.2"/>
<polygon fill="#000000" stroke="#000000" points="572,-244.2001 580,-247.8 576,-244.2 580,-244.2 580,-244.2 580,-244.2 576,-244.2 580,-240.6 572,-244.2001 572,-244.2001"/>
<ellipse fill="none" stroke="#000000" cx="568.8" cy="-244.2001" rx="3.2" ry="3.2"/>
</g>
<!-- is_based_on_soil_derived_object -->
<g id="node5" class="node">
<title>is_based_on_soil_derived_object</title>
<g id="a_node5"><a xlink:href="../../tables/is_based_on_soil_derived_object.html" xlink:title="is_based_on_soil_derived_object" target="_top">
<polygon fill="#ffffff" stroke="transparent" points="547,-85.2 547,-193.2 801,-193.2 801,-85.2 547,-85.2"/>
<polygon fill="#f5f5f5" stroke="transparent" points="547,-170.2 547,-193.2 801,-193.2 801,-170.2 547,-170.2"/>
<polygon fill="none" stroke="#000000" points="547,-170.2 547,-193.2 801,-193.2 801,-170.2 547,-170.2"/>
<text text-anchor="start" x="552" y="-178.8" font-family="Helvetica,sans-Serif" font-weight="bold" font-size="11.00" fill="#000000">is_based_on_soil_derived_object</text>
<text text-anchor="start" x="766.5219" y="-178.3" font-family="Helvetica,sans-Serif" font-size="11.00" fill="#000000">[table]</text>
<polygon fill="none" stroke="#000000" points="547,-148.2 547,-170.2 801,-170.2 801,-148.2 547,-148.2"/>
<image xlink:href="../../images/primaryKeys.png" width="11px" height="12px" preserveAspectRatio="xMinYMin meet" x="552" y="-165.2"/>
<text text-anchor="start" x="576" y="-155.3" font-family="Helvetica,sans-Serif" font-size="11.00" fill="#000000">id</text>
<polygon fill="#ffffff" stroke="transparent" points="547,-126.2 547,-148.2 801,-148.2 801,-126.2 547,-126.2"/>
<polygon fill="none" stroke="#000000" points="547,-126.2 547,-148.2 801,-148.2 801,-126.2 547,-126.2"/>
<image xlink:href="../../images/foreignKeys.png" width="11px" height="12px" preserveAspectRatio="xMinYMin meet" x="552" y="-143.2"/>
<text text-anchor="start" x="576" y="-133.3" font-family="Helvetica,sans-Serif" font-size="11.00" fill="#000000">id_base</text>
<polygon fill="#ffffff" stroke="transparent" points="547,-104.2 547,-126.2 801,-126.2 801,-104.2 547,-104.2"/>
<polygon fill="none" stroke="#000000" points="547,-104.2 547,-126.2 801,-126.2 801,-104.2 547,-104.2"/>
<image xlink:href="../../images/foreignKeys.png" width="11px" height="12px" preserveAspectRatio="xMinYMin meet" x="552" y="-121.2"/>
<text text-anchor="start" x="576" y="-111.3" font-family="Helvetica,sans-Serif" font-size="11.00" fill="#000000">id_related</text>
<polygon fill="#ffffff" stroke="transparent" points="547,-85.2 547,-104.2 672,-104.2 672,-85.2 547,-85.2"/>
<polygon fill="none" stroke="#000000" points="547,-85.2 547,-104.2 672,-104.2 672,-85.2 547,-85.2"/>
<text text-anchor="start" x="550" y="-91.3" font-family="Helvetica,sans-Serif" font-size="11.00" fill="#000000">&lt; 2</text>
<polygon fill="#ffffff" stroke="transparent" points="672,-85.2 672,-104.2 736,-104.2 736,-85.2 672,-85.2"/>
<polygon fill="none" stroke="#000000" points="672,-85.2 672,-104.2 736,-104.2 736,-85.2 672,-85.2"/>
<text text-anchor="start" x="726.8862" y="-91.3" font-family="Helvetica,sans-Serif" font-size="11.00" fill="#000000"> &#160;</text>
<polygon fill="#ffffff" stroke="transparent" points="736,-85.2 736,-104.2 801,-104.2 801,-85.2 736,-85.2"/>
<polygon fill="none" stroke="#000000" points="736,-85.2 736,-104.2 801,-104.2 801,-85.2 736,-85.2"/>
<text text-anchor="start" x="791.8862" y="-91.3" font-family="Helvetica,sans-Serif" font-size="11.00" fill="#000000"> &#160;</text>
</a>
</g>
</g>
<!-- is_based_on_soil_derived_object&#45;&gt;soil_derived_object -->
<g id="edge6" class="edge">
<title>is_based_on_soil_derived_object:w&#45;&gt;soil_derived_object:e</title>
<path fill="none" stroke="#000000" d="M532.7203,-140.7601C502.6379,-159.3262 537.1763,-244.2 489,-244.2"/>
<polygon fill="#000000" stroke="#000000" points="539.2376,-139.1353 547.8709,-140.6931 543.1188,-138.1676 547,-137.2 547,-137.2 547,-137.2 543.1188,-138.1676 546.1291,-133.7069 539.2376,-139.1353 539.2376,-139.1353"/>
<ellipse fill="none" stroke="#000000" cx="536.1326" cy="-139.9094" rx="3.2" ry="3.2"/>
</g>
<!-- is_based_on_soil_derived_object&#45;&gt;soil_derived_object -->
<g id="edge7" class="edge">
<title>is_based_on_soil_derived_object:w&#45;&gt;soil_derived_object:e</title>
<path fill="none" stroke="#000000" d="M532.5481,-118.3888C495.6887,-138.2537 545.9685,-244.2 489,-244.2"/>
<polygon fill="#000000" stroke="#000000" points="539.1879,-116.9238 547.7757,-118.7154 543.094,-116.0619 547,-115.2 547,-115.2 547,-115.2 543.094,-116.0619 546.2243,-111.6846 539.1879,-116.9238 539.1879,-116.9238"/>
<ellipse fill="none" stroke="#000000" cx="536.0631" cy="-117.6133" rx="3.2" ry="3.2"/>
</g>
</g>
</svg>
