<?xml version="1.0" encoding="UTF-8" standalone="no"?>
<!DOCTYPE svg PUBLIC "-//W3C//DTD SVG 1.1//EN"
 "http://www.w3.org/Graphics/SVG/1.1/DTD/svg11.dtd">
<!-- Generated by graphviz version 2.40.1 (20161225.0304)
 -->
<!-- Title: oneDegreeRelationshipsDiagram Pages: 1 -->
<svg width="463pt" height="248pt"
 viewBox="0.00 0.00 463.00 248.20" xmlns="http://www.w3.org/2000/svg" xmlns:xlink="http://www.w3.org/1999/xlink">
<g id="graph0" class="graph" transform="scale(1 1) rotate(0) translate(4 244.2)">
<title>oneDegreeRelationshipsDiagram</title>
<polygon fill="#ffffff" stroke="transparent" points="-4,4 -4,-244.2 459,-244.2 459,4 -4,4"/>
<text text-anchor="middle" x="72.4936" y="-7.3" font-family="Helvetica,sans-Serif" font-size="11.00" fill="#000000">Generated by SchemaSpy</text>
<!-- soil_body_label -->
<g id="node1" class="node">
<title>soil_body_label</title>
<g id="a_node1"><a xlink:href="../../tables/soil_body_label.html" xlink:title="soil_body_label" target="_top">
<polygon fill="#ffffff" stroke="transparent" points="231,-124.2 231,-236.2 447,-236.2 447,-124.2 231,-124.2"/>
<polygon fill="#f5f5f5" stroke="transparent" points="233,-211.2 233,-234.2 445,-234.2 445,-211.2 233,-211.2"/>
<polygon fill="none" stroke="#000000" points="233,-211.2 233,-234.2 445,-234.2 445,-211.2 233,-211.2"/>
<text text-anchor="start" x="238" y="-219.8" font-family="Helvetica,sans-Serif" font-weight="bold" font-size="11.00" fill="#000000">soil_body_label</text>
<text text-anchor="start" x="410.0437" y="-219.3" font-family="Helvetica,sans-Serif" font-size="11.00" fill="#000000">[table]</text>
<polygon fill="none" stroke="#000000" points="233,-189.2 233,-211.2 355,-211.2 355,-189.2 233,-189.2"/>
<image xlink:href="../../images/primaryKeys.png" width="11px" height="12px" preserveAspectRatio="xMinYMin meet" x="238" y="-206.2"/>
<text text-anchor="start" x="253" y="-196.3" font-family="Helvetica,sans-Serif" font-size="11.00" fill="#000000">id</text>
<polygon fill="none" stroke="#000000" points="355,-189.2 355,-211.2 445,-211.2 445,-189.2 355,-189.2"/>
<text text-anchor="start" x="358" y="-196.9" font-family="Helvetica,sans-Serif" font-size="11.00" fill="#000000">int4[10]</text>
<polygon fill="#ffffff" stroke="transparent" points="233,-167.2 233,-189.2 355,-189.2 355,-167.2 233,-167.2"/>
<polygon fill="none" stroke="#000000" points="233,-167.2 233,-189.2 355,-189.2 355,-167.2 233,-167.2"/>
<image xlink:href="../../images/foreignKeys.png" width="11px" height="12px" preserveAspectRatio="xMinYMin meet" x="238" y="-184.2"/>
<text text-anchor="start" x="253" y="-174.3" font-family="Helvetica,sans-Serif" font-size="11.00" fill="#000000">id_soil_body</text>
<polygon fill="none" stroke="#000000" points="355,-167.2 355,-189.2 445,-189.2 445,-167.2 355,-167.2"/>
<text text-anchor="start" x="358" y="-174.9" font-family="Helvetica,sans-Serif" font-size="11.00" fill="#000000">int4[10]</text>
<polygon fill="none" stroke="#000000" points="233,-145.2 233,-167.2 355,-167.2 355,-145.2 233,-145.2"/>
<text text-anchor="start" x="253" y="-152.3" font-family="Helvetica,sans-Serif" font-size="11.00" fill="#000000">soil_body_label</text>
<polygon fill="none" stroke="#000000" points="355,-145.2 355,-167.2 445,-167.2 445,-145.2 355,-145.2"/>
<text text-anchor="start" x="357.5043" y="-152.9" font-family="Helvetica,sans-Serif" font-size="11.00" fill="#000000">text[2147483647]</text>
<polygon fill="#ffffff" stroke="transparent" points="233,-126.2 233,-145.2 298,-145.2 298,-126.2 233,-126.2"/>
<polygon fill="none" stroke="#000000" points="233,-126.2 233,-145.2 298,-145.2 298,-126.2 233,-126.2"/>
<text text-anchor="start" x="236" y="-132.3" font-family="Helvetica,sans-Serif" font-size="11.00" fill="#000000">&lt; 1</text>
<polygon fill="#ffffff" stroke="transparent" points="298,-126.2 298,-145.2 355,-145.2 355,-126.2 298,-126.2"/>
<polygon fill="none" stroke="#000000" points="298,-126.2 298,-145.2 355,-145.2 355,-126.2 298,-126.2"/>
<text text-anchor="start" x="345.8862" y="-132.3" font-family="Helvetica,sans-Serif" font-size="11.00" fill="#000000"> &#160;</text>
<polygon fill="#ffffff" stroke="transparent" points="355,-126.2 355,-145.2 445,-145.2 445,-126.2 355,-126.2"/>
<polygon fill="none" stroke="#000000" points="355,-126.2 355,-145.2 445,-145.2 445,-126.2 355,-126.2"/>
<text text-anchor="start" x="426.4053" y="-132.3" font-family="Helvetica,sans-Serif" font-size="11.00" fill="#000000">0 &gt;</text>
<polygon fill="none" stroke="#000000" stroke-width="2" points="232,-125.2 232,-235.2 446,-235.2 446,-125.2 232,-125.2"/>
</a>
</g>
</g>
<!-- soil_body -->
<g id="node2" class="node">
<title>soil_body</title>
<g id="a_node2"><a xlink:href="../../tables/soil_body.html" xlink:title="soil_body" target="_top">
<polygon fill="#ffffff" stroke="transparent" points="8,-38.2 8,-212.2 182,-212.2 182,-38.2 8,-38.2"/>
<polygon fill="#f5f5f5" stroke="transparent" points="8,-189.2 8,-212.2 182,-212.2 182,-189.2 8,-189.2"/>
<polygon fill="none" stroke="#000000" points="8,-189.2 8,-212.2 182,-212.2 182,-189.2 8,-189.2"/>
<text text-anchor="start" x="13" y="-197.8" font-family="Helvetica,sans-Serif" font-weight="bold" font-size="11.00" fill="#000000">soil_body</text>
<text text-anchor="start" x="147.0437" y="-197.3" font-family="Helvetica,sans-Serif" font-size="11.00" fill="#000000">[table]</text>
<polygon fill="none" stroke="#000000" points="8,-167.2 8,-189.2 182,-189.2 182,-167.2 8,-167.2"/>
<image xlink:href="../../images/primaryKeys.png" width="11px" height="12px" preserveAspectRatio="xMinYMin meet" x="13" y="-184.2"/>
<text text-anchor="start" x="28" y="-174.3" font-family="Helvetica,sans-Serif" font-size="11.00" fill="#000000">id</text>
<polygon fill="#ffffff" stroke="transparent" points="8,-145.2 8,-167.2 182,-167.2 182,-145.2 8,-145.2"/>
<polygon fill="none" stroke="#000000" points="8,-145.2 8,-167.2 182,-167.2 182,-145.2 8,-145.2"/>
<image xlink:href="../../images/foreignKeys.png" width="11px" height="12px" preserveAspectRatio="xMinYMin meet" x="13" y="-162.2"/>
<text text-anchor="start" x="28" y="-152.3" font-family="Helvetica,sans-Serif" font-size="11.00" fill="#000000">id_inspire</text>
<polygon fill="#ffffff" stroke="transparent" points="8,-123.2 8,-145.2 182,-145.2 182,-123.2 8,-123.2"/>
<polygon fill="none" stroke="#000000" points="8,-123.2 8,-145.2 182,-145.2 182,-123.2 8,-123.2"/>
<text text-anchor="start" x="28" y="-130.3" font-family="Helvetica,sans-Serif" font-size="11.00" fill="#000000">begin_lifespan_version</text>
<polygon fill="#ffffff" stroke="transparent" points="8,-101.2 8,-123.2 182,-123.2 182,-101.2 8,-101.2"/>
<polygon fill="none" stroke="#000000" points="8,-101.2 8,-123.2 182,-123.2 182,-101.2 8,-101.2"/>
<text text-anchor="start" x="28" y="-108.3" font-family="Helvetica,sans-Serif" font-size="11.00" fill="#000000">end_lifespan_version</text>
<polygon fill="#ffffff" stroke="transparent" points="8,-79.2 8,-101.2 182,-101.2 182,-79.2 8,-79.2"/>
<polygon fill="none" stroke="#000000" points="8,-79.2 8,-101.2 182,-101.2 182,-79.2 8,-79.2"/>
<text text-anchor="start" x="28" y="-86.3" font-family="Helvetica,sans-Serif" font-size="11.00" fill="#000000">id_source</text>
<polygon fill="#ffffff" stroke="transparent" points="8,-57.2 8,-79.2 182,-79.2 182,-57.2 8,-57.2"/>
<polygon fill="none" stroke="#000000" points="8,-57.2 8,-79.2 182,-79.2 182,-57.2 8,-57.2"/>
<text text-anchor="start" x="28" y="-64.3" font-family="Helvetica,sans-Serif" font-size="11.00" fill="#000000">guidkey</text>
<polygon fill="#ffffff" stroke="transparent" points="8,-38.2 8,-57.2 89,-57.2 89,-38.2 8,-38.2"/>
<polygon fill="none" stroke="#000000" points="8,-38.2 8,-57.2 89,-57.2 89,-38.2 8,-38.2"/>
<text text-anchor="start" x="11" y="-44.3" font-family="Helvetica,sans-Serif" font-size="11.00" fill="#000000">&lt; 1</text>
<polygon fill="#ffffff" stroke="transparent" points="89,-38.2 89,-57.2 131,-57.2 131,-38.2 89,-38.2"/>
<polygon fill="none" stroke="#000000" points="89,-38.2 89,-57.2 131,-57.2 131,-38.2 89,-38.2"/>
<text text-anchor="start" x="121.8862" y="-44.3" font-family="Helvetica,sans-Serif" font-size="11.00" fill="#000000"> &#160;</text>
<polygon fill="#ffffff" stroke="transparent" points="131,-38.2 131,-57.2 182,-57.2 182,-38.2 131,-38.2"/>
<polygon fill="none" stroke="#000000" points="131,-38.2 131,-57.2 182,-57.2 182,-38.2 131,-38.2"/>
<text text-anchor="start" x="163.4053" y="-44.3" font-family="Helvetica,sans-Serif" font-size="11.00" fill="#000000">4 &gt;</text>
</a>
</g>
</g>
<!-- soil_body_label&#45;&gt;soil_body -->
<g id="edge1" class="edge">
<title>soil_body_label:w&#45;&gt;soil_body:e</title>
<path fill="none" stroke="#000000" d="M218.276,-178.2C206.2815,-178.2 198.8229,-178.2 182,-178.2"/>
<polygon fill="#000000" stroke="#000000" points="225,-178.2001 233,-181.8 229,-178.2 233,-178.2 233,-178.2 233,-178.2 229,-178.2 233,-174.6 225,-178.2001 225,-178.2001"/>
<ellipse fill="none" stroke="#000000" cx="221.8" cy="-178.2001" rx="3.2" ry="3.2"/>
</g>
</g>
</svg>
