<?xml version="1.0" encoding="UTF-8" standalone="no"?>
<!DOCTYPE svg PUBLIC "-//W3C//DTD SVG 1.1//EN"
 "http://www.w3.org/Graphics/SVG/1.1/DTD/svg11.dtd">
<!-- Generated by graphviz version 2.40.1 (20161225.0304)
 -->
<!-- Title: twoDegreesRelationshipsDiagram Pages: 1 -->
<svg width="1116pt" height="411pt"
 viewBox="0.00 0.00 1116.00 410.70" xmlns="http://www.w3.org/2000/svg" xmlns:xlink="http://www.w3.org/1999/xlink">
<g id="graph0" class="graph" transform="scale(1 1) rotate(0) translate(4 406.7)">
<title>twoDegreesRelationshipsDiagram</title>
<polygon fill="#ffffff" stroke="transparent" points="-4,4 -4,-406.7 1112,-406.7 1112,4 -4,4"/>
<text text-anchor="middle" x="72.4936" y="-7.3" font-family="Helvetica,sans-Serif" font-size="11.00" fill="#000000">Generated by SchemaSpy</text>
<!-- datastream -->
<g id="node1" class="node">
<title>datastream</title>
<g id="a_node1"><a xlink:href="../../tables/datastream.html" xlink:title="datastream" target="_top">
<polygon fill="#ffffff" stroke="transparent" points="608,-251.2 608,-312.2 725,-312.2 725,-251.2 608,-251.2"/>
<polygon fill="#f5f5f5" stroke="transparent" points="608.5,-288.7 608.5,-311.7 725.5,-311.7 725.5,-288.7 608.5,-288.7"/>
<polygon fill="none" stroke="#000000" points="608.5,-288.7 608.5,-311.7 725.5,-311.7 725.5,-288.7 608.5,-288.7"/>
<text text-anchor="start" x="613.5" y="-297.3" font-family="Helvetica,sans-Serif" font-weight="bold" font-size="11.00" fill="#000000">datastream</text>
<text text-anchor="start" x="691.0219" y="-296.8" font-family="Helvetica,sans-Serif" font-size="11.00" fill="#000000">[table]</text>
<polygon fill="none" stroke="#000000" points="608.5,-269.7 608.5,-288.7 725.5,-288.7 725.5,-269.7 608.5,-269.7"/>
<text text-anchor="start" x="611.5" y="-275.8" font-family="Helvetica,sans-Serif" font-size="11.00" fill="#000000">...</text>
<polygon fill="#ffffff" stroke="transparent" points="608.5,-250.7 608.5,-269.7 663.5,-269.7 663.5,-250.7 608.5,-250.7"/>
<polygon fill="none" stroke="#000000" points="608.5,-250.7 608.5,-269.7 663.5,-269.7 663.5,-250.7 608.5,-250.7"/>
<text text-anchor="start" x="611.5" y="-256.8" font-family="Helvetica,sans-Serif" font-size="11.00" fill="#000000">&lt; 16</text>
<polygon fill="#ffffff" stroke="transparent" points="663.5,-250.7 663.5,-269.7 689.5,-269.7 689.5,-250.7 663.5,-250.7"/>
<polygon fill="none" stroke="#000000" points="663.5,-250.7 663.5,-269.7 689.5,-269.7 689.5,-250.7 663.5,-250.7"/>
<text text-anchor="start" x="680.3862" y="-256.8" font-family="Helvetica,sans-Serif" font-size="11.00" fill="#000000"> &#160;</text>
<polygon fill="#ffffff" stroke="transparent" points="689.5,-250.7 689.5,-269.7 725.5,-269.7 725.5,-250.7 689.5,-250.7"/>
<polygon fill="none" stroke="#000000" points="689.5,-250.7 689.5,-269.7 725.5,-269.7 725.5,-250.7 689.5,-250.7"/>
<text text-anchor="start" x="706.9053" y="-256.8" font-family="Helvetica,sans-Serif" font-size="11.00" fill="#000000">1 &gt;</text>
</a>
</g>
</g>
<!-- observable_property -->
<g id="node2" class="node">
<title>observable_property</title>
<g id="a_node2"><a xlink:href="../../tables/observable_property.html" xlink:title="observable_property" target="_top">
<polygon fill="#ffffff" stroke="transparent" points="350,-38.2 350,-231.2 528,-231.2 528,-38.2 350,-38.2"/>
<polygon fill="#f5f5f5" stroke="transparent" points="350,-207.7 350,-230.7 528,-230.7 528,-207.7 350,-207.7"/>
<polygon fill="none" stroke="#000000" points="350,-207.7 350,-230.7 528,-230.7 528,-207.7 350,-207.7"/>
<text text-anchor="start" x="355" y="-216.3" font-family="Helvetica,sans-Serif" font-weight="bold" font-size="11.00" fill="#000000">observable_property</text>
<text text-anchor="start" x="493.5219" y="-215.8" font-family="Helvetica,sans-Serif" font-size="11.00" fill="#000000">[table]</text>
<polygon fill="none" stroke="#000000" points="350,-185.7 350,-207.7 528,-207.7 528,-185.7 350,-185.7"/>
<image xlink:href="../../images/primaryKeys.png" width="11px" height="12px" preserveAspectRatio="xMinYMin meet" x="355" y="-202.7"/>
<text text-anchor="start" x="379" y="-192.8" font-family="Helvetica,sans-Serif" font-size="11.00" fill="#000000">id</text>
<polygon fill="#ffffff" stroke="transparent" points="350,-163.7 350,-185.7 528,-185.7 528,-163.7 350,-163.7"/>
<polygon fill="none" stroke="#000000" points="350,-163.7 350,-185.7 528,-185.7 528,-163.7 350,-163.7"/>
<text text-anchor="start" x="379" y="-170.8" font-family="Helvetica,sans-Serif" font-size="11.00" fill="#000000">guidkey</text>
<polygon fill="#ffffff" stroke="transparent" points="350,-141.7 350,-163.7 528,-163.7 528,-141.7 350,-141.7"/>
<polygon fill="none" stroke="#000000" points="350,-141.7 350,-163.7 528,-163.7 528,-141.7 350,-141.7"/>
<image xlink:href="../../images/foreignKeys.png" width="11px" height="12px" preserveAspectRatio="xMinYMin meet" x="355" y="-158.7"/>
<text text-anchor="start" x="379" y="-148.8" font-family="Helvetica,sans-Serif" font-size="11.00" fill="#000000">id_uom</text>
<polygon fill="none" stroke="#000000" points="350,-119.7 350,-141.7 528,-141.7 528,-119.7 350,-119.7"/>
<image xlink:href="../../images/foreignKeys.png" width="11px" height="12px" preserveAspectRatio="xMinYMin meet" x="355" y="-136.7"/>
<text text-anchor="start" x="379" y="-126.8" font-family="Helvetica,sans-Serif" font-size="11.00" fill="#000000">base_phenomenon</text>
<polygon fill="none" stroke="#000000" points="350,-97.7 350,-119.7 528,-119.7 528,-97.7 350,-97.7"/>
<image xlink:href="../../images/foreignKeys.png" width="11px" height="12px" preserveAspectRatio="xMinYMin meet" x="355" y="-114.7"/>
<text text-anchor="start" x="379" y="-104.8" font-family="Helvetica,sans-Serif" font-size="11.00" fill="#000000">phenomenon_type</text>
<polygon fill="#ffffff" stroke="transparent" points="350,-75.7 350,-97.7 528,-97.7 528,-75.7 350,-75.7"/>
<polygon fill="none" stroke="#000000" points="350,-75.7 350,-97.7 528,-97.7 528,-75.7 350,-75.7"/>
<text text-anchor="start" x="379" y="-82.8" font-family="Helvetica,sans-Serif" font-size="11.00" fill="#000000">name</text>
<polygon fill="none" stroke="#000000" points="350,-56.7 350,-75.7 528,-75.7 528,-56.7 350,-56.7"/>
<text text-anchor="start" x="353" y="-62.8" font-family="Helvetica,sans-Serif" font-size="11.00" fill="#000000">...</text>
<polygon fill="#ffffff" stroke="transparent" points="350,-37.7 350,-56.7 433,-56.7 433,-37.7 350,-37.7"/>
<polygon fill="none" stroke="#000000" points="350,-37.7 350,-56.7 433,-56.7 433,-37.7 350,-37.7"/>
<text text-anchor="start" x="353" y="-43.8" font-family="Helvetica,sans-Serif" font-size="11.00" fill="#000000">&lt; 3</text>
<polygon fill="#ffffff" stroke="transparent" points="433,-37.7 433,-56.7 476,-56.7 476,-37.7 433,-37.7"/>
<polygon fill="none" stroke="#000000" points="433,-37.7 433,-56.7 476,-56.7 476,-37.7 433,-37.7"/>
<text text-anchor="start" x="466.8862" y="-43.8" font-family="Helvetica,sans-Serif" font-size="11.00" fill="#000000"> &#160;</text>
<polygon fill="#ffffff" stroke="transparent" points="476,-37.7 476,-56.7 528,-56.7 528,-37.7 476,-37.7"/>
<polygon fill="none" stroke="#000000" points="476,-37.7 476,-56.7 528,-56.7 528,-37.7 476,-37.7"/>
<text text-anchor="start" x="509.4053" y="-43.8" font-family="Helvetica,sans-Serif" font-size="11.00" fill="#000000">2 &gt;</text>
</a>
</g>
</g>
<!-- datastream&#45;&gt;observable_property -->
<g id="edge1" class="edge">
<title>datastream:w&#45;&gt;observable_property:e</title>
<path fill="none" stroke="#000000" d="M594.454,-275.204C583.9239,-268.5858 581.8158,-253.7216 569,-240.7 550.2505,-221.6494 554.7296,-196.7 528,-196.7"/>
<polygon fill="#000000" stroke="#000000" points="600.7368,-276.7678 607.6305,-282.1934 604.6184,-277.7339 608.5,-278.7 608.5,-278.7 608.5,-278.7 604.6184,-277.7339 609.3695,-275.2066 600.7368,-276.7678 600.7368,-276.7678"/>
<ellipse fill="none" stroke="#000000" cx="597.6316" cy="-275.9949" rx="3.2" ry="3.2"/>
</g>
<!-- codelist -->
<g id="node3" class="node">
<title>codelist</title>
<g id="a_node3"><a xlink:href="../../tables/codelist.html" xlink:title="codelist" target="_top">
<polygon fill="#ffffff" stroke="transparent" points="108.5,-72.2 108.5,-133.2 200.5,-133.2 200.5,-72.2 108.5,-72.2"/>
<polygon fill="#f5f5f5" stroke="transparent" points="108.5,-109.7 108.5,-132.7 200.5,-132.7 200.5,-109.7 108.5,-109.7"/>
<polygon fill="none" stroke="#000000" points="108.5,-109.7 108.5,-132.7 200.5,-132.7 200.5,-109.7 108.5,-109.7"/>
<text text-anchor="start" x="113.5" y="-118.3" font-family="Helvetica,sans-Serif" font-weight="bold" font-size="11.00" fill="#000000">codelist</text>
<text text-anchor="start" x="166.0219" y="-117.8" font-family="Helvetica,sans-Serif" font-size="11.00" fill="#000000">[table]</text>
<polygon fill="none" stroke="#000000" points="108.5,-90.7 108.5,-109.7 200.5,-109.7 200.5,-90.7 108.5,-90.7"/>
<text text-anchor="start" x="111.5" y="-96.8" font-family="Helvetica,sans-Serif" font-size="11.00" fill="#000000">...</text>
<polygon fill="#ffffff" stroke="transparent" points="108.5,-71.7 108.5,-90.7 145.5,-90.7 145.5,-71.7 108.5,-71.7"/>
<polygon fill="none" stroke="#000000" points="108.5,-71.7 108.5,-90.7 145.5,-90.7 145.5,-71.7 108.5,-71.7"/>
<text text-anchor="start" x="111.5" y="-77.8" font-family="Helvetica,sans-Serif" font-size="11.00" fill="#000000">&lt; 1</text>
<polygon fill="#ffffff" stroke="transparent" points="145.5,-71.7 145.5,-90.7 165.5,-90.7 165.5,-71.7 145.5,-71.7"/>
<polygon fill="none" stroke="#000000" points="145.5,-71.7 145.5,-90.7 165.5,-90.7 165.5,-71.7 145.5,-71.7"/>
<text text-anchor="start" x="156.3862" y="-77.8" font-family="Helvetica,sans-Serif" font-size="11.00" fill="#000000"> &#160;</text>
<polygon fill="#ffffff" stroke="transparent" points="165.5,-71.7 165.5,-90.7 200.5,-90.7 200.5,-71.7 165.5,-71.7"/>
<polygon fill="none" stroke="#000000" points="165.5,-71.7 165.5,-90.7 200.5,-90.7 200.5,-71.7 165.5,-71.7"/>
<text text-anchor="start" x="175.7904" y="-77.8" font-family="Helvetica,sans-Serif" font-size="11.00" fill="#000000">55 &gt;</text>
</a>
</g>
</g>
<!-- observable_property&#45;&gt;codelist -->
<g id="edge2" class="edge">
<title>observable_property:w&#45;&gt;codelist:e</title>
<path fill="none" stroke="#000000" d="M335.3868,-130.1878C279.7284,-126.1572 263.189,-99.7 200.5,-99.7"/>
<polygon fill="#000000" stroke="#000000" points="342.0049,-130.4197 349.8739,-134.2978 346.0025,-130.5599 350,-130.7 350,-130.7 350,-130.7 346.0025,-130.5599 350.1261,-127.1022 342.0049,-130.4197 342.0049,-130.4197"/>
<ellipse fill="none" stroke="#000000" cx="338.8069" cy="-130.3076" rx="3.2" ry="3.2"/>
</g>
<!-- observable_property&#45;&gt;codelist -->
<g id="edge4" class="edge">
<title>observable_property:w&#45;&gt;codelist:e</title>
<path fill="none" stroke="#000000" d="M335.2701,-108.5438C280.571,-107.3487 261.8644,-99.7 200.5,-99.7"/>
<polygon fill="#000000" stroke="#000000" points="342.0004,-108.6151 349.9618,-112.2998 346.0002,-108.6576 350,-108.7 350,-108.7 350,-108.7 346.0002,-108.6576 350.0382,-105.1002 342.0004,-108.6151 342.0004,-108.6151"/>
<ellipse fill="none" stroke="#000000" cx="338.8006" cy="-108.5812" rx="3.2" ry="3.2"/>
</g>
<!-- unit_of_measure -->
<g id="node4" class="node">
<title>unit_of_measure</title>
<g id="a_node4"><a xlink:href="../../tables/unit_of_measure.html" xlink:title="unit_of_measure" target="_top">
<polygon fill="#ffffff" stroke="transparent" points="8,-154.7 8,-398.7 301,-398.7 301,-154.7 8,-154.7"/>
<polygon fill="#f5f5f5" stroke="transparent" points="10.5,-373.7 10.5,-396.7 299.5,-396.7 299.5,-373.7 10.5,-373.7"/>
<polygon fill="none" stroke="#000000" points="10.5,-373.7 10.5,-396.7 299.5,-396.7 299.5,-373.7 10.5,-373.7"/>
<text text-anchor="start" x="15.5" y="-382.3" font-family="Helvetica,sans-Serif" font-weight="bold" font-size="11.00" fill="#000000">unit_of_measure</text>
<text text-anchor="start" x="264.5437" y="-381.8" font-family="Helvetica,sans-Serif" font-size="11.00" fill="#000000">[table]</text>
<polygon fill="none" stroke="#000000" points="10.5,-351.7 10.5,-373.7 190.5,-373.7 190.5,-351.7 10.5,-351.7"/>
<image xlink:href="../../images/primaryKeys.png" width="11px" height="12px" preserveAspectRatio="xMinYMin meet" x="15.5" y="-368.7"/>
<text text-anchor="start" x="30.5" y="-358.8" font-family="Helvetica,sans-Serif" font-size="11.00" fill="#000000">id</text>
<polygon fill="none" stroke="#000000" points="190.5,-351.7 190.5,-373.7 299.5,-373.7 299.5,-351.7 190.5,-351.7"/>
<text text-anchor="start" x="193.5" y="-359.4" font-family="Helvetica,sans-Serif" font-size="11.00" fill="#000000">int4[10]</text>
<polygon fill="#ffffff" stroke="transparent" points="10.5,-329.7 10.5,-351.7 190.5,-351.7 190.5,-329.7 10.5,-329.7"/>
<polygon fill="none" stroke="#000000" points="10.5,-329.7 10.5,-351.7 190.5,-351.7 190.5,-329.7 10.5,-329.7"/>
<text text-anchor="start" x="30.5" y="-336.8" font-family="Helvetica,sans-Serif" font-size="11.00" fill="#000000">guidkey</text>
<polygon fill="none" stroke="#000000" points="190.5,-329.7 190.5,-351.7 299.5,-351.7 299.5,-329.7 190.5,-329.7"/>
<text text-anchor="start" x="193.5" y="-337.4" font-family="Helvetica,sans-Serif" font-size="11.00" fill="#000000">varchar[50]</text>
<polygon fill="#ffffff" stroke="transparent" points="10.5,-307.7 10.5,-329.7 190.5,-329.7 190.5,-307.7 10.5,-307.7"/>
<polygon fill="none" stroke="#000000" points="10.5,-307.7 10.5,-329.7 190.5,-329.7 190.5,-307.7 10.5,-307.7"/>
<text text-anchor="start" x="30.5" y="-314.8" font-family="Helvetica,sans-Serif" font-size="11.00" fill="#000000">uom_name</text>
<polygon fill="none" stroke="#000000" points="190.5,-307.7 190.5,-329.7 299.5,-329.7 299.5,-307.7 190.5,-307.7"/>
<text text-anchor="start" x="193.5" y="-315.4" font-family="Helvetica,sans-Serif" font-size="11.00" fill="#000000">varchar[100]</text>
<polygon fill="#ffffff" stroke="transparent" points="10.5,-285.7 10.5,-307.7 190.5,-307.7 190.5,-285.7 10.5,-285.7"/>
<polygon fill="none" stroke="#000000" points="10.5,-285.7 10.5,-307.7 190.5,-307.7 190.5,-285.7 10.5,-285.7"/>
<text text-anchor="start" x="30.5" y="-292.8" font-family="Helvetica,sans-Serif" font-size="11.00" fill="#000000">uom_symbol</text>
<polygon fill="none" stroke="#000000" points="190.5,-285.7 190.5,-307.7 299.5,-307.7 299.5,-285.7 190.5,-285.7"/>
<text text-anchor="start" x="193.5" y="-293.4" font-family="Helvetica,sans-Serif" font-size="11.00" fill="#000000">varchar[50]</text>
<polygon fill="none" stroke="#000000" points="10.5,-263.7 10.5,-285.7 190.5,-285.7 190.5,-263.7 10.5,-263.7"/>
<text text-anchor="start" x="30.5" y="-270.8" font-family="Helvetica,sans-Serif" font-size="11.00" fill="#000000">measure_type</text>
<polygon fill="none" stroke="#000000" points="190.5,-263.7 190.5,-285.7 299.5,-285.7 299.5,-263.7 190.5,-263.7"/>
<text text-anchor="start" x="193.5" y="-271.4" font-family="Helvetica,sans-Serif" font-size="11.00" fill="#000000">varchar[50]</text>
<polygon fill="none" stroke="#000000" points="10.5,-241.7 10.5,-263.7 190.5,-263.7 190.5,-241.7 10.5,-241.7"/>
<text text-anchor="start" x="30.5" y="-248.8" font-family="Helvetica,sans-Serif" font-size="11.00" fill="#000000">name_standard_unit</text>
<polygon fill="none" stroke="#000000" points="190.5,-241.7 190.5,-263.7 299.5,-263.7 299.5,-241.7 190.5,-241.7"/>
<text text-anchor="start" x="193.5" y="-249.4" font-family="Helvetica,sans-Serif" font-size="11.00" fill="#000000">varchar[100]</text>
<polygon fill="none" stroke="#000000" points="10.5,-219.7 10.5,-241.7 190.5,-241.7 190.5,-219.7 10.5,-219.7"/>
<text text-anchor="start" x="30.5" y="-226.8" font-family="Helvetica,sans-Serif" font-size="11.00" fill="#000000">offset_to_standard_unit</text>
<polygon fill="none" stroke="#000000" points="190.5,-219.7 190.5,-241.7 299.5,-241.7 299.5,-219.7 190.5,-219.7"/>
<text text-anchor="start" x="193.5" y="-227.4" font-family="Helvetica,sans-Serif" font-size="11.00" fill="#000000">float8[17,17]</text>
<polygon fill="none" stroke="#000000" points="10.5,-197.7 10.5,-219.7 190.5,-219.7 190.5,-197.7 10.5,-197.7"/>
<text text-anchor="start" x="30.5" y="-204.8" font-family="Helvetica,sans-Serif" font-size="11.00" fill="#000000">scale_to_standard_unit</text>
<polygon fill="none" stroke="#000000" points="190.5,-197.7 190.5,-219.7 299.5,-219.7 299.5,-197.7 190.5,-197.7"/>
<text text-anchor="start" x="193.5" y="-205.4" font-family="Helvetica,sans-Serif" font-size="11.00" fill="#000000">float8[17,17]</text>
<polygon fill="none" stroke="#000000" points="10.5,-175.7 10.5,-197.7 190.5,-197.7 190.5,-175.7 10.5,-175.7"/>
<text text-anchor="start" x="30.5" y="-182.8" font-family="Helvetica,sans-Serif" font-size="11.00" fill="#000000">formula</text>
<polygon fill="none" stroke="#000000" points="190.5,-175.7 190.5,-197.7 299.5,-197.7 299.5,-175.7 190.5,-175.7"/>
<text text-anchor="start" x="193.0344" y="-183.4" font-family="Helvetica,sans-Serif" font-size="11.00" fill="#000000">varchar[2147483647]</text>
<polygon fill="#ffffff" stroke="transparent" points="10.5,-156.7 10.5,-175.7 104.5,-175.7 104.5,-156.7 10.5,-156.7"/>
<polygon fill="none" stroke="#000000" points="10.5,-156.7 10.5,-175.7 104.5,-175.7 104.5,-156.7 10.5,-156.7"/>
<text text-anchor="start" x="13.5" y="-162.8" font-family="Helvetica,sans-Serif" font-size="11.00" fill="#000000">&lt; 0</text>
<polygon fill="#ffffff" stroke="transparent" points="104.5,-156.7 104.5,-175.7 190.5,-175.7 190.5,-156.7 104.5,-156.7"/>
<polygon fill="none" stroke="#000000" points="104.5,-156.7 104.5,-175.7 190.5,-175.7 190.5,-156.7 104.5,-156.7"/>
<text text-anchor="start" x="181.3862" y="-162.8" font-family="Helvetica,sans-Serif" font-size="11.00" fill="#000000"> &#160;</text>
<polygon fill="#ffffff" stroke="transparent" points="190.5,-156.7 190.5,-175.7 299.5,-175.7 299.5,-156.7 190.5,-156.7"/>
<polygon fill="none" stroke="#000000" points="190.5,-156.7 190.5,-175.7 299.5,-175.7 299.5,-156.7 190.5,-156.7"/>
<text text-anchor="start" x="280.9053" y="-162.8" font-family="Helvetica,sans-Serif" font-size="11.00" fill="#000000">2 &gt;</text>
<polygon fill="none" stroke="#000000" stroke-width="2" points="9,-155.7 9,-397.7 300,-397.7 300,-155.7 9,-155.7"/>
</a>
</g>
</g>
<!-- observable_property&#45;&gt;unit_of_measure -->
<g id="edge3" class="edge">
<title>observable_property:w&#45;&gt;unit_of_measure:e</title>
<path fill="none" stroke="#000000" d="M335.4765,-154.7784C269.7712,-176.5884 389.8694,-362.7 299.5,-362.7"/>
<polygon fill="#000000" stroke="#000000" points="342.0807,-153.8334 350.51,-156.2637 346.0403,-153.2667 350,-152.7 350,-152.7 350,-152.7 346.0403,-153.2667 349.49,-149.1363 342.0807,-153.8334 342.0807,-153.8334"/>
<ellipse fill="none" stroke="#000000" cx="338.913" cy="-154.2867" rx="3.2" ry="3.2"/>
</g>
<!-- soil_theme_coverage -->
<g id="node5" class="node">
<title>soil_theme_coverage</title>
<g id="a_node5"><a xlink:href="../../tables/soil_theme_coverage.html" xlink:title="soil_theme_coverage" target="_top">
<polygon fill="#ffffff" stroke="transparent" points="577,-169.2 577,-230.2 756,-230.2 756,-169.2 577,-169.2"/>
<polygon fill="#f5f5f5" stroke="transparent" points="577.5,-206.7 577.5,-229.7 756.5,-229.7 756.5,-206.7 577.5,-206.7"/>
<polygon fill="none" stroke="#000000" points="577.5,-206.7 577.5,-229.7 756.5,-229.7 756.5,-206.7 577.5,-206.7"/>
<text text-anchor="start" x="582.5" y="-215.3" font-family="Helvetica,sans-Serif" font-weight="bold" font-size="11.00" fill="#000000">soil_theme_coverage</text>
<text text-anchor="start" x="722.0219" y="-214.8" font-family="Helvetica,sans-Serif" font-size="11.00" fill="#000000">[table]</text>
<polygon fill="none" stroke="#000000" points="577.5,-187.7 577.5,-206.7 756.5,-206.7 756.5,-187.7 577.5,-187.7"/>
<text text-anchor="start" x="580.5" y="-193.8" font-family="Helvetica,sans-Serif" font-size="11.00" fill="#000000">...</text>
<polygon fill="#ffffff" stroke="transparent" points="577.5,-168.7 577.5,-187.7 660.5,-187.7 660.5,-168.7 577.5,-168.7"/>
<polygon fill="none" stroke="#000000" points="577.5,-168.7 577.5,-187.7 660.5,-187.7 660.5,-168.7 577.5,-168.7"/>
<text text-anchor="start" x="580.5" y="-174.8" font-family="Helvetica,sans-Serif" font-size="11.00" fill="#000000">&lt; 2</text>
<polygon fill="#ffffff" stroke="transparent" points="660.5,-168.7 660.5,-187.7 703.5,-187.7 703.5,-168.7 660.5,-168.7"/>
<polygon fill="none" stroke="#000000" points="660.5,-168.7 660.5,-187.7 703.5,-187.7 703.5,-168.7 660.5,-168.7"/>
<text text-anchor="start" x="694.3862" y="-174.8" font-family="Helvetica,sans-Serif" font-size="11.00" fill="#000000"> &#160;</text>
<polygon fill="#ffffff" stroke="transparent" points="703.5,-168.7 703.5,-187.7 756.5,-187.7 756.5,-168.7 703.5,-168.7"/>
<polygon fill="none" stroke="#000000" points="703.5,-168.7 703.5,-187.7 756.5,-187.7 756.5,-168.7 703.5,-168.7"/>
<text text-anchor="start" x="737.9053" y="-174.8" font-family="Helvetica,sans-Serif" font-size="11.00" fill="#000000">1 &gt;</text>
</a>
</g>
</g>
<!-- soil_theme_coverage&#45;&gt;observable_property -->
<g id="edge5" class="edge">
<title>soil_theme_coverage:w&#45;&gt;observable_property:e</title>
<path fill="none" stroke="#000000" d="M562.8428,-196.7C551.4139,-196.7 544.1563,-196.7 528,-196.7"/>
<polygon fill="#000000" stroke="#000000" points="569.5,-196.7001 577.5,-200.3 573.5,-196.7 577.5,-196.7 577.5,-196.7 577.5,-196.7 573.5,-196.7 577.5,-193.1 569.5,-196.7001 569.5,-196.7001"/>
<ellipse fill="none" stroke="#000000" cx="566.3" cy="-196.7001" rx="3.2" ry="3.2"/>
</g>
<!-- soil_theme_descriptive_coverage -->
<g id="node6" class="node">
<title>soil_theme_descriptive_coverage</title>
<g id="a_node6"><a xlink:href="../../tables/soil_theme_descriptive_coverage.html" xlink:title="soil_theme_descriptive_coverage" target="_top">
<polygon fill="#ffffff" stroke="transparent" points="805,-193.2 805,-342.2 1100,-342.2 1100,-193.2 805,-193.2"/>
<polygon fill="#f5f5f5" stroke="transparent" points="805.5,-318.7 805.5,-341.7 1100.5,-341.7 1100.5,-318.7 805.5,-318.7"/>
<polygon fill="none" stroke="#000000" points="805.5,-318.7 805.5,-341.7 1100.5,-341.7 1100.5,-318.7 805.5,-318.7"/>
<text text-anchor="start" x="810.5" y="-327.3" font-family="Helvetica,sans-Serif" font-weight="bold" font-size="11.00" fill="#000000">soil_theme_descriptive_coverage</text>
<text text-anchor="start" x="1065.5437" y="-326.8" font-family="Helvetica,sans-Serif" font-size="11.00" fill="#000000">[table]</text>
<polygon fill="none" stroke="#000000" points="805.5,-296.7 805.5,-318.7 1100.5,-318.7 1100.5,-296.7 805.5,-296.7"/>
<image xlink:href="../../images/primaryKeys.png" width="11px" height="12px" preserveAspectRatio="xMinYMin meet" x="810.5" y="-313.7"/>
<text text-anchor="start" x="825.5" y="-303.8" font-family="Helvetica,sans-Serif" font-size="11.00" fill="#000000">id</text>
<polygon fill="#ffffff" stroke="transparent" points="805.5,-274.7 805.5,-296.7 1100.5,-296.7 1100.5,-274.7 805.5,-274.7"/>
<polygon fill="none" stroke="#000000" points="805.5,-274.7 805.5,-296.7 1100.5,-296.7 1100.5,-274.7 805.5,-274.7"/>
<image xlink:href="../../images/foreignKeys.png" width="11px" height="12px" preserveAspectRatio="xMinYMin meet" x="810.5" y="-291.7"/>
<text text-anchor="start" x="825.5" y="-281.8" font-family="Helvetica,sans-Serif" font-size="11.00" fill="#000000">id_soil_theme_coverage</text>
<polygon fill="#ffffff" stroke="transparent" points="805.5,-252.7 805.5,-274.7 1100.5,-274.7 1100.5,-252.7 805.5,-252.7"/>
<polygon fill="none" stroke="#000000" points="805.5,-252.7 805.5,-274.7 1100.5,-274.7 1100.5,-252.7 805.5,-252.7"/>
<image xlink:href="../../images/foreignKeys.png" width="11px" height="12px" preserveAspectRatio="xMinYMin meet" x="810.5" y="-269.7"/>
<text text-anchor="start" x="825.5" y="-259.8" font-family="Helvetica,sans-Serif" font-size="11.00" fill="#000000">id_uom</text>
<polygon fill="#ffffff" stroke="transparent" points="805.5,-230.7 805.5,-252.7 1100.5,-252.7 1100.5,-230.7 805.5,-230.7"/>
<polygon fill="none" stroke="#000000" points="805.5,-230.7 805.5,-252.7 1100.5,-252.7 1100.5,-230.7 805.5,-230.7"/>
<text text-anchor="start" x="825.5" y="-237.8" font-family="Helvetica,sans-Serif" font-size="11.00" fill="#000000">domain_extent</text>
<polygon fill="none" stroke="#000000" points="805.5,-211.7 805.5,-230.7 1100.5,-230.7 1100.5,-211.7 805.5,-211.7"/>
<text text-anchor="start" x="808.5" y="-217.8" font-family="Helvetica,sans-Serif" font-size="11.00" fill="#000000">...</text>
<polygon fill="#ffffff" stroke="transparent" points="805.5,-192.7 805.5,-211.7 951.5,-211.7 951.5,-192.7 805.5,-192.7"/>
<polygon fill="none" stroke="#000000" points="805.5,-192.7 805.5,-211.7 951.5,-211.7 951.5,-192.7 805.5,-192.7"/>
<text text-anchor="start" x="808.5" y="-198.8" font-family="Helvetica,sans-Serif" font-size="11.00" fill="#000000">&lt; 2</text>
<polygon fill="#ffffff" stroke="transparent" points="951.5,-192.7 951.5,-211.7 1025.5,-211.7 1025.5,-192.7 951.5,-192.7"/>
<polygon fill="none" stroke="#000000" points="951.5,-192.7 951.5,-211.7 1025.5,-211.7 1025.5,-192.7 951.5,-192.7"/>
<text text-anchor="start" x="1016.3862" y="-198.8" font-family="Helvetica,sans-Serif" font-size="11.00" fill="#000000"> &#160;</text>
<polygon fill="#ffffff" stroke="transparent" points="1025.5,-192.7 1025.5,-211.7 1100.5,-211.7 1100.5,-192.7 1025.5,-192.7"/>
<polygon fill="none" stroke="#000000" points="1025.5,-192.7 1025.5,-211.7 1100.5,-211.7 1100.5,-192.7 1025.5,-192.7"/>
<text text-anchor="start" x="1091.3862" y="-198.8" font-family="Helvetica,sans-Serif" font-size="11.00" fill="#000000"> &#160;</text>
</a>
</g>
</g>
<!-- soil_theme_descriptive_coverage&#45;&gt;unit_of_measure -->
<g id="edge7" class="edge">
<title>soil_theme_descriptive_coverage:w&#45;&gt;unit_of_measure:e</title>
<path fill="none" stroke="#000000" d="M791.7649,-268.1012C778.849,-279.4728 786.364,-309.8402 764,-322.7 584.3713,-425.9904 506.7085,-362.7 299.5,-362.7"/>
<polygon fill="#000000" stroke="#000000" points="797.8816,-266.1412 806.5986,-267.1283 801.6908,-264.9206 805.5,-263.7 805.5,-263.7 805.5,-263.7 801.6908,-264.9206 804.4014,-260.2717 797.8816,-266.1412 797.8816,-266.1412"/>
<ellipse fill="none" stroke="#000000" cx="794.8342" cy="-267.1177" rx="3.2" ry="3.2"/>
</g>
<!-- soil_theme_descriptive_coverage&#45;&gt;soil_theme_coverage -->
<g id="edge6" class="edge">
<title>soil_theme_descriptive_coverage:w&#45;&gt;soil_theme_coverage:e</title>
<path fill="none" stroke="#000000" d="M791.6791,-281.4073C769.7931,-263.6293 795.6573,-196.7 756.5,-196.7"/>
<polygon fill="#000000" stroke="#000000" points="797.86,-283.327 804.4322,-289.138 801.68,-284.5135 805.5,-285.7 805.5,-285.7 805.5,-285.7 801.68,-284.5135 806.5678,-282.262 797.86,-283.327 797.86,-283.327"/>
<ellipse fill="none" stroke="#000000" cx="794.804" cy="-282.3779" rx="3.2" ry="3.2"/>
</g>
</g>
</svg>
